<?xml version="1.0" encoding="utf-8"?>
<!-- Generator: Adobe Illustrator 22.1.0, SVG Export Plug-In . SVG Version: 6.00 Build 0)  -->
<svg version="1.1" id="Layer_1" xmlns="http://www.w3.org/2000/svg" xmlns:xlink="http://www.w3.org/1999/xlink" x="0px" y="0px"
	 viewBox="0 0 423.5 566.4" style="enable-background:new 0 0 423.5 566.4;" xml:space="preserve">
<style type="text/css">
	.st0{fill:none;stroke:#000000;stroke-width:5;stroke-miterlimit:10;}
</style>
<path class="st0" d="M73.3,48.3c0,0,102,74,188,107c0,0,87,38,91,134c0,0-5,84,0,216c0,0,5,83-90,54c0,0-78-27-189-110
	c0,0-60-36-71-151c0,0-3-7,0-211C2.3,87.3,7.3-0.7,73.3,48.3z"/>
<path class="st0" d="M25.3,36.3l51-29c0,0,20-17,59,5l187,108c0,0,80,48,80,140v216c0,0,5,31-23,53l-48,27"/>
<path class="st0" d="M401.3,496.3l18-42c0,0,4-8,3-25v-208c0,0,1-61-58-99l-188-108c0,0-5.6-8.5-76.3-13.2"/>
<polyline class="st0" points="177.9,15.1 136,12.6 74.3,47.3 "/>
<polyline class="st0" points="364.3,122.3 322.3,120.3 260.4,154.9 "/>
<polyline class="st0" points="422.3,221.3 403.3,260.3 352.3,289.3 "/>
<polyline class="st0" points="422.5,436.8 402.7,477.8 352.3,505.3 "/>
<path class="st0" d="M33.3,93.3c0,0,111,96,267,155c0,0,14,7,3-11c0,0-14-30-53-48c0,0-105-47-180-104c0,0-17-15-36-2
	C34.3,83.3,27.3,88.3,33.3,93.3z"/>
<path class="st0" d="M58.3,102.3c0,0,54,55,230,134c0,0,11,3-4-13c0,0-17-16-31-20c0,0-55-18-178-104c0,0-6-6-17-4
	C58.3,95.3,49.3,96.3,58.3,102.3z"/>
<line class="st0" x1="54.3" y1="96.3" x2="31.3" y2="88.3"/>
<line class="st0" x1="58.3" y1="103.3" x2="41.3" y2="99.3"/>
<line class="st0" x1="76.5" y1="100.1" x2="70.3" y2="85.3"/>
<line class="st0" x1="292.2" y1="233.9" x2="307.3" y2="247.3"/>
<line class="st0" x1="288.3" y1="236.3" x2="299.3" y2="248.3"/>
<polygon class="st0" points="247.3,277.3 246.3,291.3 296.3,311.3 296.3,297.3 "/>
<polygon class="st0" points="46.3,155.3 35.3,146.3 34.3,160.3 46.3,170.3 46.3,188.3 56.3,196.3 56.3,179.3 68.3,188.3 69.3,174.3 
	57.3,164.3 57.3,146.3 47.3,138.3 "/>
<path class="st0" d="M265.3,429.3c0,0,19,0,22,24c0,0,0,8-10,9c0,0-17,1-22-24C255.3,438.3,253.3,429.3,265.3,429.3z"/>
<path class="st0" d="M262.3,419.3c0,0,28,2,35,37c0,0,2,13-15,15c0,0-28,2-36-36C246.3,435.3,244.3,419.3,262.3,419.3z"/>
<path class="st0" d="M61.3,347.3c0,0-21-3-27-42c0,0-1-17,8-15c0,0,24,6,27,41C69.3,331.3,72.3,345.3,61.3,347.3z"/>
<path class="st0" d="M145.3,307.3l26,14c0,0,5,4,5-4c0,0,2-4-5-8l-25-15c0,0-5-3-5,2C141.3,296.3,139.3,302.3,145.3,307.3z"/>
<path class="st0" d="M29.3,203.3c0,0,114,99,268,155c0,0,13,2,13,16v28c0,0,2,7-13,2c0,0-166-62-268-155c0,0-8-3-7-21v-22
	C22.3,206.3,21.3,196.3,29.3,203.3z"/>
<polyline class="st0" points="43.3,215.3 43.3,245.3 22.8,238.3 "/>
<polyline class="st0" points="43.3,245.3 47.3,250.3 31.3,250.3 "/>
<path class="st0" d="M47.3,250.3c0,0,112,96,248,143h4l-1-34"/>
<line class="st0" x1="295.3" y1="394.3" x2="300.3" y2="405.3"/>
<line class="st0" x1="299.3" y1="393.3" x2="310.3" y2="404.3"/>
<path class="st0" d="M32.3,358.3c0,0,15,40,38,57c0,0,93,69,188,109c0,0,22,14,44-4c0,0,14-6-6-14c0,0-152-56-256-148
	C40.3,358.3,31.3,350.3,32.3,358.3z"/>
<path class="st0" d="M61.3,376.3c0,0,8,14,24,25c0,0,109,76,184,104c0,0,11.7,3.3,20.9-1.3"/>
<line class="st0" x1="263.3" y1="504.3" x2="258" y2="524.1"/>
<line class="st0" x1="76.3" y1="395.3" x2="70.3" y2="415.3"/>
</svg>
