<?xml version="1.0" encoding="utf-8"?>
<!-- Generator: Adobe Illustrator 22.1.0, SVG Export Plug-In . SVG Version: 6.00 Build 0)  -->
<svg version="1.0" id="Layer_1" xmlns="http://www.w3.org/2000/svg" xmlns:xlink="http://www.w3.org/1999/xlink" x="0px" y="0px"
	 viewBox="0 0 381.1 696" style="enable-background:new 0 0 381.1 696;" xml:space="preserve">
<style type="text/css">
	.st0{fill:none;stroke:#000000;stroke-width:2;stroke-miterlimit:10;}
</style>
<path class="st0" d="M22.9,126.4l261,34l-1,315c0,0,46,83,3,157c0,0-7,61,25,53l19-12v-46l-11-12l-0.2-3.9l-0.8-12.1
	c0,0,46-55,1-154l-1-336l13.1-12l10.9-10c0,0,7-7,7,14v320c0,0,48,91,2,157c0,0-2,27-9,33l-12,15l-11-11v-4l12-13l12,12l-12-12l3-11
	l2-10l-11,11l12-12c0,0,42-68-4-149v-330v-1v7l16-3"/>
<path class="st0" d="M317.9,109.4l-7,6c0,0-6,8-7,26l-1,321c0,0,47,73,1,163c0,0-2,13,8,12l17-10"/>
<line class="st0" x1="317.9" y1="613.4" x2="307.9" y2="619.4"/>
<line class="st0" x1="317.9" y1="605.4" x2="310.9" y2="610.4"/>
<line class="st0" x1="317.9" y1="605.4" x2="333.9" y2="587.4"/>
<line class="st0" x1="333.9" y1="587.4" x2="349.9" y2="586.4"/>
<line class="st0" x1="336.9" y1="576.4" x2="350.9" y2="578.4"/>
<path class="st0" d="M350.9,578.4c0,0,60-60,8-165v-138l6-64l-1-137c0,0-3-47-20-34s-32,27-32,27s-29,30-28,93"/>
<path class="st0" d="M355.9,42.4c0,0-9-14-16-5l-31,27c0,0-28.1,24.8-29.5,95.4"/>
<line class="st0" x1="309.9" y1="64.4" x2="311.9" y2="66.4"/>
<line class="st0" x1="327.9" y1="48.4" x2="329.9" y2="51.4"/>
<line class="st0" x1="339.9" y1="37.4" x2="342.9" y2="40.4"/>
<path class="st0" d="M345.9,34.4l-257-33c0,0-6-2-13,3l-16,10l-15,16c0,0-24.2,35.6-22.6,96.3l-0.4,318.7c0,0-47,70,0,160l1,23
	c0,0,2,23,14,27l33,5c0,0,80,63,163,19l61,9c0,0,8,4,17-3"/>
<path class="st0" d="M278.9,635.4c0,0,0,48,18,54"/>
<path class="st0" d="M232.9,679.4c0,0,115-65,46-197v-322"/>
<line class="st0" x1="309.9" y1="64.4" x2="44.9" y2="30.4"/>
<line class="st0" x1="327.9" y1="48.4" x2="59.9" y2="14.4"/>
<line class="st0" x1="339.9" y1="37.4" x2="75.9" y2="4.4"/>
<path class="st0" d="M140.8,142c0,0,2-36.6,6-49.6l4-4l15,2l1,1v3c0,0-7,38-5,48l-6,1"/>
<path class="st0" d="M155.9,143.4c0,0,2-43,6-49l-14-2"/>
<path class="st0" d="M21.9,605.4c0,0,31.1,43.4,52,58"/>
<path class="st0" d="M23.9,527.4c0,0-1,117,126,142c0,0,127,15,127-113c0,0-2-129-140-140C136.9,416.4,36.9,404.4,23.9,527.4z"/>
<path class="st0" d="M137.9,422.4c0,0-108,0-106,109c0,0-2,113,128,132c0,0,110,5,111-106C270.9,557.4,265.9,434.4,137.9,422.4z"/>
<path class="st0" d="M90.9,433.4v45l-19,14l2,16h13c4,0,4,6,4,6v43c0,0,62,104,166,56l5.9-10.6l-0.9-34.4l9-9.3"/>
<path class="st0" d="M131.9,482.4c0,0-15,2-16,17c0,0,0,16,19,18c0,0,13,3,16-14C150.9,503.4,150.9,483.4,131.9,482.4z"/>
<path class="st0" d="M231.9,513.4c0,0-1,16,19,19s4.5-32.1,4.5-32.1S235.9,489.4,231.9,513.4z"/>
<path class="st0" d="M88.9,510.4l-34,31v42c0,0-13-24-14-47l33-28"/>
<polyline class="st0" points="71.9,492.4 54.9,504.4 54.9,465.4 89.9,434.4 "/>
<path class="st0" d="M54.9,465.4c0,0-12,20-14,40h13"/>
<path class="st0" d="M329.9,673.4c0,0,25-20,29-97l-9,10"/>
<line class="st0" x1="54.9" y1="585.4" x2="90.9" y2="557.4"/>
<line class="st0" x1="358.9" y1="576.4" x2="360.1" y2="566.3"/>
<line class="st0" x1="41.9" y1="536.4" x2="54.9" y2="541.4"/>
<line class="st0" x1="261.9" y1="568.4" x2="270.9" y2="569.9"/>
<line class="st0" x1="161.9" y1="94.4" x2="166.5" y2="91.1"/>
</svg>
