<?xml version="1.0" encoding="utf-8"?>
<!-- Generator: Adobe Illustrator 22.1.0, SVG Export Plug-In . SVG Version: 6.00 Build 0)  -->
<svg version="1.1" id="Layer_1" xmlns="http://www.w3.org/2000/svg" xmlns:xlink="http://www.w3.org/1999/xlink" x="0px" y="0px"
	 viewBox="0 0 510.2 510" style="enable-background:new 0 0 510.2 510;" xml:space="preserve">
<style type="text/css">
	.st0{fill:#FFFFFF;}
</style>
<g>
	<g>
		<path class="st0" d="M330.5,510c-88.5,0-176.9,0-265.4,0c0-169.7,0-339.5,0-509.3c126.9,0,253.9,0,380.8,0c0,65.9,0,131.9,0,197.8
			c-0.2-1.1-0.5-2.1-0.6-3.2c-3.6-37.7-21.7-66.8-53.9-85.9C336.9,77,281.8,45.8,226.9,14.3c-5.2-3-11.1-5.2-16.9-6.4
			c-9.8-2-19.9-3-29.8-4.2c-9.4-1.1-18.6-3.3-28.1-2.6c-6.2,0.5-12.2,1.8-17.6,4.9c-13.8,7.9-27.6,16-41.3,24
			c-1.9,1.1-3.9,2.1-5.6,3.4c-8.6,6.3-13.4,15-16.4,25c-3.6,12-3.9,24.3-4,36.6c-0.6,39.2-1.2,78.5-1.2,117.8
			c0,20.6,0.5,41.3,1.9,61.8c2.2,32.5,12.2,62.6,29.4,90.3c9.4,15.3,20.7,29.2,34.4,40.7c9.7,8.2,20.4,15.3,30.9,22.5
			c39.6,27.1,81.6,49.9,125.3,69.4c6.6,3,13.3,6,20.2,8C315.3,507.7,322.9,508.6,330.5,510z"/>
		<path d="M330.5,510c-7.5-1.4-15.2-2.3-22.5-4.4c-6.9-2-13.6-5.1-20.2-8c-43.8-19.5-85.7-42.3-125.3-69.4
			c-10.5-7.2-21.2-14.3-30.9-22.5c-13.7-11.5-25-25.4-34.4-40.7c-17.1-27.7-27.2-57.8-29.4-90.3c-1.4-20.6-1.9-41.2-1.9-61.8
			c0-39.3,0.6-78.5,1.2-117.8c0.2-12.3,0.4-24.7,4-36.6c3-10,7.8-18.7,16.4-25c1.7-1.3,3.7-2.3,5.6-3.4c13.8-8,27.5-16.1,41.3-24
			c5.4-3.1,11.4-4.4,17.6-4.9c9.5-0.8,18.8,1.5,28.1,2.6c10,1.1,20,2.2,29.8,4.2c5.8,1.2,11.7,3.4,16.9,6.4
			c54.9,31.5,110,62.8,164.5,95.1c32.2,19.1,50.3,48.3,53.9,85.9c0.1,1.1,0.4,2.1,0.6,3.2c0,0.4,0,0.8,0,1.2
			c-0.2,1.1-0.4,2.1-0.4,3.2c0,62.1,0,124.1,0,186.2c0,1.1,0.3,2.1,0.4,3.2c0,0.4,0,0.8,0,1.2c-0.2,0.6-0.5,1.1-0.5,1.7
			c-0.2,8.2-2.5,15.8-5.8,23.3c-5.8,13.1-10.9,26.5-16.8,39.6c-3.5,7.8-9,14.4-16.5,18.8c-13.7,8-27.4,15.8-41.2,23.7
			c-2.2,1.2-4.3,2.5-6.5,3.6c-7.2,3.5-14.9,4.8-22.7,5.9C334,510,332.2,510,330.5,510z M386.1,135.1c-3.1-3.4-6.2-6.9-9.4-10.3
			c-0.2,0.2-0.5,0.5-0.7,0.7C379.3,128.7,382.7,131.9,386.1,135.1c3.6,4.6,7.3,9.2,10.7,13.9c14.4,20,24,42.1,28.3,66.4
			c1,5.5,1.6,11,2.4,16.5c0.2-0.5,0.3-1,0.2-1.5c-0.4-3.8-0.6-7.5-1.2-11.3c-4.6-31.4-17.8-58.9-38.6-82.7
			C387.4,135.9,386.7,135.6,386.1,135.1z M377.7,359.8c0.7-32.1,1.4-64.1,2.1-96c0.5-22.6-5.2-43.6-16.7-63
			c-16.2-27.2-39.1-47-67.8-60.1c-57.1-26.1-111.6-56.9-162.4-93.8c-4.3-3.1-8.9-6.1-13.6-8.5c-4.6-2.3-9.5-4.2-14.5-5.3
			c-11.3-2.3-19.1,3.5-25.3,12.1c-7.3,10.1-9.2,21.9-10,33.9c-1,16-1.8,32-1.9,48.1c-0.1,39.8,0.1,79.7,0.6,119.5
			c0.2,13.9,0.8,27.9,2.6,41.7c3.5,27.2,13,52.5,27.6,75.8c11.2,17.9,24.7,33.7,41.8,46.3c40.5,30,83.7,55.4,129.2,76.9
			c11.1,5.2,22.2,10.3,33.7,14.7c13.1,5,26.6,7.3,40.7,4.3c16-3.4,27.3-12,32.5-27.9c2.4-7.4,3.7-14.9,3.5-22.6
			C379.2,423.9,378.4,391.8,377.7,359.8z M134.2,43.1c1,0.8,1.7,1.4,2.5,2c50.6,36.6,104.8,66.9,161.5,93c1.9,0.9,3.3,0.5,5-0.5
			c15.3-8.9,30.7-17.7,46.1-26.6c0.8-0.5,1.6-1,2.6-1.7c-0.8-0.5-1.3-0.9-1.8-1.2c-54.1-31.3-108.3-62.5-162.4-93.9
			c-1.6-0.9-2.8-0.8-4.3,0.1c-15.6,9.1-31.2,18.1-46.8,27.1C135.9,42,135.2,42.5,134.2,43.1z M425.7,236.9c-1.1,0.5-1.6,0.7-2,0.9
			c-12.9,7.4-25.7,14.9-38.6,22.2c-1.8,1.1-2,2.5-2,4.2c-2.1,61.8-2.3,123.5-0.1,185.3c0,1.1,0.2,2.2,0.3,3.7
			c1.3-0.7,2.2-1.2,3.1-1.7c12.1-7,24.1-14,36.3-20.9c2.3-1.3,3.1-2.7,3.1-5.4c-0.1-61.6-0.1-123.1-0.1-184.7
			C425.7,239.6,425.7,238.5,425.7,236.9z M383.3,258.7c0.5,0.1,0.6,0.1,0.7,0.1c13.5-7.7,27-15.4,40.4-23.2c2.6-1.5,1.1-4.4,0.9-6.6
			c-1.8-21.3-7.9-41.4-18-60.3c-12.2-22.9-29-41.8-50.5-56.5c-2.2-1.5-3.8-1.7-6.1-0.3c-15,8.8-30.2,17.5-45.2,26.2
			c-0.8,0.5-1.6,1-2.9,1.8c23.2,11.6,42.3,27.5,57,48.5C374.2,209.5,382.5,232.8,383.3,258.7z M443.9,204.1c-0.3,0-0.5-0.1-0.8-0.1
			c-4.1,8.8-8.3,17.6-12.3,26.5c-0.9,1.9-1.4,4.2-1.4,6.3c-0.1,61-0.1,121.9-0.1,182.9c0,0.8,0.1,1.6,0.2,2.4
			c4.6-8.6,8.8-17.2,12.7-25.9c1-2.2,1.6-4.7,1.6-7.1c0.1-60.6,0.1-121.1,0.1-181.7C443.9,206.3,443.9,205.2,443.9,204.1z
			 M193.2,12.7c0,0.2-0.1,0.4-0.1,0.6c1,0.6,2,1.2,3,1.8c51.6,29.8,103.3,59.6,154.9,89.5c4,2.3,8,3.7,12.6,3.8
			c5.8,0.2,11.5,1,17.3,1.5c2.9,0.2,5.7,0.4,8.6,0.6c-0.3-0.8-0.7-1.1-1.1-1.3c-53.5-30.9-107.1-61.8-160.6-92.6
			c-1-0.6-2.2-0.9-3.3-1C214,14.5,203.6,13.6,193.2,12.7z M429.4,229.4c0.8-1.5,1.3-2.4,1.7-3.2c3.2-6.8,5.9-13.8,9.6-20.2
			c3.2-5.7,3.3-11.4,2.4-17.6c-5-31.5-21.3-56-46.9-74.5c-1.1-0.8-2.7-1.3-4.1-1.5c-5.9-0.7-11.9-1.2-17.8-1.7
			c-4.5-0.4-8.9-0.7-14.1-1.1C401,139.6,424.1,178.9,429.4,229.4z M97.6,29.1c0.1,0.2,0.1,0.4,0.2,0.5c3.1,0.2,6.3,0.1,9.4,0.5
			c8.6,1.3,16,5.3,22.9,10.2c1.8,1.3,3.1,1.4,5,0.3c15.3-9,30.6-17.8,45.9-26.7c0.8-0.5,1.6-1,3.1-1.9C179,10,174.6,8,170,6.4
			c-11-3.8-22.3-5.2-33,0.5C123.7,14,110.7,21.7,97.6,29.1z M369.1,496.1c1.3-0.6,1.8-0.7,2.3-1c10.6-6.1,21.3-12,31.7-18.5
			c4.6-2.9,8.9-6.5,12.3-10.6c6.5-7.6,8.2-17.3,9.5-26.9c0.3-2.5,0.4-5,0.7-8c-1.1,0.5-1.6,0.6-2.1,0.9
			c-12.8,7.4-25.5,14.7-38.2,22.2c-1.1,0.6-2,2.5-2,3.8c-0.6,12.3-3.1,23.9-10.8,33.9C371.5,493,370.6,494.2,369.1,496.1z
			 M176.7,5.2c5.8,2,10.8,6.2,17.4,6.2c4.2,0,8.3,0.7,12.5,1c4.7,0.4,9.4,0.7,14.6,1.1C214.5,9.2,198.2,6.2,176.7,5.2z M428.7,439.1
			c5.1-7.1,15.2-35.5,14.3-40.5c-0.6,1.1-1,2-1.4,2.8c-3,6.4-5.7,13-9.1,19.2C429.2,426.5,428.9,432.7,428.7,439.1z M427.6,424.2
			C427.6,424.2,427.6,424.2,427.6,424.2c0-62.2,0-124.3,0-186.5c0,0,0,0,0,0C427.6,299.9,427.6,362,427.6,424.2z M314.7,147.8
			c-0.2,0.2-0.3,0.4-0.5,0.5c8.7,6.8,17.5,13.6,26.2,20.4c0.2-0.2,0.3-0.4,0.5-0.6C332.2,161.3,323.4,154.5,314.7,147.8z M256.2,120
			c0.1-0.1,0.1-0.3,0.2-0.4c-3.4-1.7-6.8-3.4-10.2-5.1c-0.1,0.1-0.1,0.3-0.2,0.4C249.5,116.6,252.8,118.3,256.2,120z"/>
		<path class="st0" d="M335.8,510c7.8-1,15.6-2.4,22.7-5.9c2.2-1.1,4.4-2.4,6.5-3.6c13.7-7.9,27.5-15.7,41.2-23.7
			c7.5-4.4,13-11,16.5-18.8c5.9-13.1,11-26.5,16.8-39.6c3.3-7.5,5.7-15.1,5.8-23.3c0-0.6,0.3-1.1,0.5-1.7c0,38.9,0,77.7,0,116.6
			C409.2,510,372.5,510,335.8,510z"/>
		<path class="st0" d="M445.8,392.2c-0.2-1.1-0.4-2.1-0.4-3.2c0-62.1,0-124.1,0-186.2c0-1.1,0.3-2.1,0.4-3.2
			C445.8,263.9,445.8,328,445.8,392.2z"/>
		<path class="st0" d="M377.7,359.8c0.7,32,1.5,64,2.1,96.1c0.2,7.7-1.1,15.3-3.5,22.6c-5.2,15.8-16.6,24.5-32.5,27.9
			c-14.1,3-27.6,0.7-40.7-4.3c-11.4-4.4-22.6-9.5-33.7-14.7c-45.5-21.5-88.7-46.9-129.2-76.9c-17.1-12.6-30.6-28.4-41.8-46.3
			c-14.5-23.3-24-48.6-27.6-75.8c-1.8-13.8-2.4-27.8-2.6-41.7c-0.5-39.8-0.7-79.7-0.6-119.5c0-16,0.8-32.1,1.9-48.1
			c0.8-11.9,2.7-23.8,10-33.9c6.2-8.6,14-14.4,25.3-12.1c5,1,9.9,3,14.5,5.3c4.8,2.4,9.3,5.4,13.6,8.5
			c50.9,37,105.3,67.7,162.4,93.8c28.7,13.1,51.6,32.9,67.8,60.1c11.5,19.4,17.2,40.4,16.7,63C379.1,295.8,378.4,327.7,377.7,359.8z
			 M110.3,69.8c-6.2-0.1-10.9,2.8-14.7,7.4c-2.7,3.3-2.7,5.5,0.6,8.4c2.7,2.5,5.7,4.7,8.5,7.1c33.2,27.6,68.8,51.7,106.3,72.9
			c39.3,22.2,80.3,41,122.1,58c2.1,0.9,4.3,1.6,6.6,1.9c2.4,0.3,3.6-1.4,2.6-3.5c-9-20.1-22.6-36.1-42.3-46.3
			c-12.9-6.7-26.3-12.5-39.3-19c-45.9-22.9-89.8-49.1-131.2-79.4C123.9,73,117.6,69.9,110.3,69.8z M345.4,347.6
			C345.4,347.6,345.4,347.6,345.4,347.6c0-4.1-0.4-8.2,0.1-12.2c0.6-5.9-2.4-9.2-7.2-11.4c-4.7-2.1-9.5-4.1-14.3-5.9
			c-83.7-32.1-160.2-76.4-229-133.9c-1.4-1.2-2.9-2.5-4.6-3.3c-2.9-1.5-4.7-0.2-4.7,3.1c0,9.8,0,19.5,0,29.3c0,1.3,0.2,2.6,0.6,3.7
			c1.8,5,5.7,8.2,9.6,11.6c44.5,39.1,94,70.6,147.2,96.6c29.7,14.5,60.1,27.4,90.8,39.9c2.3,1,5,1.3,7.6,1.4
			c2.8,0.1,4.1-1.5,4.1-4.3C345.4,357.4,345.4,352.5,345.4,347.6z M315,476.3c11,0.2,19.3-3.3,25.9-10.7c2.2-2.5,2.2-4.5-0.6-6.4
			c-2.6-1.7-5.4-3.4-8.3-4.6c-34.8-13.5-68.7-28.8-101.6-46.3c-46.1-24.4-89.6-52.7-129-87c-1.3-1.1-2.7-2.1-4.2-2.8
			c-0.9-0.4-2.3-0.5-3,0c-0.5,0.4-0.5,2-0.2,2.9c3.8,10.7,8.5,21,14.7,30.6c5.7,8.7,12,17.1,20.2,23.4c10.2,7.8,20.9,15,31.6,22.1
			c42.3,28.1,86.9,52.1,133,73.3C300.8,474.2,308.3,475.9,315,476.3z M117.3,163.2c3.9,3,7.2,5.6,11.1,8.6c0.4-3,0.6-5.2,0.9-7.3
			c0.7-5.2-0.6-9.5-5.7-12.1c-4.8-2.4-6.9-6.2-5.6-11.6c0.4-1.5,0.2-3.2,0.2-4.8c0.1-4.7-5.5-10.9-10.6-11.3
			c-0.2,4.6-0.5,9.2-0.8,14.3c-3.7-3.1-6.8-5.7-10.6-8.9c-0.3,3.3-0.5,5.7-0.8,8c-0.6,4.8,0.6,8.7,5,11.3c1.4,0.8,2.4,2.1,3.7,3
			c1.9,1.3,2.3,3,2.1,5.2c-0.3,3.3-0.5,6.6-0.5,9.8c0,1,0.2,2.3,0.9,2.9c2.4,2.3,4.9,4.3,7.5,6.3c0.7,0.5,1.7,0.6,3.1,1.1
			C117.3,172.8,117.3,168.4,117.3,163.2z M301.8,376.2c-9.6-0.1-15.5,5.5-15.7,13.9c-0.2,7.2,2.3,13.6,6.6,19.1
			c5.9,7.6,12.8,14.1,22.8,15.7c11.8,1.9,19.9-6.6,17.4-18.3c-2-9.6-7.2-17.4-15-23.4C312.8,379.2,307.3,376.4,301.8,376.2z
			 M129.2,300.2c-0.5-10.4-3.5-18.7-8.8-26c-3.3-4.6-7.5-8.8-11.9-12.3c-4.4-3.5-9-1.9-10.9,3.5c-1.2,3.3-1.8,7-1.7,10.5
			c0.7,12.6,6.5,23,14.9,32.1c1.6,1.8,3.8,3.2,6,4.2c4.8,2.2,9,0.4,10.7-4.7C128.6,304.8,128.9,301.9,129.2,300.2z M286.8,248.1
			c-0.2,4.3-0.4,8.3-0.6,12.2c-0.1,1.8,0.8,2.8,2.5,3.5c13.2,5.3,26.4,10.8,39.5,16.1c1.1,0.4,2.2,0.8,3.4,1.3
			c2.1-4.7,1.3-9.2,0.8-13.7c-0.1-0.5-1-1.2-1.6-1.4C316.5,260.2,302.1,254.3,286.8,248.1z M338.9,281.5c3.1,1.1,6.3,2.3,10,3.6
			c0-3.2,0.1-5.7,0-8.2c0-0.6-0.3-1.5-0.8-1.7c-2.8-1.2-5.6-2.2-8.7-3.4C339.2,275.3,339,278.3,338.9,281.5z M348.5,298.6
			c0-3.2,0-5.9,0-8.5c0-0.4-0.3-1.1-0.6-1.2c-2.9-1.2-5.8-2.3-9.4-3.7c0,3.3-0.1,5.9,0.1,8.4c0,0.7,0.7,1.6,1.4,1.8
			C342.4,296.5,345,297.4,348.5,298.6z M349.7,257.7c0.1-3.4,0.3-6,0.3-8.7c0-0.5-0.4-1.2-0.8-1.4c-2.8-1.1-5.7-2.1-8.9-3.3
			c-0.2,3.2-0.4,5.8-0.6,8.5c0,0.4,0.2,1.1,0.5,1.3C343.3,255.3,346.3,256.4,349.7,257.7z M144,306.7c-2.6,5.6,0.9,12.2,6.9,13.3
			C152.2,312.9,151,310.5,144,306.7z M280.7,257.6c0-3.3,0-6,0-8.6c0-0.4-0.2-1.1-0.5-1.3c-2.7-1.4-5.4-2.6-8.1-4
			c-1.8,8.3-1.4,9.3,5.5,12.4C278.2,256.5,278.9,256.8,280.7,257.6z M124.9,128.3c-2.3,6.8,0.5,11.9,6.1,13.9
			C133,134.9,131.6,131.7,124.9,128.3z M338.4,308.7c3,1,6.2,2.1,9.8,3.4c0-3.2,0.1-5.7,0-8.1c0-0.6-0.4-1.5-0.8-1.7
			c-2.8-1.1-5.7-2.1-8.9-3.2C338.4,302.3,338.4,305.2,338.4,308.7z M140.1,299.6c1.2-7.5-0.9-11.5-7.1-13.3
			C131.5,293.2,133.7,297.5,140.1,299.6z M349.4,271.4c0-3.4,0-6.2,0-9c0-0.4-0.5-0.9-0.8-1.1c-2.7-1.1-5.5-2.1-8.7-3.3
			c-0.2,3.5-0.4,6.5-0.7,9.7C342.3,268.9,345.4,270,349.4,271.4z M144,320c-0.8,8.1,1.7,12.3,7.5,12.9
			C152.5,325.5,150.5,321.9,144,320z M348.7,420.6c0-3.1,0-5.8,0-8.4c0-0.4-0.2-0.9-0.4-1c-3-1.2-6.1-2.3-9.1-3.4
			c0,3.2-0.1,5.7,0.1,8.1c0,0.6,0.6,1.4,1.2,1.7C342.9,418.6,345.6,419.5,348.7,420.6z M348.3,407.5c0-3.2,0-5.8,0-8.5
			c0-0.4-0.6-1.1-1-1.3c-2.7-1.1-5.5-2-8.7-3.2c0,3.2,0,5.9,0,8.6c0,0.4,0.5,0.9,0.9,1C342.3,405.3,345,406.3,348.3,407.5z
			 M271.5,379.6c0,3.3,0,6,0,8.8c0,0.3,0.3,0.8,0.6,0.9c2.6,1.2,5.3,2.4,8.3,3.7c0-3.2,0.1-5.7-0.1-8.2c0-0.5-0.7-1.2-1.2-1.5
			C276.9,382.1,274.5,381,271.5,379.6z M144.5,333.1c-0.4,8.2,1.7,11.9,7.5,13C153.5,339.3,151,334.9,144.5,333.1z M221.8,232.7
			c-2.1,7.8,0.5,12.1,8.2,13.3c0-2.7,0-5.4,0-8c0-0.5-0.4-1.2-0.9-1.4C226.8,235.2,224.4,234,221.8,232.7z M140.7,312.7
			c0.7-7.8-0.8-10.5-7.1-13.4C131,304.1,134.6,311.1,140.7,312.7z M349.8,446.6c0-3,0-5.6,0-8.1c0-0.4-0.4-1-0.7-1.2
			c-2.9-1.2-5.8-2.2-9.2-3.5c0.2,3.2,0.2,5.8,0.4,8.3c0,0.5,0.5,1.2,0.9,1.4C343.9,444.6,346.8,445.5,349.8,446.6z M92.3,124.4
			c1.4-8.1-0.1-11.7-5.8-14C84.5,117.3,86.4,122.2,92.3,124.4z M260.2,210.2c-0.2,3.4-0.4,6.2-0.6,8.9c0,0.4,0.2,1.1,0.6,1.3
			c2.6,1.3,5.3,2.4,8.4,3.8c0.2-3.3,0.3-5.9,0.4-8.6c0-0.5-0.4-1.2-0.8-1.4C265.7,212.8,263.2,211.7,260.2,210.2z M85.9,137.7
			c-3,4.8,0,12.6,5.5,13.9C93.2,144.6,92,141.6,85.9,137.7z M234,225.2c-0.2,3.4-0.3,6.1-0.4,8.9c0,0.4,0.3,1,0.6,1.2
			c2.5,1.3,5,2.5,8.1,4c0.1-3.4,0.3-6.1,0.3-8.7c0-0.5-0.5-1.1-0.9-1.4C239.4,227.9,237,226.7,234,225.2z M92.7,110.9
			c1.9-7.3,0-11.9-5.6-14.3C85.1,103.5,86.7,107.7,92.7,110.9z M335.5,251.9c0.2-2.9,0.4-5.5,0.5-8.1c0-0.5-0.4-1.2-0.8-1.4
			c-2.8-1.1-5.6-2.1-8.5-3.2C324.6,246.9,327.4,250.3,335.5,251.9z M272.2,225.9c3,1.3,6,2.6,9.3,4.1c0.2-3.2,0.4-5.8,0.4-8.4
			c0-0.6-0.4-1.4-0.9-1.7c-2.5-1.3-5.1-2.4-8.1-3.8C272.6,219.7,272.4,222.6,272.2,225.9z M338.1,381.4c0,3.3,0,5.8,0,8.4
			c0,0.5,0.5,1.2,0.9,1.3c2.8,1.1,5.7,2,9,3.1c0-3.1,0-5.7,0-8.3c0-0.4-0.4-1-0.8-1.1C344.4,383.6,341.5,382.6,338.1,381.4z
			 M349.2,433.6c0-3.1,0-5.6,0-8.1c0-0.5-0.5-1.2-0.9-1.3c-2.8-1.1-5.7-2.2-9.1-3.4c0.2,3.2,0.3,5.9,0.6,8.5
			c0.1,0.5,0.7,1.2,1.3,1.4C343.5,431.6,346.1,432.4,349.2,433.6z M281.2,244c0-3.5,0-6.2,0-8.9c0-0.4-0.4-1-0.7-1.2
			c-2.5-1.3-5.1-2.4-8.2-3.9c-0.2,3.5-0.4,6.5-0.7,9.7C274.6,241,277.5,242.3,281.2,244z M255.3,231.8c0.2-3.2,0.3-5.9,0.4-8.5
			c0-0.4-0.2-1.1-0.5-1.3c-2.6-1.4-5.2-2.6-8.3-4.1c-0.2,3.3-0.4,6-0.4,8.6c0,0.4,0.2,1.1,0.5,1.3
			C249.6,229.1,252.2,230.4,255.3,231.8z M257.8,347.1c0,3.4,0,6,0,8.7c0,0.4,0.4,1,0.7,1.2c2.6,1.3,5.3,2.5,8.3,3.9
			c0-3.2,0-6,0-8.7c0-0.4-0.5-0.9-0.8-1.1C263.5,349.8,261,348.6,257.8,347.1z M292.4,290.1c2.6-7.5-2.2-12.2-8.9-12.6
			c0,2.6,0,5.1,0,7.7c0,0.5,0.3,1.3,0.7,1.4C287,287.9,289.7,289,292.4,290.1z M280.3,271.2c0-3.5,0-6.4,0-9.2
			c0-0.3-0.3-0.8-0.6-0.9c-2.7-1.2-5.3-2.3-8.7-3.8c0,3.3-0.1,5.9,0.1,8.4c0,0.6,0.6,1.4,1.2,1.7C274.5,268.7,277,269.7,280.3,271.2
			z M324.6,376.2c-2.2,8.2,2.8,11.7,9.3,12.3c0-2.6,0.1-5.1-0.1-7.7c0-0.6-0.7-1.4-1.3-1.6C330,378.1,327.4,377.2,324.6,376.2z
			 M246.3,231.5c-0.1,3.5-0.2,6.5-0.3,9.4c0,0.2,0.3,0.5,0.6,0.6c2.6,1.3,5.2,2.5,8.3,3.9c0.2-3.2,0.3-5.9,0.3-8.5
			c0-0.5-0.5-1.3-1-1.6C251.8,234.2,249.4,233,246.3,231.5z M267.9,237.8c0.2-3.3,0.4-6,0.5-8.7c0-0.4-0.3-1-0.7-1.2
			c-2.6-1.3-5.2-2.5-8.3-3.9c-0.2,3.4-0.4,6.2-0.4,8.9c0,0.4,0.3,1,0.7,1.2C262.3,235.3,264.8,236.4,267.9,237.8z M218,240.3
			c0-3.4,0-6.2,0-8.9c0-0.4-0.4-1-0.7-1.2c-2.3-1.4-4.7-2.7-7.9-4.5c0,3.6,0,6.5,0.1,9.4c0,0.4,0.7,0.9,1.1,1.2
			C212.7,237.5,214.9,238.7,218,240.3z M221.3,341.6c0,3.4,0,6.2,0,8.9c0,0.3,0.3,0.8,0.6,1c2.5,1.3,5,2.5,8,4c0-2.6,0.1-4.6,0-6.7
			c0-1,0-2.4-0.6-2.7C226.9,344.5,224.4,343.3,221.3,341.6z M134.3,325.4c-1.1,7.2,1.3,11.7,7.2,13.4
			C143,332.3,140.8,328.1,134.3,325.4z M235.2,197.9c-0.2,3.3-0.4,6.2-0.6,9.1c0,0.3,0.3,0.8,0.6,0.9c2.5,1.2,5.1,2.4,7.7,3.6
			c2.1-7.4,1.4-9.1-4.9-12.3C237.4,199,236.7,198.6,235.2,197.9z M267,278.9c0-3.5,0-6.3,0-9c0-0.3-0.2-0.9-0.5-1
			c-2.7-1.3-5.4-2.5-8.7-3.9c0,3.3-0.1,5.9,0,8.4c0,0.6,0.4,1.4,0.9,1.7C261.1,276.2,263.7,277.3,267,278.9z M175.9,205.8
			c-2.5,6.9,0.9,13.1,7.5,13.4c0-2.6,0-5.1,0-7.7c0-0.5-0.3-1.2-0.7-1.5C180.4,208.6,178.2,207.2,175.9,205.8z M209.3,335.1
			c0,3.3,0,5.9,0,8.4c0,0.4,0.3,1.1,0.6,1.3c2.5,1.4,5,2.7,7.8,4.2c0-3.3,0-6,0-8.7c0-0.4-0.4-0.9-0.8-1.1
			C214.7,337.9,212.3,336.7,209.3,335.1z M91.8,138.1c1.1-8.3-0.4-11.9-5.8-14C84,130.8,86,135.8,91.8,138.1z M247.6,204.2
			c-0.2,3.3-0.5,6-0.6,8.8c0,0.4,0.3,1,0.6,1.2c2.6,1.3,5.2,2.6,8.2,4.1c0.2-3.3,0.3-5.9,0.4-8.4c0-0.5-0.2-1.3-0.6-1.5
			C253.2,206.9,250.6,205.7,247.6,204.2z M294.7,424.9c1.7-8.3-3.4-11.9-9-12.7c0,2.6,0,5.1,0,7.6c0,0.5,0.5,1.1,0.9,1.4
			C289.2,422.5,291.8,423.7,294.7,424.9z M96.6,104.5c-0.3,0.1-0.6,0.2-0.8,0.3c-0.1,2.1,0.1,4.3-0.4,6.4c-0.9,3.5,2.1,4.3,3.8,5.8
			c0.5,0.4,2.8-0.3,2.9-0.6c0.2-2.3,0.8-5.1-0.1-7C101,107.4,98.5,106.1,96.6,104.5z M246.1,367.5c0,3.3,0,6,0,8.6
			c0,0.4,0.2,0.9,0.4,1c2.7,1.3,5.4,2.6,8.6,4.1c-0.2-3.3-0.2-5.9-0.4-8.4c0-0.5-0.4-1.2-0.8-1.4
			C251.6,370.1,249.1,368.9,246.1,367.5z M242.7,225.5c0.2-3.3,0.4-6.1,0.5-8.9c0-0.3-0.3-0.8-0.6-0.9c-2.5-1.3-5-2.6-8-4.1
			c-0.2,3.4-0.4,6.2-0.4,9.1c0,0.4,0.4,0.9,0.8,1.1C237.3,223,239.7,224.1,242.7,225.5z M258.9,237.7c-0.2,3.3-0.4,6.1-0.5,8.8
			c0,0.4,0.3,1,0.7,1.2c2.6,1.3,5.3,2.5,8.8,4.1c0-3.6,0-6.3,0-9.1c0-0.4-0.5-1.1-1-1.3C264.4,240.2,262,239.1,258.9,237.7z
			 M241.9,266.6c0-3.3,0-5.7,0-8.2c0-0.6-0.1-1.4-0.5-1.6c-2.5-1.5-5.1-2.8-8.1-4.4c-0.2,3.4-0.3,6.1-0.4,8.7c0,0.5,0.4,1.1,0.9,1.4
			C236.1,263.8,238.6,265,241.9,266.6z M280,284.6c0-3.2,0-5.6,0-8.1c0-0.6-0.1-1.4-0.5-1.6c-2.7-1.3-5.4-2.5-8.9-4.1
			c0,3.5,0,6,0,8.6c0,0.4,0.2,1.2,0.5,1.3C273.8,282,276.6,283.2,280,284.6z M282,419.1c-0.1-2.7-0.2-4.8-0.4-6.8
			c-0.1-0.9,0-2.2-0.5-2.5c-2.7-1.5-5.5-2.7-8.9-4.3c0.2,3.4,0.3,5.8,0.5,8.3c0,0.5,0.3,1.3,0.7,1.5
			C276,416.6,278.7,417.7,282,419.1z M281,406.1c0-3,0-5.4,0-7.8c0-0.5-0.2-1.4-0.5-1.6c-2.7-1.4-5.4-2.6-8.8-4.1
			c0.2,3.4,0.2,6,0.5,8.6c0.1,0.5,0.7,1.2,1.2,1.4C275.7,403.8,278.1,404.8,281,406.1z M235,387.5c0,3.2,0,5.9,0,8.6
			c0,0.3,0.3,0.8,0.6,0.9c2.5,1.3,5.1,2.5,8,3.9c0-2.7,0.1-4.9,0-7.1c0-0.8-0.2-2.1-0.7-2.4C240.4,390,237.8,388.9,235,387.5z
			 M171.3,226c1.7-7.8,0-11-6.9-13.4C162.2,219.4,164.2,223.4,171.3,226z M242.8,387.8c1.5-7.5-1.3-11.7-8.4-12.9c0,2.7,0,5.3,0,7.9
			c0,0.3,0.2,0.9,0.5,1C237.5,385.2,240.1,386.5,242.8,387.8z M245.8,354.3c0,3.4,0,6,0,8.7c0,0.4,0.3,1,0.7,1.2
			c2.5,1.3,5.1,2.5,7.9,3.8c0-3.2,0-5.9,0-8.7c0-0.4-0.5-0.9-0.9-1.1C251.2,357,248.8,355.8,245.8,354.3z M166.2,157.5
			c-1.7,8.6,0.4,12.5,7.2,13.9c0.1-2.5,0.3-4.9,0.3-7.4c0-0.7-0.1-1.8-0.6-2.1C171.1,160.4,168.8,159.1,166.2,157.5z M242.4,374.9
			c1.1-8.4-1.9-12.6-8.6-12.9c0,2.6,0,5.1,0,7.7c0,0.4,0.3,1,0.6,1.2C237,372.2,239.5,373.4,242.4,374.9z M241.5,347.9
			c1.8-7-1.5-11.8-8.3-12.2C232.1,343.6,234.4,347,241.5,347.9z M268.7,413.2c1.2-8-2-12.5-9.1-12.7c0.1,2.5,0.2,4.9,0.4,7.4
			c0.1,0.6,0.5,1.4,0.9,1.7C263.4,410.8,265.9,411.9,268.7,413.2z M258.7,373.7c0,3.3,0,6,0,8.7c0,0.3,0.3,0.8,0.6,0.9
			c2.6,1.3,5.3,2.5,8.3,3.9c0-3.1,0-5.5,0-8c0-0.5-0.2-1.4-0.6-1.6C264.4,376.3,261.7,375.1,258.7,373.7z M206.5,206.1
			c1.7-8.9-0.6-12.8-7.6-13.3c-0.1,2.7-0.3,5.3-0.3,8c0,0.4,0.2,1.1,0.5,1.3C201.4,203.4,203.8,204.7,206.5,206.1z M267.2,374
			c0-3.2,0-5.8,0-8.4c0-0.4-0.3-1-0.7-1.2c-2.6-1.3-5.2-2.5-8.2-3.9c0,3.3-0.1,6,0.1,8.7c0,0.5,0.8,1.1,1.3,1.3
			C262,371.7,264.4,372.7,267.2,374z M271.1,366.5c0,3.3,0,6,0,8.7c0,0.3,0.3,0.8,0.6,0.9c2.7,1.2,5.3,2.4,8.4,3.8
			c0-3.3,0.1-5.9-0.1-8.5c0-0.5-0.8-1.1-1.3-1.4C276.4,368.9,274.1,367.9,271.1,366.5z M166.1,171.4c-2.9,6.3-0.4,11.5,7.2,14.1
			c0-3.1,0-5.9,0-8.7c0-0.4-0.4-0.9-0.8-1.1C170.5,174.2,168.4,172.9,166.1,171.4z M171.9,199.3c2.3-7.6-0.4-12.9-7-13.7
			c-0.1,2.7-0.3,5.3-0.4,8c0,0.5,0.3,1.2,0.7,1.4C167.3,196.5,169.5,197.8,171.9,199.3z M245.6,245.1c0,3.5,0,6.2,0,9
			c0,0.4,0.4,1,0.7,1.2c2.4,1.2,4.9,2.4,8.3,4c0-3.4,0-6.2,0-9.1c0-0.3-0.3-0.8-0.6-0.9C251.5,248,249,246.7,245.6,245.1z
			 M139.5,190.8c2.7-6.3-0.7-13.2-6.5-13.5C131.9,185.8,132.4,186.9,139.5,190.8z M267.3,265.2c0-3.4,0-6.2,0-8.9
			c0-0.3-0.2-0.9-0.5-1c-2.6-1.3-5.2-2.5-8.3-4c-0.2,3.4-0.4,6-0.5,8.7c0,0.4,0.5,1.1,0.9,1.3C261.4,262.6,263.9,263.7,267.3,265.2z
			 M171.2,308.2c2.6-5.8-0.2-11-6.9-13.1C162.4,301.9,163.7,304.5,171.2,308.2z M221.9,218.8c-0.2,3.5-0.3,6.3-0.4,9
			c0,0.4,0.4,1,0.7,1.2c2.4,1.3,4.8,2.5,8.1,4.2c0-3.5,0-6.3,0-9.1c0-0.4-0.4-1-0.8-1.2C227.2,221.6,224.9,220.4,221.9,218.8z
			 M85.4,151.3c-2.5,5.7,0.4,12.6,5.7,14C92.5,157.7,91.5,155.2,85.4,151.3z M268.6,400.4c-0.2-3.5-0.4-6.2-0.7-8.9
			c0-0.3-0.3-0.8-0.6-0.9c-2.5-1.2-5.1-2.4-8-3.8c0,3.3,0,6,0,8.7c0,0.4,0.5,0.8,0.9,1C262.7,397.7,265.2,398.9,268.6,400.4z
			 M223.2,191.4c-0.3,3.5-0.5,6.3-0.7,9.1c0,0.3,0.1,0.7,0.3,0.8c2.6,1.4,5.3,2.7,8.4,4.3c0.2-3.3,0.3-5.9,0.4-8.4
			c0-0.5-0.3-1.3-0.6-1.5C228.6,194.2,226.2,193,223.2,191.4z M270.7,353.2c0,3.3-0.1,5.8,0,8.4c0,0.5,0.5,1.3,1,1.5
			c2.5,1.2,5,2.3,8.1,3.6c0-3.2,0-5.9,0-8.6c0-0.4-0.4-0.9-0.8-1.1C276.5,355.8,273.9,354.6,270.7,353.2z M94.4,159.2
			c-2.4,6.2-0.2,11.6,5.7,14.2C101.9,168.3,100.6,163.2,94.4,159.2z M254.3,272.8c0-3.4,0-5.8,0-8.3c0-0.6-0.1-1.4-0.5-1.6
			c-2.5-1.4-5.2-2.7-8.2-4.2c-0.2,3.3-0.3,6-0.4,8.6c0,0.5,0.4,1.2,0.8,1.4C248.5,270,251,271.2,254.3,272.8z M193.8,226.6
			c2.6-6.8-0.2-12-7-13.4c-1.8,6.6-1,8.6,4.4,11.9C192,225.6,192.8,226,193.8,226.6z M334,307c0-2.4,0-4.3,0-6.1
			c0-3.6-3.6-6.4-7.3-5.5c-1.7,0.4-2.5,1.2-2.6,3.3c-0.3,3.4,0.5,5.5,4.1,6.1C329.9,305.2,331.5,306.1,334,307z M254.2,354.7
			c0-3.2,0-5.9,0-8.5c0-0.4-0.3-1-0.7-1.2c-2.5-1.3-5-2.5-8.1-4.1c0,3.5,0,6.2,0,9c0,0.4,0.5,0.9,0.9,1
			C248.7,352.2,251.1,353.3,254.2,354.7z M150.3,185c2.5-7.1,0.4-11.5-6.6-14.2c-0.2,3-0.4,5.9-0.5,8.8c0,0.4,0.5,0.8,0.9,1.1
			C146,182.1,148.1,183.4,150.3,185z M154.8,164.6c-1.4,8.2,0.8,12.4,7,13.3C163.2,169.6,161.7,166.6,154.8,164.6z M242.2,253.1
			c0-3.6,0-6.3,0-9.1c0-0.4-0.4-1-0.7-1.2c-2.4-1.3-4.9-2.5-8.2-4.1c0,3.5,0,6.4,0,9.2c0,0.3,0.2,0.6,0.4,0.7
			C236.2,250,238.8,251.4,242.2,253.1z M175.5,315.4c-1.4,7.7,1.3,12.1,7.6,12.8C184.4,320.9,182.4,317.3,175.5,315.4z M160.5,218.9
			c1.6-8.1,0-11.2-6.8-13.3C151.5,212.3,153.7,216.7,160.5,218.9z M246.3,380.4c0.2,3.7-0.5,7.3,0.9,9.3c1.6,2.2,5.2,3,8.2,4.5
			c0-2.9,0.1-5,0-7c0-0.8-0.1-2.1-0.6-2.5C252.3,383.3,249.7,382.1,246.3,380.4z M206.2,220c0.2-3.2,0.3-5.9,0.4-8.5
			c0-0.4-0.1-1.1-0.5-1.3c-2.4-1.5-4.9-2.8-7.8-4.5c-0.2,3.4-0.3,6-0.4,8.7c0,0.4,0.2,1.1,0.6,1.3C200.9,217,203.3,218.4,206.2,220z
			 M200,178.4c-2,8.4,0.5,12.9,7.4,13.5c0.1-2.6,0.3-5.1,0.3-7.7c0-0.5-0.2-1.3-0.6-1.5C204.9,181.2,202.6,179.9,200,178.4z
			 M188.1,185.3c-2.8,6.7,0.4,12.6,7.5,13.6c0-2.8,0-5.5,0-8.3c0-0.4-0.3-1-0.7-1.2C192.6,188.1,190.3,186.7,188.1,185.3z
			 M197.9,233.1c-2,7.8,0.9,12.7,7.8,13.3c0-2.6,0.1-5.1,0-7.7c0-0.6-0.4-1.4-0.9-1.7C202.6,235.6,200.4,234.4,197.9,233.1z
			 M186.6,322c-1.5,7.5,1.5,12.4,7.8,13.1C195.7,327.5,194.2,325,186.6,322z M85.4,247c-2,6,1.2,12.8,6.4,13.5
			C92.6,253.1,90.8,249.3,85.4,247z M162.2,164.3c2.2-7.3-0.5-12.7-6.7-13.3C154.1,159.3,155.6,162.4,162.2,164.3z M198.1,219.4
			c-0.3,3.4-0.5,6.2-0.6,9c0,0.3,0.4,0.7,0.7,0.9c2.4,1.4,4.8,2.7,8.1,4.5c0-3.6,0-6.5,0-9.4c0-0.2-0.3-0.6-0.5-0.7
			C203.3,222.3,200.9,221,198.1,219.4z M186.5,226.8c-1.8,7.2,1.1,12.2,7.5,12.9C195.4,232,193.1,228,186.5,226.8z M188.6,171.6
			c-2.1,8.2,0.8,13.4,7.4,13.5c0.1-2.6,0.3-5.1,0.3-7.7c0-0.6-0.4-1.4-0.9-1.7C193.2,174.3,191,173,188.6,171.6z M335.7,441.3
			c1.3-6.9-0.1-9.9-5.1-11c-1.3-0.3-4.2,0.7-4.2,1.3c-0.2,2.1-0.3,5.3,1,6.4C329.4,439.8,332.7,440.3,335.7,441.3z M133.9,163.4
			c-2.3,6.6,0.1,11.8,6.2,13.6C142.2,170,140.4,166,133.9,163.4z M184,178.9c2.6-7.2-0.5-13.1-7-13.6c-0.2,2.7-0.4,5.3-0.6,8
			c0,0.4,0.2,1,0.5,1.3C179.3,176,181.6,177.4,184,178.9z M218.6,198.9c0.3-0.2,0.7-0.3,1-0.5c0-2.5,0-4.9,0-7.4
			c0-0.6,0-1.5-0.3-1.7c-2.5-1.5-5-2.8-7.9-4.5c-0.3,3.4-0.5,6.1-0.6,8.7c0,0.4,0.2,1.1,0.5,1.3
			C213.6,196.2,216.1,197.5,218.6,198.9z M222.5,205.1c-0.2,3.5-0.4,6.1-0.5,8.8c0,0.4,0.1,0.9,0.4,1.1c2.6,1.4,5.3,2.8,8.6,4.6
			c0-3.6,0-6.3,0-9c0-0.5-0.4-1.2-0.8-1.4C227.7,207.8,225.4,206.6,222.5,205.1z M210.9,374.4c-0.5,9,1.2,11.5,8.4,13.3
			c0-2.3,0-4.5,0-6.8c0-0.7-0.1-1.8-0.6-2.1C216.3,377.3,213.8,376,210.9,374.4z M206.9,368.6c1.1-8.3-1.1-11.8-8.2-13.3
			c0,2.8,0,5.5,0,8.2c0,0.3,0.4,0.7,0.7,0.9C201.8,365.7,204.2,367.1,206.9,368.6z M222.1,355c-1.5,8,0.7,11.6,8.1,13
			c0-2.7,0-5.3,0-8c0-0.4-0.4-0.9-0.8-1.2C227,357.7,224.7,356.4,222.1,355z M285.6,222c0,2.2,0.2,3.6,0,4.9
			c-0.9,3.8,0.5,6.2,4.3,6.8c1.5,0.3,4.5-0.3,4.6-0.9c0.4-2.3,0.8-5.5-0.4-6.9C292.3,224.1,289,223.5,285.6,222z M210.7,212.6
			c-0.3,0.2-0.6,0.4-1,0.6c0,2.7,0,5.3,0,8c0,0.4,0.1,0.9,0.4,1c2.5,1.4,4.9,2.7,8.2,4.5c0-3.5,0-6.3,0-9c0-0.4-0.3-1-0.7-1.2
			C215.3,215.1,213,213.9,210.7,212.6z M129.4,279.1c1.3-7.8-0.7-11.8-6.7-13.5C121.3,271.8,123.4,276.1,129.4,279.1z M233.4,348
			c0,3.4,0,6.2,0,9c0,0.2,0.3,0.5,0.5,0.6c2.5,1.3,5,2.5,8.1,4.1c0-3.3,0-5.9,0-8.6c0-0.4-0.4-0.9-0.8-1.1
			C238.8,350.8,236.4,349.6,233.4,348z M247.4,393.8c-1.2,7.9,1.9,12.3,8.5,12.5c0-2.5,0-4.9,0-7.4c0-0.5-0.4-1.2-0.8-1.4
			C252.7,396.4,250.2,395.2,247.4,393.8z M231.3,394.1c1.1-7.6-1.8-11.8-8.4-12.4C221.8,389.3,223.9,392.3,231.3,394.1z M131,331.6
			c0.4-0.6,0.7-0.8,0.7-0.9c0-2-0.1-3.9-0.2-5.9c-0.1-1.9-3-5.2-4.7-5.2c-0.8,0-2.3,0.6-2.3,0.9c0,2.3-0.4,5,0.7,6.7
			C126.4,329,129,330.1,131,331.6z M143.5,184.4c-2.1,7.2,0.6,12.3,6.8,13.5C151.8,190.3,150.5,187.6,143.5,184.4z M197.4,315.7
			c0,2.8,0,5.5,0,8.2c0,0.4,0.4,0.9,0.8,1.1c2.3,1.3,4.6,2.6,6.9,3.9C207.3,322.1,204.6,317.5,197.4,315.7z M145.2,143.6
			c-2.3,6.8-0.3,11.1,6.3,13.5C154,150.4,151.6,145.4,145.2,143.6z M176.1,192.6c-1.7,7.7,0.5,11.8,7.1,13.2
			C184.9,198,183.1,194.7,176.1,192.6z M206.2,355.2c1.7-7.1-1.2-11.9-7.8-12.9C196.8,349.1,198.8,352.4,206.2,355.2z M172.3,334.7
			c1.7-7-0.8-11.5-7.3-13.3C163.1,328,165,331.4,172.3,334.7z M150.8,171.2c2.6-6.8-0.4-13.1-6.6-13.8c-0.2,2.7-0.4,5.3-0.5,8
			c0,0.5,0.4,1.1,0.7,1.4C146.5,168.3,148.5,169.7,150.8,171.2z M187.7,348.3c-2.2,6.3,1.4,12.3,7.6,12.8
			C196.4,353.5,195.1,351.4,187.7,348.3z M92.7,287c0.7-7.7-1.2-11.6-6.6-13.8C84.5,279.1,87.3,284.9,92.7,287z M143.1,198.1
			c-1.6,7.8,0.4,11.6,6.7,13.5C151.9,204.6,150.1,200.9,143.1,198.1z M197.8,329.1c-0.7,8.2,1.3,11.4,8,12.8
			C207.6,335.1,204.9,330.6,197.8,329.1z M228.9,260c2.2-7.6-0.8-12.6-8.1-13.3c0,2.7,0,5.3,0,8c0,0.4,0.3,1,0.6,1.2
			C223.9,257.3,226.4,258.6,228.9,260z M173.6,360.5c1.2-7.4-1.4-11.7-7.6-12.7C164.5,354.6,166.9,358.6,173.6,360.5z M161.4,327.6
			c1.5-7.1-0.9-11.4-7.3-13.4C152.4,320.8,154.4,324.4,161.4,327.6z M161,192.2c1.9-8.3-0.3-12.6-7-13.8c-0.1,2.7-0.3,5.3-0.4,7.9
			c0,0.5,0.3,1.2,0.7,1.5C156.5,189.3,158.7,190.7,161,192.2z M193.7,322.3c2.3-6.9-0.3-11.5-7.7-13.3c0,2.7,0,5.4,0,8
			c0,0.4,0.4,0.9,0.8,1.1C189.1,319.6,191.3,320.9,193.7,322.3z M93.8,241.7c0,2.6,0,5,0,7.4c0,2.8,2.4,3.7,4.2,4.8
			c0.7,0.4,3,0.1,2.9-2.2C100.8,247,98.8,243.9,93.8,241.7z M209.2,239.5c0,3.7-1,7.2,0.3,9.5c1.3,2.2,4.9,3.1,8.2,5
			c0-3.7,0.1-6.2-0.1-8.8c0-0.6-0.6-1.5-1.2-1.8C214.3,242.1,212.1,241.1,209.2,239.5z M135,135.8c-2.2,7.3-0.4,11.4,6.1,14
			C143.5,143,142,139.6,135,135.8z M95.8,294.3c-1.5,6.5,1.5,12.5,6.6,13.6C103.5,301.5,101.5,297.4,95.8,294.3z M176.6,179
			c-2,7.2,0.6,11.9,7.1,13.1C185.4,184.5,183.2,180.3,176.6,179z M153.5,287.9c-1.9,6.5,0.4,10.7,7.1,13.1
			C162.6,294.9,159.9,289.8,153.5,287.9z M210.6,198.7c-0.2,3.1-0.3,5.5-0.4,7.9c0,0.6-0.1,1.5,0.2,1.7c2.6,1.6,5.2,3,8.5,4.8
			c0-3.7,0-6.4,0-9c0-0.4-0.2-1.1-0.5-1.3C215.9,201.5,213.5,200.3,210.6,198.7z M217.3,335.8c1.2-8.3-1.9-12.9-8.2-13
			c0,2.5,0,4.9,0,7.4c0,0.5,0.2,1.3,0.6,1.5C212.2,333.1,214.6,334.4,217.3,335.8z M230.8,381.8c0-2.6,0.1-4.6,0-6.7
			c0-1,0-2.4-0.5-2.8c-2.4-1.6-5-2.9-7.7-4.4c-1.4,7.4-0.6,9.1,5,12.1C228.3,380.5,229.2,381,230.8,381.8z M86.7,286.1
			c-1,7.2,1,11.6,6.4,13.8C94.6,293.5,92.7,289.2,86.7,286.1z M187.1,199.3c-0.2,2.9-0.4,5.7-0.5,8.6c0,0.3,0.3,0.8,0.6,1
			c2.3,1.4,4.7,2.8,7.1,4.3C196.5,205.7,194.3,201.5,187.1,199.3z M188,361.4c-1.1,7.7,1.2,11.5,7.9,12.8
			C197.3,367.4,195.4,364.3,188,361.4z M150.1,307.2c2-6.9-0.3-11.4-6.8-13.4C141.4,300,142.9,303.2,150.1,307.2z M92,273.9
			c1.1-7-1.2-12-6.3-13.8C84.2,266.7,86.1,271,92,273.9z M140.7,163.5c1.7-8.1,0.5-10.7-6.2-13.8C132,156.4,133.9,160.7,140.7,163.5
			z M173,347.5c1-7.6-1.3-11.4-7.6-12.9C163.8,341.3,166.4,345.7,173,347.5z M209.9,348.3c0,3.2,0,5.6,0,8.1c0,0.5,0.2,1.3,0.6,1.6
			c2.4,1.4,4.8,2.6,7.6,4.2c0-3.2,0-5.8,0-8.5c0-0.4-0.4-1-0.7-1.2C215.1,351.2,212.8,349.9,209.9,348.3z M154.7,327.2
			c-1.5,7.1,1.2,11.9,7.3,13C163.5,333.4,161.8,330.3,154.7,327.2z M175.9,328.5c-1.3,7.5,1.3,11.9,7.5,12.8
			C184.8,334.1,182.8,330.7,175.9,328.5z M229.1,342.1c2.1-7.1-1.1-12.1-8.1-12.9c0,2.7,0,5.3,0,8c0,0.4,0.3,1,0.7,1.2
			C224.1,339.6,226.6,340.8,229.1,342.1z M207.2,381.4c1.9-6.8-1.1-11.7-7.7-12.9C198.1,375.4,199.6,378,207.2,381.4z M85.1,233.4
			c-1.8,6.6,0.5,11.8,6,14C92.7,240.8,91.3,237.3,85.1,233.4z M160.7,205.8c2.2-7.2-0.5-12.5-7.4-13.8c0,2.8,0,5.6,0,8.3
			c0,0.5,0.5,1.1,0.9,1.4C156.3,203,158.4,204.3,160.7,205.8z M283.7,359.1c0,2.2,0.2,3.7,0,5.1c-0.8,3.8,1.2,5.7,4.5,6.3
			c1.5,0.3,4.4-0.4,4.6-1.1c0.4-2,0.6-5.2-0.6-6.3C290.1,361.2,287,360.5,283.7,359.1z M164.5,199c0,3.4-0.9,6.9,0.3,9.3
			c1,2.1,4.5,3,7.2,4.5C172.6,203.2,171.5,201.3,164.5,199z M218.3,374.9c2.1-7-1.3-12.2-7.9-12.7c0,2.5,0,5.1,0,7.6
			c0,0.5,0.4,1.2,0.8,1.4C213.6,372.5,215.9,373.7,218.3,374.9z M150.3,293.7c0.6-8.1-2.1-12.5-7.6-12.9
			C142,288.8,143.9,292.1,150.3,293.7z M176.9,354.5c-1.5,6.9,0.8,10.8,7.6,13.1C186.2,361,184,357.2,176.9,354.5z M175.1,219.4
			c-0.2,3.2-0.3,6-0.4,8.8c0,0.3,0.3,0.7,0.6,0.9c2.3,1.4,4.6,2.8,7.1,4.3C184.5,226,183.2,223.3,175.1,219.4z M187.2,335.1
			c-1.9,6.8,0.8,11.4,7.5,13.2C196.2,340.9,194.9,338.5,187.2,335.1z M154,300.9c-1.9,6.8,0.5,11.3,7,13.3
			C162.7,307.4,161.2,304.5,154,300.9z M155.3,340.3c-1.4,7,1.4,11.8,7.4,13C164.1,346.8,161.9,342.8,155.3,340.3z M164.5,308
			c-1.8,6.8,1.1,12,7.4,13.3C173.2,313.7,171.9,311.4,164.5,308z M141.2,325.9c0.8-7.7-1.5-11.7-7.3-13.2
			C132.4,319.1,135,323.9,141.2,325.9z M184,354.6c0.9-8.1-1.6-12.1-7.8-12.8C175.1,349.3,176.9,352.2,184,354.6z M139.6,286.4
			c1.1-7.8-0.3-10.6-6.8-13.4C130.6,278.7,133.4,284.4,139.6,286.4z M174.6,302.1c0.2,3.2-0.5,6.6,0.8,8.9c1.2,2.1,4.5,3.1,7.1,4.6
			C183.9,307.2,181.7,303.5,174.6,302.1z M132.8,190.8c-1.3,8.1,0.7,11.9,6.8,13.4C141,196.6,139.2,192.7,132.8,190.8z M128.9,197.1
			c0.3-0.2,0.6-0.3,0.8-0.5c0-2.2,0-4.4,0-6.5c0-2.1-2.2-5-4.2-5.3c-0.9-0.1-2.6,0.3-2.7,0.7c-0.4,2.2-1.2,5-0.2,6.6
			C123.9,194.2,126.7,195.4,128.9,197.1z M321.5,241.7c0.9-2.7,1.2-4.7-2.2-5.6c-1.7-0.4-3.3-1.4-5-1.9c-0.5-0.2-1.6,0.1-1.7,0.4
			c-0.1,0.6-0.1,1.8,0.3,2C315.7,238.3,318.5,239.9,321.5,241.7z M310.8,370.6c-0.3,2.6,4.5,6.5,9.8,7.8c-0.7-1.9-0.9-3.9-1.9-4.5
			C316.4,372.5,313.7,371.8,310.8,370.6z M319.7,301.5c0-1.8,0-3.2,0-4.5c-2.4-0.5-4.6-1-6.9-1.3c-0.7-0.1-1.5,0.3-2.3,0.5
			c0.4,0.7,0.7,1.8,1.4,2.1C314.2,299.4,316.6,300.3,319.7,301.5z M321.4,436c0.4-0.2,0.7-0.5,1.1-0.7c-0.6-1.3-0.8-3.4-1.8-3.9
			c-2-0.9-4.4-1-6.6-1.3c-0.5-0.1-1.1,0.5-1.7,0.8c0.3,0.5,0.5,1.4,1,1.6C316,433.8,318.7,434.9,321.4,436z M298.7,232.4
			c2.9,0.6,5.4,1.1,7.9,1.5c0.5,0.1,1.2-0.3,1.8-0.5c-0.3-0.7-0.3-1.7-0.8-1.9c-2.6-1.3-5.3-2.3-8.4-3.7
			C299,229.6,298.9,230.9,298.7,232.4z M305.9,295.9c0.5-2.6-4.2-6.5-9.4-8c0.5,1.8,0.5,3.9,1.4,4.5
			C300.2,293.9,303,294.7,305.9,295.9z M298.8,422.6c0.2,1.6-0.2,3.6,0.5,4c2.8,1.6,5.9,2.7,9.3,4.2
			C308.2,427.9,303.5,424.3,298.8,422.6z M305.9,371.2c0.6-2.6-3.8-5.4-8.8-5.6c0,1.3,0,2.6,0,3.9C300.1,370,303,370.6,305.9,371.2z
			 M119.5,266.6c0.8-4.1-0.7-6.1-6.4-9C112.2,259.5,115.2,263.8,119.5,266.6z M120,188.9c-0.3-1.4-0.2-3.4-1.1-4.2
			c-1.6-1.3-3.8-1.9-5.8-2.7C112.1,184.3,113.9,186.4,120,188.9z M120.9,130.4c1.8-4.8,0.3-7.1-6.4-10.2
			C114.9,125,119.2,126.5,120.9,130.4z M104.8,116.8c1.4,0.6,2.5,1.1,3.5,1.6c1.1,0.5,2.2,1.1,3.3,1.7c0.9-2.5-1.7-5.5-6.4-7.5
			C105.2,114,105,115.3,104.8,116.8z M103.8,172c-1.9,3.7,2.1,9,7.1,8.7C108.4,177.6,106.2,174.9,103.8,172z M112.3,315.4
			c-1.5-3.4-4.1-5.8-6.6-8.7C104.4,310.7,107.3,314.5,112.3,315.4z M109.6,257c0.5-2.6-1.9-5.3-6.5-7.4c-0.1,1.4-0.2,2.7-0.3,4
			C105.1,254.8,107.2,255.8,109.6,257z M121.5,324.2c0.9-3.2,0.5-4.9-2.3-5.6c-0.9-0.2-1.7-1-2.6-1.4c-0.5-0.2-1.2,0-1.8,0
			c0.1,0.6-0.1,1.6,0.3,1.9C117,320.8,119.1,322.4,121.5,324.2z"/>
		<path class="st0" d="M134.2,43.1c1-0.6,1.7-1.1,2.4-1.6c15.6-9,31.2-18,46.8-27.1c1.5-0.9,2.7-1.1,4.3-0.1
			c54.1,31.3,108.2,62.6,162.4,93.9c0.5,0.3,1,0.6,1.8,1.2c-1,0.7-1.8,1.2-2.6,1.7c-15.4,8.9-30.7,17.7-46.1,26.6
			c-1.7,1-3.1,1.3-5,0.5c-56.7-26-110.9-56.3-161.5-93C135.9,44.5,135.2,43.9,134.2,43.1z"/>
		<path class="st0" d="M425.7,236.9c0,1.6,0,2.6,0,3.7c0,61.6,0,123.1,0.1,184.7c0,2.6-0.8,4.1-3.1,5.4
			c-12.1,6.9-24.2,13.9-36.3,20.9c-0.8,0.5-1.7,0.9-3.1,1.7c-0.1-1.5-0.2-2.6-0.3-3.7c-2.2-61.8-2-123.5,0.1-185.3
			c0.1-1.7,0.2-3.2,2-4.2c12.9-7.3,25.7-14.8,38.6-22.2C424.1,237.6,424.6,237.4,425.7,236.9z"/>
		<path class="st0" d="M383.3,258.7c-0.8-25.9-9.1-49.2-23.8-70.3c-14.7-21-33.7-36.9-57-48.5c1.3-0.8,2.1-1.4,2.9-1.8
			c15.1-8.7,30.2-17.3,45.2-26.2c2.4-1.4,4-1.2,6.1,0.3c21.5,14.7,38.2,33.6,50.5,56.5c10.1,18.8,16.2,38.9,18,60.3
			c0.2,2.2,1.7,5.1-0.9,6.6c-13.4,7.8-26.9,15.5-40.4,23.2C383.9,258.8,383.8,258.8,383.3,258.7z"/>
		<path class="st0" d="M443.9,204.1c0,1.1,0,2.1,0,3.2c0,60.6,0,121.1-0.1,181.7c0,2.4-0.6,4.9-1.6,7.1c-3.9,8.7-8,17.3-12.7,25.9
			c-0.1-0.8-0.2-1.6-0.2-2.4c0-61,0-121.9,0.1-182.9c0-2.1,0.6-4.4,1.4-6.3c4-8.9,8.2-17.7,12.3-26.5
			C443.4,204.1,443.6,204.1,443.9,204.1z"/>
		<path class="st0" d="M193.2,12.7c10.4,0.9,20.8,1.8,31.2,2.8c1.1,0.1,2.4,0.5,3.3,1c53.6,30.9,107.1,61.7,160.6,92.6
			c0.4,0.2,0.8,0.5,1.1,1.3c-2.9-0.2-5.7-0.4-8.6-0.6c-5.8-0.5-11.5-1.2-17.3-1.5c-4.6-0.2-8.6-1.5-12.6-3.8
			c-51.6-29.9-103.3-59.7-154.9-89.5c-1-0.6-2-1.2-3-1.8C193.1,13.1,193.1,12.9,193.2,12.7z"/>
		<path class="st0" d="M429.4,229.4c-5.2-50.5-28.4-89.8-69.3-119.7c5.2,0.4,9.7,0.7,14.1,1.1c6,0.5,11.9,1,17.8,1.7
			c1.4,0.2,2.9,0.7,4.1,1.5c25.6,18.5,41.9,43,46.9,74.5c1,6.1,0.9,11.8-2.4,17.6c-3.7,6.5-6.4,13.5-9.6,20.2
			C430.7,227,430.2,227.9,429.4,229.4z"/>
		<path class="st0" d="M97.6,29.1C110.7,21.7,123.7,14,137,6.9c10.7-5.7,22-4.3,33-0.5c4.6,1.6,9,3.6,14.1,5.7
			c-1.4,0.9-2.2,1.4-3.1,1.9c-15.3,8.9-30.7,17.7-45.9,26.7c-1.9,1.1-3.2,1-5-0.3c-7-4.9-14.4-8.9-22.9-10.2
			c-3.1-0.5-6.3-0.4-9.4-0.5C97.7,29.5,97.6,29.3,97.6,29.1z"/>
		<path class="st0" d="M369.1,496.1c1.5-1.9,2.5-3.1,3.4-4.3c7.7-10,10.2-21.6,10.8-33.9c0.1-1.3,1-3.1,2-3.8
			c12.7-7.5,25.4-14.8,38.2-22.2c0.5-0.3,1-0.5,2.1-0.9c-0.3,3-0.4,5.5-0.7,8c-1.3,9.6-3.1,19.3-9.5,26.9
			c-3.5,4.1-7.8,7.8-12.3,10.6c-10.4,6.5-21.1,12.4-31.7,18.5C370.9,495.4,370.3,495.6,369.1,496.1z"/>
		<path class="st0" d="M176.7,5.2c21.6,1,37.8,4.1,44.5,8.4c-5.3-0.4-9.9-0.7-14.6-1.1c-4.2-0.3-8.3-1-12.5-1
			C187.5,11.3,182.5,7.2,176.7,5.2z"/>
		<path class="st0" d="M428.7,439.1c0.2-6.5,0.5-12.7,3.7-18.5c3.4-6.2,6.1-12.8,9.1-19.2c0.4-0.9,0.9-1.7,1.4-2.8
			C443.9,403.7,433.8,432.1,428.7,439.1z"/>
		<ellipse class="st0" cx="427.6" cy="331" rx="0" ry="131.8"/>
		<path class="st0" d="M386.1,135.1c0.6,0.5,1.3,0.8,1.8,1.4c20.9,23.8,34,51.3,38.6,82.7c0.6,3.7,0.8,7.5,1.2,11.3
			c0,0.5,0,1-0.2,1.5c-0.8-5.5-1.4-11-2.4-16.5c-4.3-24.3-13.9-46.4-28.3-66.4C393.3,144.3,389.6,139.8,386.1,135.1L386.1,135.1z"/>
		<path class="st0" d="M314.7,147.8c8.7,6.8,17.5,13.5,26.2,20.3c-0.2,0.2-0.3,0.4-0.5,0.6c-8.7-6.8-17.5-13.6-26.2-20.4
			C314.4,148.1,314.5,148,314.7,147.8z"/>
		<path class="st0" d="M386.1,135.1c-3.4-3.2-6.7-6.4-10.1-9.6c0.2-0.2,0.5-0.5,0.7-0.7C379.8,128.2,382.9,131.7,386.1,135.1
			C386.1,135.1,386.1,135.1,386.1,135.1z"/>
		<path class="st0" d="M256.2,120c-3.4-1.7-6.8-3.4-10.2-5.1c0.1-0.1,0.1-0.3,0.2-0.4c3.4,1.7,6.8,3.4,10.2,5.1
			C256.4,119.7,256.3,119.9,256.2,120z"/>
		<path d="M110.3,69.8c7.3,0.1,13.6,3.2,19.2,7.3c41.4,30.3,85.3,56.5,131.2,79.4c13,6.5,26.4,12.3,39.3,19
			c19.7,10.2,33.3,26.3,42.3,46.3c1,2.2-0.2,3.9-2.6,3.5c-2.2-0.3-4.5-1-6.6-1.9c-41.8-17-82.8-35.8-122.1-58
			c-37.6-21.2-73.2-45.3-106.3-72.9c-2.8-2.4-5.8-4.6-8.5-7.1c-3.2-2.9-3.3-5.1-0.6-8.4C99.4,72.6,104.1,69.7,110.3,69.8z
			 M115.4,88.5c2.6,6.8,57.2,45.4,96.9,68.8c36.7,21.6,75.4,38.9,115.1,55.4c-0.1-1.2,0-1.4-0.1-1.5c-0.5-0.8-1.1-1.7-1.7-2.5
			c-7.6-9.8-16.8-17.4-28.2-22.5c-56.9-25.8-111.2-56.3-161.6-93.4c-2.8-2-5.9-3.7-9.1-5C123,86,119.1,86.3,115.4,88.5z
			 M338.3,218.8c0.1-0.7,0.2-0.9,0.1-1.1c-0.3-0.6-0.6-1.3-0.9-1.9c-10-19.4-25.2-33.3-45-42.3C236.7,148,183.5,117.9,133.6,82
			c-0.6-0.4-1.2-0.7-2.1-1.2c1.8,6.8,3.4,9.2,8.4,12.8c2.1,1.5,4.2,3.1,6.3,4.6c47.5,33.9,98.2,62.1,151.3,86.2
			c12.2,5.5,22,13.8,30.2,24.2C330.6,212.4,334.6,215.3,338.3,218.8z M328.7,219.7c-2.8-4-5.7-7.7-10.8-9.4c-4.6-1.5-9-3.8-13.5-5.7
			c-66.8-27.7-128.4-64.5-185.3-109c-3.4-2.6-8.4-3.2-12.6-4.8c-0.1,0.3-0.2,0.6-0.4,1C172.8,147.4,248.5,187.3,328.7,219.7z
			 M95.7,79.7c6.4,2.3,12.3,4.4,18.2,6.5c0.8,0.3,2,0.2,2.8-0.1c4.5-1.5,8.8-1,13,1.1c0.8,0.4,1.7,0.7,2.5,1
			c-1.9-11.6-10.4-15.3-20.2-16.8C105.1,70.4,99.9,73.8,95.7,79.7z M114.8,91.1c-0.8-1.2-1.3-3.1-2.3-3.5
			c-5.5-2.3-11.1-4.2-17.4-6.5C99.5,89.4,107.3,89.5,114.8,91.1z M326.8,214.1c4.1,6.9,9.5,10.5,14.2,9.2c-3.2-2.9-6.3-5.6-9.3-8.5
			C330.1,213.1,328.7,212.5,326.8,214.1z"/>
		<path d="M345.4,347.6c0,4.9,0,9.8,0,14.6c0,2.7-1.3,4.4-4.1,4.3c-2.5-0.1-5.2-0.5-7.6-1.4c-30.6-12.5-61-25.4-90.8-39.9
			c-53.2-26-102.6-57.5-147.2-96.6c-3.8-3.4-7.8-6.6-9.6-11.6c-0.4-1.2-0.6-2.5-0.6-3.7c0-9.8,0-19.5,0-29.3c0-3.3,1.9-4.6,4.7-3.1
			c1.6,0.9,3.1,2.1,4.6,3.3c68.9,57.4,145.4,101.8,229,133.9c4.8,1.9,9.6,3.8,14.3,5.9c4.8,2.2,7.8,5.5,7.2,11.4
			C345,339.4,345.4,343.5,345.4,347.6C345.4,347.6,345.4,347.6,345.4,347.6z M105.7,195.1c0,9-0.1,17.4,0.1,25.7
			c0,1.2,1.1,2.6,2,3.5c3.2,2.8,6.6,5.5,9.9,8.1c43.3,33.9,88.8,64.2,138.5,87.8c24.1,11.4,48.8,21.6,73.3,32.2
			c3.2,1.4,3.5,1.1,3.5-2.5c0-7.9-0.2-15.7,0-23.6c0-2.4-0.8-3.5-3-4.3c-3.9-1.4-7.8-3.1-11.7-4.6c-74.7-29-143.6-68.2-206.6-117.7
			C109.9,198.3,108.1,196.9,105.7,195.1z M332.8,363.1c-1.4-5.6-3.1-9.5-8.7-11.3c-6.6-2.1-12.9-5.3-19.3-7.9
			c-70.3-28.5-134.6-67.3-193.5-114.9c-4.9-3.9-9.7-2.4-15.4-2.9c0.8,0.9,1.1,1.3,1.4,1.6c24.4,20.9,49.7,40.5,77,57.6
			c40.8,25.6,83.9,46.6,128.2,65.2C312.3,354.6,322.2,358.7,332.8,363.1z M103.9,219.7c0-8.6,0-16.8,0-24.9c0-0.7-0.5-1.5-1-2
			c-2.5-2.1-4.9-4.5-7.7-6.1c-2.3-1.4-5-1.9-8-3c0,10.2,0,19.6,0,29.1c0,0.6,0.6,1.7,1.1,1.8C93.4,216.3,98.5,218,103.9,219.7z
			 M343.8,361.1c0-9.3,0-18.5,0-27.8c0-0.6-0.3-1.4-0.7-1.8c-2.6-2.3-5.2-4.4-8-6.8c-0.3,0.7-0.5,1-0.5,1.2c0,8.3,0,16.7,0.1,25
			c0,0.8,0.3,1.9,0.9,2.4C338.1,356,340.9,358.4,343.8,361.1z M87.8,215.8c2.5,8.1,7.6,10.2,18,8.1
			C100.8,218.6,93.9,219.1,87.8,215.8z M332.6,354.3c-0.3,0.3-0.6,0.7-0.9,1c0.8,2,1.6,4,2.4,6c1.4,3.5,5.4,4.8,9.4,2.6
			C339.6,360.8,337.5,356,332.6,354.3z"/>
		<path d="M315,476.3c-6.8-0.4-14.3-2.1-21.5-5.4c-46.1-21.2-90.7-45.2-133-73.3c-10.7-7.1-21.4-14.2-31.6-22.1
			c-8.2-6.3-14.6-14.6-20.2-23.4c-6.2-9.6-10.9-19.9-14.7-30.6c-0.3-0.9-0.3-2.5,0.2-2.9c0.7-0.5,2.1-0.4,3,0c1.5,0.7,3,1.7,4.2,2.8
			c39.5,34.2,82.9,62.6,129,87c32.9,17.5,66.8,32.8,101.6,46.3c2.9,1.1,5.7,2.8,8.3,4.6c2.8,1.8,2.8,3.8,0.6,6.4
			C334.4,473,326,476.5,315,476.3z M296.5,470.3c1.4-4.9,2.5-9.4,4.1-13.8c1.1-3,0.4-4.3-2.5-5.6c-56.7-25.7-110.6-56.1-161-92.8
			c-0.6-0.4-1.3-0.8-1.9-1.1c-0.3,0.3-0.5,0.5-0.5,0.6c-1.3,4.4-2.4,8.9-3.9,13.2c-1,2.8-0.2,4.2,2.1,5.8
			c50.5,36.5,104.5,66.8,161.1,92.7C294.6,469.6,295.4,469.9,296.5,470.3z M124.9,343c3.5,5.2,7.7,9.8,12.8,13.5
			c50.8,37.1,105.2,67.8,162.5,93.6c5.4,2.4,11.6,3.1,17.5,4.3c1.6,0.3,3.5-0.5,5.2-0.8c0-0.3,0-0.5,0-0.8
			C252.5,424.3,185.5,389.5,124.9,343z M128.6,372.8c1.6-5.4,3.1-10.4,4.4-15.5c0.2-0.9-0.1-2.3-0.7-2.9c-9-9.7-16.5-20.8-27.8-28.2
			c-0.5-0.3-0.9-0.9-1.4-1.1c-2.2-1.1-4.5-2.1-7.2-3.4C99.6,337.2,118,366,128.6,372.8z M298,470.9c16.7,6.5,33.3,5.3,42.7-7.8
			c-2.7-2.1-5.2-4.6-8.1-6.3c-3.2-1.8-6.5-3.4-10.6-1.3c-2,1-4.9,0.7-7.3,0.4c-3.8-0.5-7.5-1.5-11.6-2.3
			C301.3,459.3,299.7,465,298,470.9z"/>
		<path d="M117.3,163.2c0,5.1,0,9.6,0,14.6c-1.4-0.5-2.4-0.6-3.1-1.1c-2.6-2-5.1-4.1-7.5-6.3c-0.6-0.6-0.9-1.9-0.9-2.9
			c0.1-3.3,0.2-6.6,0.5-9.8c0.2-2.2-0.3-3.9-2.1-5.2c-1.3-0.9-2.3-2.2-3.7-3c-4.5-2.6-5.6-6.5-5-11.3c0.3-2.3,0.5-4.7,0.8-8
			c3.8,3.2,6.9,5.8,10.6,8.9c0.3-5.2,0.5-9.8,0.8-14.3c5.1,0.4,10.7,6.6,10.6,11.3c0,1.6,0.2,3.3-0.2,4.8c-1.3,5.5,0.7,9.2,5.6,11.6
			c5.2,2.6,6.4,6.8,5.7,12.1c-0.3,2.1-0.5,4.3-0.9,7.3C124.6,168.8,121.2,166.3,117.3,163.2z M115.7,161.1c0.3-0.2,0.7-0.4,1-0.5
			c1.7,1.3,3.4,2.6,5.1,3.9c1.7,1.3,3.4,2.6,5.2,4c2.2-6.2,1-10.6-3.7-14.3c-0.8-0.6-1.5-1.4-2.4-1.8c-3.8-2-5.3-4.9-4.5-9.2
			c0.3-1.8,0.1-3.8,0.2-5.7c0.2-5.2-2.2-8.6-7.5-10.4c-0.2,4.9-0.5,9.7-0.7,15.4c-3.9-3.4-7.2-6.1-11-9.3c-0.1,2.5-0.2,4.1-0.3,5.7
			c-0.3,3.6,0.4,6.8,3.9,8.6c7.4,3.9,8.1,10.3,7,17.7c-0.7,4.7,2.5,8.8,7.8,10.1C115.7,170.3,115.7,165.7,115.7,161.1z"/>
		<path d="M301.8,376.2c5.5,0.2,11,3.1,16,7c7.7,6,12.9,13.8,15,23.4c2.5,11.7-5.5,20.2-17.4,18.3c-10-1.6-16.9-8.1-22.8-15.7
			c-4.3-5.6-6.8-11.9-6.6-19.1C286.3,381.6,292.2,376.1,301.8,376.2z M317.9,424c9.9-0.5,15.5-7.3,13.4-16.9
			c-2.8-12.7-10.3-21.8-22-27.3c-6-2.8-12.3-3.7-17.7,1.2c-5.3,4.8-4.8,11.1-2.9,17.2c3.4,10.9,11,18.3,20.9,23.4
			C312.2,422.8,315.1,423.2,317.9,424z"/>
		<path d="M129.2,300.2c-0.3,1.6-0.6,4.5-1.6,7.2c-1.8,5-5.9,6.8-10.7,4.7c-2.2-1-4.4-2.4-6-4.2c-8.4-9-14.2-19.5-14.9-32.1
			c-0.2-3.5,0.5-7.2,1.7-10.5c1.9-5.3,6.5-6.9,10.9-3.5c4.5,3.5,8.6,7.7,11.9,12.3C125.8,281.5,128.7,289.9,129.2,300.2z M127.7,300
			c-0.9-11.6-4.7-20.6-11.1-28.4c-2.6-3.2-5.8-6.1-9.1-8.5c-3.6-2.5-6.8-1.4-8.4,2.7c-1.1,2.8-1.8,6-1.7,9
			c0.6,13.7,6.9,24.7,16.6,34c1.1,1.1,2.7,1.7,4.2,2.2c3.4,1.2,6.3,0.2,7.6-3.2C126.9,304.9,127.3,301.7,127.7,300z"/>
		<path d="M286.8,248.1c15.3,6.2,29.7,12.1,44,17.9c0.6,0.3,1.5,0.9,1.6,1.4c0.5,4.5,1.3,9.1-0.8,13.7c-1.2-0.5-2.3-0.9-3.4-1.3
			c-13.2-5.4-26.3-10.8-39.5-16.1c-1.7-0.7-2.6-1.7-2.5-3.5C286.5,256.4,286.6,252.5,286.8,248.1z M331.4,279.4c0-3.2-0.1-5.8,0-8.4
			c0.1-2.3-1-3.5-3.1-4.4c-12.4-4.9-24.7-10-37-15.1c-0.8-0.3-1.6-0.6-2.9-1.1c-0.2,2.7-0.4,5.2-0.6,7.6c-0.2,2.6,0.9,4.1,3.4,5.1
			c12.2,4.8,24.3,9.9,36.4,14.9C328.5,278.4,329.5,278.7,331.4,279.4z"/>
		<path d="M338.9,281.5c0.1-3.2,0.3-6.1,0.4-9.7c3.1,1.2,5.9,2.2,8.7,3.4c0.4,0.2,0.8,1.1,0.8,1.7c0.1,2.5,0,5,0,8.2
			C345.2,283.7,342,282.6,338.9,281.5z M347,280.8c0.7-4.7,0.4-5-4.1-5.6C341.6,279.4,341.9,279.8,347,280.8z"/>
		<path d="M348.5,298.6c-3.5-1.2-6.1-2.1-8.6-3.1c-0.6-0.3-1.3-1.2-1.4-1.8c-0.2-2.5-0.1-5.1-0.1-8.4c3.6,1.4,6.5,2.5,9.4,3.7
			c0.3,0.1,0.6,0.8,0.6,1.2C348.5,292.8,348.5,295.4,348.5,298.6z M342.1,288.7c-0.9,4.5-0.7,4.7,4.3,5.7
			C347.4,290.1,347.1,289.6,342.1,288.7z"/>
		<path d="M349.7,257.7c-3.4-1.3-6.4-2.4-9.4-3.6c-0.3-0.1-0.5-0.8-0.5-1.3c0.1-2.7,0.3-5.3,0.6-8.5c3.2,1.2,6.1,2.1,8.9,3.3
			c0.4,0.2,0.8,0.9,0.8,1.4C350,251.7,349.9,254.3,349.7,257.7z M348.1,253.4c0.8-4.7,0.2-5.4-4.5-5.6
			C342.7,252.1,342.9,252.4,348.1,253.4z"/>
		<path d="M144,306.7c7,3.8,8.2,6.2,6.9,13.3C144.9,318.9,141.4,312.4,144,306.7z"/>
		<path d="M280.7,257.6c-1.8-0.8-2.5-1.1-3.2-1.5c-6.9-3.1-7.3-4.1-5.5-12.4c2.8,1.3,5.5,2.6,8.1,4c0.3,0.2,0.5,0.8,0.5,1.3
			C280.8,251.7,280.7,254.3,280.7,257.6z M278.8,252.9c0.8-4.2,0.5-4.7-3.7-5.6C274.1,251.5,274.3,251.8,278.8,252.9z"/>
		<path d="M124.9,128.3c6.7,3.4,8.1,6.6,6.1,13.9C125.4,140.3,122.6,135.1,124.9,128.3z"/>
		<path d="M338.4,308.7c0-3.4,0-6.3,0-9.7c3.3,1.2,6.1,2.1,8.9,3.2c0.5,0.2,0.8,1.1,0.8,1.7c0.1,2.5,0,4.9,0,8.1
			C344.5,310.8,341.4,309.7,338.4,308.7z M341.8,302.2c-0.8,4.5-0.4,5,4.4,5.6C347.1,303.7,346.8,303.3,341.8,302.2z"/>
		<path d="M140.1,299.6c-6.4-2.2-8.6-6.4-7.1-13.3C139.2,288.1,141.3,292.1,140.1,299.6z"/>
		<path d="M349.4,271.4c-4-1.5-7-2.6-10.2-3.7c0.2-3.1,0.4-6.1,0.7-9.7c3.2,1.2,6,2.2,8.7,3.3c0.4,0.1,0.8,0.7,0.8,1.1
			C349.4,265.2,349.4,268,349.4,271.4z M347.4,267c0.9-4.6,0.5-5-4.4-5.7C342.1,265.8,342.5,266.3,347.4,267z"/>
		<path d="M144,320c6.4,1.9,8.5,5.5,7.5,12.9C145.7,332.3,143.3,328.1,144,320z"/>
		<path d="M348.7,420.6c-3.2-1.1-5.8-2-8.4-3.1c-0.5-0.2-1.1-1.1-1.2-1.7c-0.1-2.5-0.1-4.9-0.1-8.1c3,1.1,6.1,2.2,9.1,3.4
			c0.2,0.1,0.4,0.7,0.4,1C348.7,414.9,348.7,417.5,348.7,420.6z M342.8,411.1c-0.9,4-0.4,4.7,4.1,5.1
			C347.6,412.2,347.3,411.8,342.8,411.1z"/>
		<path d="M348.3,407.5c-3.3-1.2-6.1-2.2-8.8-3.2c-0.4-0.1-0.9-0.7-0.9-1c-0.1-2.7,0-5.5,0-8.6c3.1,1.1,5.9,2.1,8.7,3.2
			c0.4,0.2,1,0.8,1,1.3C348.4,401.7,348.3,404.3,348.3,407.5z M346.4,403.3c0.9-4.1,0.5-4.6-4.2-5.5
			C341.2,401.7,341.4,402,346.4,403.3z"/>
		<path d="M271.5,379.6c2.9,1.4,5.4,2.4,7.7,3.7c0.5,0.3,1.2,1,1.2,1.5c0.1,2.5,0.1,5.1,0.1,8.2c-3-1.3-5.7-2.5-8.3-3.7
			c-0.3-0.1-0.6-0.6-0.6-0.9C271.5,385.7,271.5,382.9,271.5,379.6z M278.8,388.6c0.4-4-0.3-4.7-3.9-5
			C274,386.9,275.9,388,278.8,388.6z"/>
		<path d="M144.5,333.1c6.4,1.8,9,6.2,7.5,13C146.3,345,144.1,341.3,144.5,333.1z"/>
		<path d="M221.8,232.7c2.6,1.3,5,2.5,7.3,3.8c0.4,0.2,0.8,0.9,0.9,1.4c0.1,2.6,0,5.3,0,8C222.4,244.7,219.8,240.5,221.8,232.7z
			 M228,241.8c0.8-3.9,0.7-4.2-3.1-5.3C224,240.3,224.3,240.7,228,241.8z"/>
		<path d="M140.7,312.7c-6.1-1.6-9.7-8.5-7.1-13.4C139.9,302.1,141.4,304.8,140.7,312.7z"/>
		<path d="M349.8,446.6c-3-1.1-5.9-2-8.7-3.1c-0.4-0.2-0.9-0.9-0.9-1.4c-0.2-2.5-0.3-5.1-0.4-8.3c3.4,1.3,6.4,2.4,9.2,3.5
			c0.4,0.1,0.7,0.8,0.7,1.2C349.8,441,349.8,443.6,349.8,446.6z M343.7,437.2c-0.7,4-0.2,4.5,4.3,5.1
			C348.6,438.5,348.4,438.4,343.7,437.2z"/>
		<path d="M92.3,124.4c-5.9-2.2-7.8-7.1-5.8-14C92.2,112.7,93.7,116.3,92.3,124.4z"/>
		<path d="M260.2,210.2c3.1,1.5,5.5,2.7,8,4c0.4,0.2,0.8,0.9,0.8,1.4c0,2.6-0.2,5.3-0.4,8.6c-3.1-1.4-5.8-2.6-8.4-3.8
			c-0.3-0.2-0.6-0.8-0.6-1.3C259.7,216.3,259.9,213.6,260.2,210.2z M267,219.6c0.8-4.3,0.6-4.5-3.5-5.7
			C262.3,217.9,262.8,218.7,267,219.6z"/>
		<path d="M85.9,137.7c6.1,3.9,7.3,6.9,5.5,13.9C85.9,150.3,82.8,142.5,85.9,137.7z"/>
		<path d="M234,225.2c3,1.5,5.4,2.7,7.8,3.9c0.4,0.2,0.9,0.9,0.9,1.4c0,2.7-0.2,5.3-0.3,8.7c-3-1.5-5.6-2.7-8.1-4
			c-0.3-0.2-0.7-0.8-0.6-1.2C233.7,231.3,233.8,228.6,234,225.2z M237.4,229c-0.9,4.3-0.8,4.5,3.3,5.5
			C241.5,230.5,241.4,230.4,237.4,229z"/>
		<path d="M92.7,110.9c-6-3.2-7.6-7.4-5.6-14.3C92.7,99,94.6,103.6,92.7,110.9z"/>
		<path d="M335.5,251.9c-8.1-1.6-10.9-5-8.8-12.7c2.8,1,5.7,2,8.5,3.2c0.4,0.2,0.8,0.9,0.8,1.4C335.9,246.4,335.7,249,335.5,251.9z
			 M333.8,248.3c1-4.8-0.3-6.4-4.5-5.6C329.2,245.8,331.1,247.2,333.8,248.3z"/>
		<path d="M272.2,225.9c0.2-3.3,0.4-6.2,0.7-9.8c3,1.4,5.6,2.5,8.1,3.8c0.5,0.2,0.9,1.1,0.9,1.7c0,2.6-0.2,5.1-0.4,8.4
			C278.2,228.5,275.2,227.2,272.2,225.9z M276.3,219.6c-1.2,4.4-0.7,5.2,3.6,5.7C280.7,221.3,280.7,221.3,276.3,219.6z"/>
		<path d="M338.1,381.4c3.4,1.2,6.3,2.3,9.1,3.3c0.4,0.1,0.8,0.7,0.8,1.1c0.1,2.6,0,5.3,0,8.3c-3.3-1.1-6.2-2.1-9-3.1
			c-0.4-0.2-0.9-0.9-0.9-1.3C338.1,387.2,338.1,384.6,338.1,381.4z M341.9,384.6c-0.7,4.3-0.4,4.7,4.4,5.4
			C346.9,386,346.8,385.9,341.9,384.6z"/>
		<path d="M349.2,433.6c-3.1-1.1-5.7-2-8.3-3c-0.5-0.2-1.2-0.9-1.3-1.4c-0.3-2.6-0.4-5.2-0.6-8.5c3.5,1.3,6.3,2.3,9.1,3.4
			c0.4,0.2,0.9,0.9,0.9,1.3C349.3,428,349.2,430.5,349.2,433.6z M343,424.1c-0.5,4.2,0.1,4.8,4.4,5C348,425.3,347.8,425.2,343,424.1
			z"/>
		<path d="M281.2,244c-3.7-1.6-6.6-2.9-9.6-4.2c0.2-3.2,0.4-6.2,0.7-9.7c3,1.4,5.6,2.6,8.2,3.9c0.4,0.2,0.7,0.8,0.7,1.2
			C281.3,237.8,281.2,240.5,281.2,244z M275.6,233.5c-1,4.5-0.5,5.2,3.7,5.6C280,235,280,235,275.6,233.5z"/>
		<path d="M255.3,231.8c-3.1-1.5-5.7-2.7-8.3-4c-0.3-0.2-0.5-0.8-0.5-1.3c0.1-2.7,0.3-5.3,0.4-8.6c3.1,1.5,5.7,2.8,8.3,4.1
			c0.3,0.2,0.5,0.8,0.5,1.3C255.6,226,255.4,228.6,255.3,231.8z M253.7,227.2c0.8-4.3,0.6-4.5-3.4-5.6
			C249.1,225.4,249.4,225.9,253.7,227.2z"/>
		<path d="M257.8,347.1c3.2,1.5,5.7,2.7,8.1,3.9c0.4,0.2,0.8,0.7,0.8,1.1c0.1,2.7,0,5.5,0,8.7c-3-1.4-5.7-2.6-8.3-3.9
			c-0.4-0.2-0.7-0.8-0.7-1.2C257.8,353.1,257.8,350.5,257.8,347.1z M261.5,351c-0.6,3.8-0.3,4.1,3.5,5.2
			C265.7,352.5,265.6,352.3,261.5,351z"/>
		<path d="M292.4,290.1c-2.7-1.1-5.5-2.2-8.1-3.4c-0.4-0.2-0.7-0.9-0.7-1.4c-0.1-2.6,0-5.1,0-7.7C290.3,278,295,282.7,292.4,290.1z
			 M291.4,285.9c0.1-3.1-1.6-4.6-4-5.7C286.4,284.3,286.7,284.9,291.4,285.9z"/>
		<path d="M280.3,271.2c-3.3-1.5-5.8-2.5-8.2-3.7c-0.5-0.3-1.1-1.1-1.2-1.7c-0.1-2.6-0.1-5.1-0.1-8.4c3.4,1.5,6.1,2.6,8.7,3.8
			c0.3,0.1,0.6,0.6,0.6,0.9C280.3,264.9,280.3,267.7,280.3,271.2z M274.6,260.9c-0.8,4.3-0.4,4.9,3.8,5.5
			C279.1,262.2,279,262.1,274.6,260.9z"/>
		<path d="M324.6,376.2c2.8,1,5.4,1.9,7.9,3c0.6,0.2,1.3,1.1,1.3,1.6c0.1,2.5,0.1,5.1,0.1,7.7C327.5,387.9,322.5,384.3,324.6,376.2z
			 M327.7,379.4c0.2,3.4,1.9,5.3,4.6,5C332.5,380.4,332.4,380.3,327.7,379.4z"/>
		<path d="M246.3,231.5c3.1,1.5,5.5,2.6,7.9,3.9c0.5,0.3,1,1.1,1,1.6c0,2.6-0.2,5.3-0.3,8.5c-3-1.4-5.7-2.7-8.3-3.9
			c-0.2-0.1-0.6-0.4-0.6-0.6C246,238,246.1,235,246.3,231.5z M253.1,240.9c0.8-4.3,0.7-4.5-3.4-5.6
			C248.6,239.2,248.8,239.5,253.1,240.9z"/>
		<path d="M267.9,237.8c-3-1.4-5.6-2.5-8.1-3.8c-0.4-0.2-0.7-0.8-0.7-1.2c0.1-2.7,0.3-5.5,0.4-8.9c3,1.4,5.7,2.6,8.3,3.9
			c0.3,0.2,0.7,0.8,0.7,1.2C268.3,231.8,268.1,234.6,267.9,237.8z M266.4,233.3c0.7-4.5,0.6-4.6-3.5-5.7
			C261.6,231.5,262.1,232.2,266.4,233.3z"/>
		<path d="M218,240.3c-3.1-1.7-5.3-2.8-7.5-4c-0.5-0.3-1.1-0.8-1.1-1.2c-0.1-2.9-0.1-5.8-0.1-9.4c3.2,1.8,5.6,3.1,7.9,4.5
			c0.4,0.2,0.7,0.8,0.7,1.2C218,234.2,218,236.9,218,240.3z M216,235.4c0.7-4,0.4-4.6-3.1-5.2C212,233,212.9,234.8,216,235.4z"/>
		<path d="M221.3,341.6c3.1,1.7,5.6,2.9,8,4.4c0.6,0.4,0.5,1.8,0.6,2.7c0.1,2,0,4.1,0,6.7c-2.9-1.5-5.5-2.7-8-4
			c-0.3-0.2-0.6-0.6-0.6-1C221.3,347.8,221.3,345,221.3,341.6z M227.9,350.6c0.7-3.5,0.4-4-3.1-4.8
			C223.9,348.7,225.2,350.1,227.9,350.6z"/>
		<path d="M134.3,325.4c6.4,2.6,8.7,6.9,7.2,13.4C135.7,337.1,133.2,332.6,134.3,325.4z"/>
		<path d="M235.2,197.9c1.5,0.7,2.2,1,2.9,1.4c6.3,3.2,7,4.9,4.9,12.3c-2.6-1.2-5.2-2.4-7.7-3.6c-0.3-0.1-0.7-0.6-0.6-0.9
			C234.8,204.2,235,201.2,235.2,197.9z M241.8,207.2c0.9-4.2,0.5-4.8-3.4-5.4C237.5,205.7,237.8,206.1,241.8,207.2z"/>
		<path d="M267,278.9c-3.4-1.5-5.9-2.6-8.3-3.9c-0.5-0.2-0.9-1.1-0.9-1.7c-0.1-2.5,0-5.1,0-8.4c3.3,1.5,6,2.7,8.7,3.9
			c0.3,0.1,0.5,0.7,0.5,1C267,272.6,267,275.3,267,278.9z M261.6,268.7c-1,4-0.6,4.6,3.5,5.3C265.8,269.8,265.6,269.6,261.6,268.7z"
			/>
		<path d="M175.9,205.8c2.3,1.4,4.5,2.8,6.7,4.3c0.4,0.3,0.7,1,0.7,1.5c0.1,2.5,0,5.1,0,7.7C176.7,218.9,173.3,212.7,175.9,205.8z
			 M181.5,214.9c0.6-2.5,0.4-4.5-2.7-5C177.8,212.6,178.6,214.3,181.5,214.9z"/>
		<path d="M209.3,335.1c3,1.6,5.3,2.8,7.6,4c0.4,0.2,0.8,0.7,0.8,1.1c0.1,2.7,0,5.4,0,8.7c-2.9-1.5-5.4-2.8-7.8-4.2
			c-0.3-0.2-0.6-0.8-0.6-1.3C209.3,341,209.3,338.5,209.3,335.1z M213,339.1c-0.8,2.9,0.2,4.5,3.1,5
			C216.9,341.4,216,339.8,213,339.1z"/>
		<path d="M91.8,138.1c-5.8-2.3-7.8-7.3-5.8-14C91.4,126.2,92.9,129.8,91.8,138.1z"/>
		<path d="M247.6,204.2c3,1.5,5.5,2.8,8,4.1c0.4,0.2,0.6,1,0.6,1.5c0,2.5-0.2,5.1-0.4,8.4c-3.1-1.5-5.7-2.8-8.2-4.1
			c-0.3-0.2-0.6-0.8-0.6-1.2C247.2,210.2,247.4,207.5,247.6,204.2z M254.3,213.5c0.7-4.3,0.4-4.7-3.5-5.5
			C249.9,212.1,250.2,212.4,254.3,213.5z"/>
		<path d="M294.7,424.9c-2.9-1.3-5.5-2.4-8-3.6c-0.4-0.2-0.9-0.9-0.9-1.4c-0.1-2.5,0-5.1,0-7.6C291.3,413,296.4,416.6,294.7,424.9z
			 M293,420.2c0.2-0.2,0.5-0.4,0.7-0.7c-1.3-1.5-2.7-3.1-4.4-5.1C288.7,419.2,289,419.7,293,420.2z"/>
		<path d="M96.6,104.5c1.8,1.6,4.4,2.9,5.3,4.9c0.9,1.9,0.4,4.7,0.1,7c0,0.3-2.4,1-2.9,0.6c-1.8-1.5-4.7-2.3-3.8-5.8
			c0.5-2,0.3-4.2,0.4-6.4C96.1,104.7,96.3,104.6,96.6,104.5z"/>
		<path d="M246.1,367.5c2.9,1.4,5.4,2.6,7.9,3.9c0.4,0.2,0.8,0.9,0.8,1.4c0.2,2.6,0.3,5.1,0.4,8.4c-3.2-1.5-6-2.8-8.6-4.1
			c-0.3-0.1-0.4-0.7-0.4-1C246.1,373.4,246.1,370.8,246.1,367.5z M249.6,371.2c-0.5,3.9-0.2,4.3,3.6,4.9
			C254.1,373.2,252.6,371.8,249.6,371.2z"/>
		<path d="M242.7,225.5c-3-1.4-5.4-2.6-7.8-3.8c-0.4-0.2-0.8-0.8-0.8-1.1c0.1-2.8,0.3-5.7,0.4-9.1c3,1.5,5.5,2.8,8,4.1
			c0.3,0.2,0.6,0.6,0.6,0.9C243.1,219.4,242.9,222.3,242.7,225.5z M241.2,221c0.7-4.4,0.5-4.8-3.4-5.6
			C237,219.5,237.1,219.5,241.2,221z"/>
		<path d="M258.9,237.7c3.1,1.4,5.5,2.5,7.9,3.7c0.4,0.2,1,0.8,1,1.3c0.1,2.7,0,5.5,0,9.1c-3.5-1.6-6.1-2.8-8.8-4.1
			c-0.3-0.2-0.7-0.8-0.7-1.2C258.5,243.8,258.7,241,258.9,237.7z M265.7,247.1c1-4.3,0.7-4.7-3.4-5.7
			C261.3,245.4,261.3,245.5,265.7,247.1z"/>
		<path d="M241.9,266.6c-3.3-1.6-5.7-2.8-8.2-4.1c-0.4-0.2-0.9-0.9-0.9-1.4c0-2.6,0.2-5.3,0.4-8.7c3.1,1.6,5.6,2.9,8.1,4.4
			c0.4,0.2,0.5,1,0.5,1.6C241.9,260.9,241.9,263.4,241.9,266.6z M236.6,256.2c-0.7,4.1-0.5,4.4,3.3,5.5
			C240.7,257.9,240.6,257.7,236.6,256.2z"/>
		<path d="M280,284.6c-3.4-1.5-6.2-2.6-8.9-3.9c-0.3-0.1-0.4-0.8-0.5-1.3c0-2.6,0-5.1,0-8.6c3.5,1.6,6.2,2.8,8.9,4.1
			c0.3,0.2,0.5,1.1,0.5,1.6C280,279,280,281.5,280,284.6z M278,280.1c0.9-4.1,0.3-4.9-3.9-5.4C273.4,278.7,273.7,279,278,280.1z"/>
		<path d="M282,419.1c-3.3-1.4-6-2.5-8.6-3.7c-0.4-0.2-0.6-1-0.7-1.5c-0.2-2.4-0.3-4.9-0.5-8.3c3.4,1.6,6.2,2.8,8.9,4.3
			c0.5,0.3,0.4,1.6,0.5,2.5C281.8,414.4,281.9,416.4,282,419.1z M279.8,414.6c0.6-3.8,0.1-4.4-3.8-4.9
			C275.7,413.2,275.7,413.2,279.8,414.6z"/>
		<path d="M281,406.1c-3-1.3-5.3-2.3-7.6-3.5c-0.5-0.3-1.2-0.9-1.2-1.4c-0.3-2.6-0.3-5.2-0.5-8.6c3.3,1.6,6.1,2.8,8.8,4.1
			c0.4,0.2,0.5,1,0.5,1.6C281.1,400.7,281,403.2,281,406.1z M279.3,401.5c0.3-3.8-0.1-4.3-3.8-4.9
			C275,400.1,275.2,400.4,279.3,401.5z"/>
		<path d="M235,387.5c2.8,1.4,5.4,2.5,7.8,3.9c0.5,0.3,0.7,1.6,0.7,2.4c0.1,2.2,0,4.4,0,7.1c-2.9-1.4-5.5-2.6-8-3.9
			c-0.3-0.1-0.6-0.6-0.6-0.9C235,393.4,235,390.7,235,387.5z M241.8,396.3c0.4-3.8,0.1-4.2-3.4-4.8
			C237.5,394.4,239,395.7,241.8,396.3z"/>
		<path d="M171.3,226c-7.1-2.6-9.1-6.7-6.9-13.4C171.3,215,173,218.2,171.3,226z M170,221.4c0.4-3.8,0.3-4.1-2.7-4.7
			C166.6,219.1,167.3,220.7,170,221.4z"/>
		<path d="M242.8,387.8c-2.7-1.3-5.3-2.6-7.9-4c-0.3-0.1-0.5-0.7-0.5-1c0-2.6,0-5.3,0-7.9C241.5,376.2,244.3,380.4,242.8,387.8z
			 M241.2,383.2c0.9-3.1-0.6-4.4-3.3-5C236.9,381.4,238.5,382.6,241.2,383.2z"/>
		<path d="M245.8,354.3c3,1.5,5.4,2.7,7.7,3.9c0.4,0.2,0.9,0.7,0.9,1.1c0.1,2.7,0,5.5,0,8.7c-2.8-1.3-5.4-2.5-7.9-3.8
			c-0.4-0.2-0.7-0.8-0.7-1.2C245.7,360.3,245.8,357.7,245.8,354.3z M252.7,363.4c0.5-4,0.2-4.4-3.5-5
			C248.2,361.4,249.8,362.7,252.7,363.4z"/>
		<path d="M166.2,157.5c2.6,1.6,4.8,2.9,7,4.4c0.5,0.3,0.6,1.4,0.6,2.1c0,2.5-0.2,4.9-0.3,7.4C166.7,170,164.6,166.2,166.2,157.5z
			 M169.3,161.7c-1,3.5-0.7,4.1,2.6,5.1C172.5,164.3,172.5,162.2,169.3,161.7z"/>
		<path d="M242.4,374.9c-2.9-1.4-5.4-2.7-7.9-4c-0.3-0.2-0.6-0.8-0.6-1.2c-0.1-2.6,0-5.1,0-7.7C240.5,362.2,243.5,366.5,242.4,374.9
			z M240.7,370.2c0.9-3.2-0.4-4.6-3.3-5.1C236.4,368.1,237.7,369.5,240.7,370.2z"/>
		<path d="M241.5,347.9c-7-0.9-9.3-4.2-8.3-12.2C240,336.1,243.2,340.8,241.5,347.9z M239.9,343.8c1-3.3-0.5-4.6-3.3-5.2
			C235.5,341.8,236.9,343.2,239.9,343.8z"/>
		<path d="M268.7,413.2c-2.8-1.3-5.3-2.4-7.7-3.7c-0.5-0.3-0.9-1.1-0.9-1.7c-0.2-2.4-0.3-4.9-0.4-7.4
			C266.6,400.7,269.9,405.2,268.7,413.2z M267,408.6c0.3-4-0.8-5.1-3.8-4.6C262.4,407.2,264.4,408,267,408.6z"/>
		<path d="M258.7,373.7c3,1.4,5.7,2.6,8.3,4c0.4,0.2,0.6,1,0.6,1.6c0.1,2.5,0,4.9,0,8c-3-1.4-5.6-2.6-8.3-3.9
			c-0.3-0.1-0.6-0.6-0.6-0.9C258.7,379.7,258.7,376.9,258.7,373.7z M265.8,382.6c0.6-3.8,0.4-4-3.5-5.1
			C261.5,381,261.6,381.2,265.8,382.6z"/>
		<path d="M206.5,206.1c-2.7-1.5-5.1-2.7-7.4-4.1c-0.3-0.2-0.5-0.8-0.5-1.3c0.1-2.7,0.2-5.3,0.3-8
			C205.9,193.3,208.2,197.3,206.5,206.1z M205.2,201.3c0.8-3.8,0.7-4.2-2.9-5.2C201.4,199.8,201.6,200.2,205.2,201.3z"/>
		<path d="M267.2,374c-2.8-1.3-5.2-2.3-7.5-3.5c-0.5-0.3-1.3-0.9-1.3-1.3c-0.1-2.7-0.1-5.4-0.1-8.7c2.9,1.4,5.6,2.6,8.2,3.9
			c0.3,0.2,0.7,0.8,0.7,1.2C267.2,368.2,267.2,370.9,267.2,374z M265.4,369.4c0.4-4,0.2-4.3-3.6-5.1
			C261.2,368,261.3,368.2,265.4,369.4z"/>
		<path d="M271.1,366.5c3,1.4,5.3,2.4,7.6,3.5c0.6,0.3,1.3,0.9,1.3,1.4c0.1,2.6,0.1,5.3,0.1,8.5c-3-1.4-5.7-2.6-8.4-3.8
			c-0.3-0.1-0.6-0.6-0.6-0.9C271.1,372.5,271.1,369.8,271.1,366.5z M274.6,370.1c-0.6,3.9-0.4,4.2,3.6,5.2
			C279,371.7,278.9,371.4,274.6,370.1z"/>
		<path d="M166.1,171.4c2.3,1.5,4.4,2.8,6.4,4.2c0.4,0.2,0.8,0.7,0.8,1.1c0.1,2.8,0,5.7,0,8.7C165.6,182.9,163.1,177.7,166.1,171.4z
			 M171.3,180.7c0.7-2.7,0.4-4.7-2.7-5.3C167.8,178,168.3,179.8,171.3,180.7z"/>
		<path d="M171.9,199.3c-2.4-1.5-4.6-2.9-6.7-4.3c-0.4-0.3-0.7-0.9-0.7-1.4c0.1-2.7,0.2-5.3,0.4-8
			C171.4,186.5,174.2,191.7,171.9,199.3z M168.2,189.1c-0.8,2.5-0.5,4.4,2.5,5.1C171.5,191.7,171.2,189.8,168.2,189.1z"/>
		<path d="M245.6,245.1c3.4,1.6,5.9,2.8,8.4,4.1c0.3,0.1,0.6,0.6,0.6,0.9c0,2.8,0,5.6,0,9.1c-3.4-1.6-5.9-2.7-8.3-4
			c-0.4-0.2-0.7-0.8-0.7-1.2C245.6,251.3,245.6,248.6,245.6,245.1z M252.6,254.5c1.1-4,0.5-4.8-3.5-5.3
			C247.9,252.4,249.6,253.8,252.6,254.5z"/>
		<path d="M139.5,190.8c-7.1-3.9-7.6-5-6.5-13.5C138.8,177.6,142.2,184.5,139.5,190.8z M137.3,180.8c-0.6,0.3-1.1,0.6-1.7,0.8
			c0.7,1.5,1.4,2.9,2.1,4.4c0.5-0.2,1-0.4,1.5-0.7C138.5,183.9,137.9,182.4,137.3,180.8z"/>
		<path d="M267.3,265.2c-3.4-1.6-6-2.7-8.4-3.9c-0.4-0.2-0.9-0.9-0.9-1.3c0.1-2.7,0.3-5.3,0.5-8.7c3.1,1.4,5.7,2.7,8.3,4
			c0.3,0.1,0.5,0.7,0.5,1C267.4,259.1,267.3,261.8,267.3,265.2z M265.5,260.6c0.6-4.3,0.4-4.6-3.7-5.5
			C260.9,259,261.1,259.3,265.5,260.6z"/>
		<path d="M171.2,308.2c-7.4-3.7-8.8-6.3-6.9-13.1C171,297.2,173.8,302.4,171.2,308.2z M168.4,298.6c-0.6,0.3-1.1,0.6-1.7,0.9
			c0.8,1.4,1.7,2.8,2.5,4.2c0.5-0.3,0.9-0.5,1.4-0.8C169.9,301.5,169.2,300.1,168.4,298.6z"/>
		<path d="M221.9,218.8c3,1.6,5.3,2.8,7.6,4.1c0.4,0.2,0.8,0.8,0.8,1.2c0.1,2.8,0,5.6,0,9.1c-3.3-1.7-5.7-2.9-8.1-4.2
			c-0.4-0.2-0.7-0.8-0.7-1.2C221.6,225.1,221.7,222.3,221.9,218.8z M228.4,228.2c0.7-4.2,0.5-4.5-3.2-5.4
			C224.2,225.7,225.1,227.6,228.4,228.2z"/>
		<path d="M85.4,151.3c6.1,3.9,7.1,6.4,5.7,14C85.8,163.9,82.9,157,85.4,151.3z"/>
		<path d="M268.6,400.4c-3.3-1.5-5.9-2.7-8.3-3.9c-0.4-0.2-0.9-0.7-0.9-1c-0.1-2.7,0-5.5,0-8.7c2.9,1.4,5.5,2.5,8,3.8
			c0.3,0.1,0.6,0.6,0.6,0.9C268.1,394.2,268.3,397,268.6,400.4z M266.3,395.7c0.3-4,0-4.5-3.6-4.9
			C261.8,393.8,263.5,395,266.3,395.7z"/>
		<path d="M223.2,191.4c3,1.6,5.4,2.8,7.7,4.2c0.4,0.2,0.6,1,0.6,1.5c-0.1,2.6-0.2,5.1-0.4,8.4c-3.1-1.6-5.7-2.9-8.4-4.3
			c-0.2-0.1-0.3-0.5-0.3-0.8C222.7,197.7,223,194.9,223.2,191.4z M226.5,195.3c-1.1,4-0.7,4.6,3.1,5.4
			C230.4,196.7,230.3,196.5,226.5,195.3z"/>
		<path d="M270.7,353.2c3.1,1.4,5.7,2.6,8.3,3.8c0.4,0.2,0.8,0.7,0.8,1.1c0.1,2.7,0,5.5,0,8.6c-3.1-1.4-5.6-2.4-8.1-3.6
			c-0.5-0.2-1-1-1-1.5C270.7,359,270.7,356.5,270.7,353.2z M274.6,356.8c-1.5,3.4-0.9,4.3,3.5,5.3
			C279.3,358.8,277.4,357.5,274.6,356.8z"/>
		<path d="M94.4,159.2c6.2,4,7.5,9.2,5.7,14.2C94.2,170.8,92,165.4,94.4,159.2z"/>
		<path d="M254.3,272.8c-3.3-1.6-5.8-2.8-8.2-4.1c-0.4-0.2-0.8-0.9-0.8-1.4c0-2.7,0.2-5.3,0.4-8.6c3,1.5,5.6,2.8,8.2,4.2
			c0.4,0.2,0.5,1.1,0.5,1.6C254.3,267,254.3,269.4,254.3,272.8z M252.4,268c0.7-4.1,0.3-4.7-3.5-5.2
			C247.8,265.8,249,267.4,252.4,268z"/>
		<path d="M193.8,226.6c-1-0.6-1.8-1.1-2.5-1.5c-5.5-3.3-6.2-5.4-4.4-11.9C193.6,214.6,196.4,219.8,193.8,226.6z M192.8,221.9
			c0.8-2.8,0.2-4.6-2.9-5.3C189.1,219.4,189.6,221.2,192.8,221.9z"/>
		<path d="M334,307c-2.5-1-4.1-1.9-5.8-2.2c-3.6-0.7-4.4-2.8-4.1-6.1c0.2-2,0.9-2.8,2.6-3.3c3.6-0.9,7.3,1.9,7.3,5.5
			C334,302.8,334,304.6,334,307z M327.9,297.2c-1,4.1-0.5,4.7,4.2,5.4C333,298.4,332.6,297.9,327.9,297.2z"/>
		<path d="M254.2,354.7c-3.1-1.4-5.5-2.6-7.9-3.7c-0.4-0.2-0.9-0.7-0.9-1c-0.1-2.7,0-5.5,0-9c3,1.5,5.6,2.7,8.1,4.1
			c0.4,0.2,0.7,0.8,0.7,1.2C254.2,348.9,254.2,351.5,254.2,354.7z M248.9,345.1c-0.6,3.5-0.3,4.1,3.5,4.9
			C252.9,346.2,252.6,345.7,248.9,345.1z"/>
		<path d="M150.3,185c-2.3-1.5-4.3-2.9-6.3-4.3c-0.4-0.3-0.9-0.7-0.9-1.1c0.1-2.9,0.3-5.8,0.5-8.8
			C150.7,173.4,152.8,177.9,150.3,185z M146.9,174.7c-0.6,3.7-0.5,4,2.5,4.8C149.8,177.4,149.8,175.5,146.9,174.7z"/>
		<path d="M154.8,164.6c6.8,2,8.3,5,7,13.3C155.6,177,153.4,172.8,154.8,164.6z M159,168c-0.4,0.1-0.7,0.3-1.1,0.4
			c-0.7,3.5-0.4,4,3.6,4.9C160.5,171.2,159.7,169.6,159,168z"/>
		<path d="M242.2,253.1c-3.4-1.7-6-3-8.6-4.4c-0.2-0.1-0.4-0.5-0.4-0.7c0-2.8,0-5.7,0-9.2c3.3,1.7,5.8,2.8,8.2,4.1
			c0.4,0.2,0.7,0.8,0.7,1.2C242.2,246.8,242.2,249.5,242.2,253.1z M239.9,248.2c1.6-3.5,0.9-4.8-3-5.3
			C235.8,245.9,237,247.5,239.9,248.2z"/>
		<path d="M175.5,315.4c6.9,2,9,5.5,7.6,12.8C176.7,327.4,174.1,323.1,175.5,315.4z M181.4,323.7c0.7-2.5,0.1-4.1-2.6-4.6
			C178,321.6,178.8,323.1,181.4,323.7z"/>
		<path d="M160.5,218.9c-6.8-2.2-8.9-6.6-6.8-13.3C160.4,207.7,162,210.8,160.5,218.9z M159.2,214.2c0.6-2.5,0.4-4.4-2.5-4.9
			C155.9,211.8,156.3,213.5,159.2,214.2z"/>
		<path d="M246.3,380.4c3.3,1.7,6,2.9,8.5,4.3c0.5,0.3,0.6,1.6,0.6,2.5c0.1,2,0,4.1,0,7c-3-1.5-6.7-2.3-8.2-4.5
			C245.8,387.7,246.6,384.1,246.3,380.4z M253.7,389.4c0.6-3.6,0.1-4.3-3.5-4.7C249.7,388.2,249.9,388.4,253.7,389.4z"/>
		<path d="M206.2,220c-2.9-1.6-5.3-3-7.7-4.4c-0.3-0.2-0.6-0.8-0.6-1.3c0.1-2.7,0.2-5.3,0.4-8.7c2.9,1.7,5.4,3,7.8,4.5
			c0.3,0.2,0.5,0.9,0.5,1.3C206.6,214.1,206.4,216.8,206.2,220z M201.6,209.6c-0.7,4.1-0.4,4.5,3.1,5.2
			C205.6,212.1,204.9,210.2,201.6,209.6z"/>
		<path d="M200,178.4c2.6,1.5,4.9,2.8,7.1,4.2c0.4,0.2,0.6,1,0.6,1.5c-0.1,2.6-0.2,5.1-0.3,7.7C200.5,191.2,198,186.8,200,178.4z
			 M202.8,182.2c-0.8,4-0.5,4.4,3.1,5.4C206.7,184.8,206.1,182.9,202.8,182.2z"/>
		<path d="M188.1,185.3c2.3,1.4,4.6,2.7,6.8,4.2c0.3,0.2,0.7,0.8,0.7,1.2c0.1,2.7,0,5.5,0,8.3C188.5,198,185.3,192,188.1,185.3z
			 M190.8,189.2c-1,2.9-0.3,4.7,2.7,5.3C194.5,191,194.3,190.7,190.8,189.2z"/>
		<path d="M197.9,233.1c2.5,1.4,4.7,2.6,6.9,3.9c0.5,0.3,0.9,1.1,0.9,1.7c0.1,2.5,0,5.1,0,7.7C198.8,245.7,195.9,240.9,197.9,233.1z
			 M200.9,237c-0.5,3.9-0.3,4.4,3.1,4.9C204.7,239.3,204,237.5,200.9,237z"/>
		<path d="M186.6,322c7.5,2.9,9,5.5,7.8,13.1C188.1,334.4,185.2,329.6,186.6,322z M192.7,330.5c0.6-3.3,0.4-3.5-2.7-4.5
			C189.3,329.3,189.4,329.5,192.7,330.5z"/>
		<path d="M85.4,247c5.4,2.4,7.2,6.1,6.4,13.5C86.6,259.8,83.4,252.9,85.4,247z"/>
		<path d="M162.2,164.3c-6.6-1.9-8.1-5-6.7-13.3C161.7,151.6,164.4,157,162.2,164.3z M158.5,154.5c-0.8,2.6-0.5,4.4,2.5,5.2
			C161.9,157.2,161.6,155.3,158.5,154.5z"/>
		<path d="M198.1,219.4c2.8,1.6,5.2,3,7.6,4.3c0.2,0.1,0.5,0.4,0.5,0.7c0,2.9,0,5.8,0,9.4c-3.3-1.8-5.7-3.2-8.1-4.5
			c-0.3-0.2-0.7-0.6-0.7-0.9C197.6,225.6,197.8,222.7,198.1,219.4z M201.2,223.3c-0.7,4-0.4,4.4,3.1,5.2
			C204.9,224.7,204.9,224.7,201.2,223.3z"/>
		<path d="M186.5,226.8c6.6,1.2,9,5.3,7.5,12.9C187.5,238.9,184.6,234,186.5,226.8z M192.1,235.4c1.4-3,0.9-4.1-2.6-5.1
			C188.6,232.9,189.5,234.6,192.1,235.4z"/>
		<path d="M188.6,171.6c2.4,1.5,4.7,2.7,6.8,4.2c0.5,0.3,0.9,1.1,0.9,1.7c0,2.6-0.2,5.1-0.3,7.7C189.3,185,186.4,179.8,188.6,171.6z
			 M194.3,180.9c0.7-4,0.5-4.5-2.9-5.3C190.5,178.3,191.1,180.2,194.3,180.9z"/>
		<path d="M335.7,441.3c-3-1.1-6.3-1.5-8.4-3.2c-1.3-1.1-1.2-4.2-1-6.4c0.1-0.6,2.9-1.6,4.2-1.3
			C335.6,431.4,336.9,434.4,335.7,441.3z M329.7,432c-0.4,3.9,0,4.4,4.2,4.9C334.5,433.2,334.1,432.8,329.7,432z"/>
		<path d="M133.9,163.4c6.5,2.6,8.3,6.5,6.2,13.6C134,175.3,131.6,170,133.9,163.4z M137.5,166.5c-1.8,3.9-1.5,4.6,2.2,5.8
			C139,170.2,138.4,168.7,137.5,166.5z"/>
		<path d="M184,178.9c-2.4-1.5-4.7-2.9-7-4.3c-0.3-0.2-0.6-0.8-0.5-1.3c0.1-2.7,0.4-5.3,0.6-8C183.5,165.7,186.6,171.7,184,178.9z
			 M183,173.9c0.8-2.7,0.5-4.6-2.8-5.3C179.4,171.3,179.7,173.3,183,173.9z"/>
		<path d="M218.6,198.9c-2.5-1.3-5-2.6-7.4-4c-0.3-0.2-0.5-0.8-0.5-1.3c0.1-2.6,0.4-5.3,0.6-8.7c2.9,1.6,5.5,3,7.9,4.5
			c0.3,0.2,0.3,1.1,0.3,1.7c0,2.5,0,4.9,0,7.4C219.3,198.5,218.9,198.7,218.6,198.9z M217.6,194.3c0.9-4.1,0.6-4.5-3.2-5.4
			C213.5,191.7,214.1,193.7,217.6,194.3z"/>
		<path d="M222.5,205.1c2.9,1.5,5.3,2.7,7.6,4.1c0.4,0.2,0.8,0.9,0.8,1.4c0.1,2.7,0,5.3,0,9c-3.3-1.8-6-3.1-8.6-4.6
			c-0.2-0.1-0.4-0.7-0.4-1.1C222.1,211.2,222.3,208.6,222.5,205.1z M225.8,208.9c-0.9,4.2-0.4,5,3.3,5.4
			C230,211.4,229.1,209.6,225.8,208.9z"/>
		<path d="M210.9,374.4c2.9,1.6,5.4,2.9,7.8,4.4c0.5,0.3,0.6,1.4,0.6,2.1c0.1,2.2,0,4.5,0,6.8C212.1,386,210.4,383.4,210.9,374.4z
			 M217.6,383.3c0.2-3.7,0-3.9-3.1-4.5C213.8,381.4,215,382.7,217.6,383.3z"/>
		<path d="M206.9,368.6c-2.7-1.6-5.1-2.9-7.4-4.3c-0.3-0.2-0.7-0.6-0.7-0.9c-0.1-2.7,0-5.4,0-8.2C205.8,356.9,208,360.3,206.9,368.6
			z M205.2,363.6c0.8-2.8-0.3-4.2-3-4.7C201.4,361.7,202.5,363.1,205.2,363.6z"/>
		<path d="M222.1,355c2.6,1.4,5,2.6,7.3,3.9c0.4,0.2,0.8,0.8,0.8,1.2c0.1,2.6,0,5.3,0,8C222.8,366.6,220.5,363,222.1,355z
			 M225.3,358.9c-0.9,2.8,0.2,4.3,3,4.7C229.2,360.8,228,359.4,225.3,358.9z"/>
		<path d="M285.6,222c3.4,1.5,6.7,2.1,8.4,4c1.2,1.4,0.8,4.6,0.4,6.9c-0.1,0.6-3.1,1.1-4.6,0.9c-3.7-0.6-5.1-3-4.3-6.8
			C285.8,225.6,285.6,224.2,285.6,222z M289.2,225.5c-1,4.4-0.4,5.2,3.8,5.7C293.9,227.1,293.8,227,289.2,225.5z"/>
		<path d="M210.7,212.6c2.3,1.3,4.6,2.5,6.9,3.9c0.3,0.2,0.7,0.8,0.7,1.2c0.1,2.7,0,5.5,0,9c-3.2-1.8-5.7-3.1-8.2-4.5
			c-0.2-0.1-0.4-0.7-0.4-1c0-2.7,0-5.3,0-8C210,213,210.4,212.8,210.7,212.6z M213.4,216.3c-1,3.1-0.2,4.9,3,5.5
			C217.3,218.8,216.8,216.9,213.4,216.3z"/>
		<path d="M129.4,279.1c-6-3.1-8.1-7.3-6.7-13.5C128.7,267.3,130.7,271.4,129.4,279.1z"/>
		<path d="M233.4,348c3,1.5,5.4,2.8,7.8,4.1c0.4,0.2,0.8,0.7,0.8,1.1c0.1,2.6,0,5.2,0,8.6c-3-1.5-5.6-2.8-8.1-4.1
			c-0.2-0.1-0.5-0.4-0.5-0.6C233.4,354.3,233.4,351.4,233.4,348z M240.3,357.1c0.4-3.9,0-4.4-3.4-4.8
			C236,355.2,237.5,356.4,240.3,357.1z"/>
		<path d="M247.4,393.8c2.8,1.3,5.2,2.5,7.6,3.8c0.4,0.2,0.8,0.9,0.8,1.4c0.1,2.4,0,4.9,0,7.4C249.4,406.1,246.2,401.8,247.4,393.8z
			 M254.2,402.4c1-3.3-0.7-4.4-3.5-4.9C249.8,400.6,251.5,401.7,254.2,402.4z"/>
		<path d="M231.3,394.1c-7.4-1.8-9.5-4.8-8.4-12.4C229.5,382.3,232.4,386.5,231.3,394.1z M226.6,385c-0.7,3.4-0.3,4.1,3.1,4.5
			C230.3,386.9,229.1,385.5,226.6,385z"/>
		<path d="M131,331.6c-2.1-1.5-4.7-2.6-5.9-4.5c-1.1-1.7-0.7-4.4-0.7-6.7c0-0.3,1.5-0.9,2.3-0.9c1.8,0,4.7,3.4,4.7,5.2
			c0.1,2,0.1,3.9,0.2,5.9C131.7,330.8,131.5,331,131,331.6z"/>
		<path d="M143.5,184.4c7,3.2,8.3,5.9,6.8,13.5C144.1,196.8,141.5,191.7,143.5,184.4z M146.5,188.4c-0.8,2.4-0.3,4.1,2.4,4.9
			C149.6,190.9,149.2,189.2,146.5,188.4z"/>
		<path d="M197.4,315.7c7.3,1.7,9.9,6.3,7.8,13.2c-2.3-1.3-4.7-2.6-6.9-3.9c-0.4-0.2-0.8-0.7-0.8-1.1
			C197.3,321.3,197.4,318.6,197.4,315.7z M203.9,324.1c0.9-2.8-0.2-4.1-2.9-4.8C200.2,322,201.1,323.6,203.9,324.1z"/>
		<path d="M145.2,143.6c6.4,1.7,8.7,6.8,6.3,13.5C144.9,154.7,142.9,150.4,145.2,143.6z M150.4,152.5c0.8-2.7,0.5-4.5-2.3-5.2
			C147.3,150.8,147.3,150.8,150.4,152.5z"/>
		<path d="M176.1,192.6c7.1,2.1,8.8,5.5,7.1,13.2C176.6,204.3,174.4,200.3,176.1,192.6z M179.1,196.1c-0.9,2.9-0.1,4.6,2.8,5.2
			C182.6,198.7,182.2,196.8,179.1,196.1z"/>
		<path d="M206.2,355.2c-7.5-2.8-9.4-6.1-7.8-12.9C205,343.4,208,348.1,206.2,355.2z M204.7,350.6c0.7-2.7-0.2-4.4-3.1-4.8
			C200.8,348.6,202,350.1,204.7,350.6z"/>
		<path d="M172.3,334.7c-7.3-3.3-9.2-6.7-7.3-13.3C171.5,323.3,174,327.7,172.3,334.7z M169.9,330c0.3-0.2,0.6-0.4,0.9-0.5
			c0.2-3.2,0.1-3.4-3.6-4.2C168.3,327.3,169.1,328.6,169.9,330z"/>
		<path d="M150.8,171.2c-2.3-1.6-4.4-2.9-6.3-4.4c-0.4-0.3-0.8-1-0.7-1.4c0.1-2.7,0.3-5.3,0.5-8
			C150.4,158.2,153.4,164.4,150.8,171.2z M148.5,160.7c-0.4,0.1-0.7,0.3-1.1,0.4c-0.8,3.4-0.5,3.9,3.4,5
			C149.9,164,149.2,162.3,148.5,160.7z"/>
		<path d="M187.7,348.3c7.4,3.1,8.7,5.2,7.6,12.8C189.1,360.6,185.5,354.6,187.7,348.3z M190.8,352.2c-0.5,3.2-0.4,3.3,2.8,4.6
			C194.2,354.3,193.7,352.6,190.8,352.2z"/>
		<path d="M92.7,287c-5.5-2-8.2-7.9-6.6-13.8C91.5,275.4,93.5,279.2,92.7,287z"/>
		<path d="M143.1,198.1c7,2.8,8.8,6.5,6.7,13.5C143.4,209.7,141.5,205.8,143.1,198.1z M147.2,201.8c-0.4,0.2-0.7,0.3-1.1,0.5
			c-0.6,2.3-0.2,3.9,3.2,4C148.6,204.8,147.9,203.3,147.2,201.8z"/>
		<path d="M197.8,329.1c7,1.5,9.8,6.1,8,12.8C199.1,340.4,197.1,337.3,197.8,329.1z M201.2,332.5c-0.9,2.8,0.2,4.3,3,4.9
			C205,334.7,204.1,333.2,201.2,332.5z"/>
		<path d="M228.9,260c-2.6-1.4-5-2.7-7.5-4.1c-0.3-0.2-0.6-0.8-0.6-1.2c-0.1-2.6,0-5.3,0-8C228.2,247.4,231.2,252.4,228.9,260z
			 M224.5,249.9c-0.8,3.9-0.5,4.3,3.1,5.3C228.6,251.6,228.4,251.2,224.5,249.9z"/>
		<path d="M173.6,360.5c-6.7-1.9-9-5.9-7.6-12.7C172.1,348.8,174.8,353.1,173.6,360.5z M171,356.1c0.3-0.2,0.6-0.4,0.9-0.5
			c0.4-2.1-0.1-3.6-3.3-3.5C169.4,353.3,170.2,354.7,171,356.1z"/>
		<path d="M161.4,327.6c-7.1-3.2-9-6.8-7.3-13.4C160.6,316.2,163,320.5,161.4,327.6z M158.3,317.9c-0.5,0.3-1.1,0.6-1.6,0.9
			c0.8,1.3,1.6,2.6,2.4,3.9c0.4-0.3,0.9-0.5,1.3-0.8C159.8,320.6,159,319.3,158.3,317.9z"/>
		<path d="M161,192.2c-2.4-1.6-4.5-3-6.6-4.4c-0.4-0.3-0.7-1-0.7-1.5c0.1-2.6,0.2-5.3,0.4-7.9C160.7,179.6,162.9,183.9,161,192.2z
			 M159.9,187.1c0.6-2.5,0.5-4.5-2.5-5C156.6,184.4,156.9,186.2,159.9,187.1z"/>
		<path d="M193.7,322.3c-2.3-1.4-4.6-2.7-6.9-4.1c-0.4-0.2-0.8-0.8-0.8-1.1c-0.1-2.6,0-5.3,0-8C193.3,310.8,196,315.4,193.7,322.3z
			 M190.7,312.2c-0.4,0.2-0.8,0.4-1.2,0.6c-0.6,2.5,0.1,4.2,2.8,4.7c0.3-0.2,0.7-0.4,1-0.6C192.4,315.3,191.5,313.8,190.7,312.2z"/>
		<path d="M93.8,241.7c5.1,2.2,7.1,5.3,7.2,10c0,2.4-2.2,2.7-2.9,2.2c-1.8-1.1-4.2-2-4.2-4.8C93.8,246.7,93.8,244.3,93.8,241.7z"/>
		<path d="M209.2,239.5c2.9,1.6,5.1,2.7,7.3,3.9c0.6,0.3,1.1,1.2,1.2,1.8c0.1,2.5,0.1,5.1,0.1,8.8c-3.3-1.9-6.9-2.8-8.2-5
			C208.1,246.7,209.2,243.1,209.2,239.5z M212.7,243.4c-0.8,3.9-0.6,4.3,3,5.3C216.8,245.8,215.7,244.2,212.7,243.4z"/>
		<path d="M135,135.8c7,3.8,8.5,7.2,6.1,14C134.6,147.2,132.7,143.1,135,135.8z M137.6,139.9c-0.4,2.4-0.5,4.3,2.5,5
			C140.6,142.5,140.6,140.7,137.6,139.9z"/>
		<path d="M95.8,294.3c5.7,3.1,7.7,7.2,6.6,13.6C97.3,306.7,94.3,300.8,95.8,294.3z"/>
		<path d="M176.6,179c6.5,1.3,8.8,5.4,7.1,13.1C177.2,191,174.7,186.3,176.6,179z M179.8,182.4c-1,3.5-0.7,4.1,2.6,5.1
			C183.2,184.9,182.6,183.1,179.8,182.4z"/>
		<path d="M153.5,287.9c6.4,1.9,9.1,6.9,7.1,13.1C153.9,298.6,151.7,294.4,153.5,287.9z M157.6,291.5c-0.5,0.3-1.1,0.6-1.6,1
			c0.8,1.3,1.7,2.7,2.5,4c0.4-0.3,0.9-0.5,1.3-0.8C159.1,294.3,158.3,292.9,157.6,291.5z"/>
		<path d="M210.6,198.7c2.9,1.6,5.4,2.8,7.7,4.2c0.3,0.2,0.5,0.8,0.5,1.3c0,2.7,0,5.3,0,9c-3.3-1.9-6-3.3-8.5-4.8
			c-0.3-0.2-0.2-1.1-0.2-1.7C210.3,204.2,210.4,201.8,210.6,198.7z M214.1,202.5c-1.5,3.3-1,4.3,2.8,5.4
			C218.1,205,217.1,203.3,214.1,202.5z"/>
		<path d="M217.3,335.8c-2.7-1.5-5.1-2.7-7.5-4.1c-0.4-0.2-0.6-1-0.6-1.5c-0.1-2.5,0-4.9,0-7.4C215.5,322.9,218.5,327.5,217.3,335.8
			z M212.5,325.9c-0.9,3.1,0.4,4.4,3.1,5.1C216.4,328.3,215.6,326.6,212.5,325.9z"/>
		<path d="M230.8,381.8c-1.6-0.8-2.4-1.3-3.3-1.7c-5.6-3-6.4-4.8-5-12.1c2.7,1.5,5.3,2.8,7.7,4.4c0.6,0.4,0.5,1.8,0.5,2.8
			C230.8,377.1,230.8,379.2,230.8,381.8z M225.7,371.8c-0.9,3.2,0.5,4.5,3.2,4.9C229.9,373.8,228.4,372.5,225.7,371.8z"/>
		<path d="M86.7,286.1c6,3.1,7.9,7.4,6.4,13.8C87.8,297.8,85.7,293.3,86.7,286.1z"/>
		<path d="M187.1,199.3c7.2,2.2,9.4,6.4,7.2,13.8c-2.4-1.5-4.8-2.9-7.1-4.3c-0.3-0.2-0.6-0.6-0.6-1
			C186.7,205,186.9,202.2,187.1,199.3z M190.3,202.9c-0.8,2.9-0.2,4.8,3,5.3C193.9,205.5,193.4,203.7,190.3,202.9z"/>
		<path d="M188,361.4c7.4,2.8,9.3,5.9,7.9,12.8C189.2,372.9,186.9,369.2,188,361.4z M193.3,370.1c0.3-0.2,0.6-0.3,0.9-0.5
			c0.4-3.2,0.2-3.5-3.8-4.2C191.6,367.4,192.5,368.8,193.3,370.1z"/>
		<path d="M150.1,307.2c-7.2-4-8.8-7.2-6.8-13.4C149.8,295.8,152.1,300.3,150.1,307.2z M147.5,297.5c-0.5,0.3-1.1,0.6-1.6,0.9
			c0.7,1.3,1.4,2.6,2.1,3.9c0.5-0.2,1-0.5,1.4-0.7C148.8,300.2,148.1,298.8,147.5,297.5z"/>
		<path d="M92,273.9c-5.9-3-7.8-7.2-6.3-13.8C90.8,262,93.1,266.9,92,273.9z"/>
		<path d="M140.7,163.5c-6.8-2.8-8.7-7.1-6.2-13.8C141.2,152.8,142.4,155.4,140.7,163.5z M137.2,153.7c-0.6,2.4-0.5,4.2,2.4,5
			C140,156.4,140.2,154.4,137.2,153.7z"/>
		<path d="M173,347.5c-6.7-1.8-9.2-6.1-7.6-12.9C171.7,336,174,339.9,173,347.5z M169.6,338c-0.5,0.3-1.1,0.6-1.6,1
			c0.9,1.4,1.7,2.8,2.6,4.2c0.5-0.3,0.9-0.5,1.4-0.8C171.1,340.9,170.3,339.4,169.6,338z"/>
		<path d="M209.9,348.3c2.9,1.6,5.2,2.8,7.5,4.2c0.4,0.2,0.7,0.8,0.7,1.2c0.1,2.6,0,5.3,0,8.5c-2.9-1.5-5.3-2.8-7.6-4.2
			c-0.4-0.2-0.6-1-0.6-1.6C209.9,354,209.9,351.5,209.9,348.3z M213.4,352.4c-0.7,2.7,0.2,4.2,3.1,4.8
			C217.1,354.5,216.1,352.9,213.4,352.4z"/>
		<path d="M154.7,327.2c7.1,3.1,8.8,6.2,7.3,13C155.9,339.1,153.2,334.3,154.7,327.2z M158.9,331c-0.5,0.3-1.1,0.6-1.6,1
			c0.8,1.3,1.6,2.6,2.4,3.9c0.5-0.3,0.9-0.5,1.4-0.8C160.3,333.7,159.6,332.4,158.9,331z"/>
		<path d="M175.9,328.5c7,2.2,8.9,5.7,7.5,12.8C177.2,340.4,174.5,336,175.9,328.5z M180.8,337.1c0.6-0.3,1.2-0.6,1.8-0.9
			c-0.9-1.5-1.7-2.9-2.6-4.4c-0.5,0.3-1,0.5-1.5,0.8C179.3,334.1,180.1,335.6,180.8,337.1z"/>
		<path d="M229.1,342.1c-2.5-1.3-4.9-2.5-7.4-3.8c-0.4-0.2-0.7-0.8-0.7-1.2c-0.1-2.6,0-5.3,0-8C228,330,231.1,335,229.1,342.1z
			 M227.7,337.5c0.9-3-0.3-4.5-3.2-5.1C223.5,335.5,224.9,336.8,227.7,337.5z"/>
		<path d="M207.2,381.4c-7.6-3.4-9.2-6-7.7-12.9C206.1,369.6,209.2,374.6,207.2,381.4z M205.5,376.5c0.3-0.2,0.7-0.5,1-0.7
			c-1-1.4-2-2.8-3-4.2C202,374.6,203.2,375.9,205.5,376.5z"/>
		<path d="M85.1,233.4c6.2,3.9,7.6,7.4,6,14C85.6,245.2,83.3,240,85.1,233.4z"/>
		<path d="M160.7,205.8c-2.3-1.5-4.4-2.8-6.4-4.2c-0.4-0.3-0.9-0.9-0.9-1.4c-0.1-2.7,0-5.5,0-8.3
			C160.2,193.3,162.9,198.6,160.7,205.8z M159.5,200.7c0.7-2.6,0.3-4.4-2.6-5.1C156.2,198.1,156.6,199.9,159.5,200.7z"/>
		<path d="M283.7,359.1c3.3,1.4,6.4,2.1,8.4,4c1.2,1.1,1,4.3,0.6,6.3c-0.1,0.7-3.1,1.4-4.6,1.1c-3.3-0.6-5.3-2.5-4.5-6.3
			C283.9,362.8,283.7,361.2,283.7,359.1z M287.4,362.7c-0.8,4-0.1,4.8,3.9,5.2C292.4,364.5,290.5,363.3,287.4,362.7z"/>
		<path d="M164.5,199c7.1,2.3,8.1,4.2,7.5,13.9c-2.7-1.6-6.2-2.5-7.2-4.5C163.6,205.9,164.5,202.4,164.5,199z M170.3,207.9
			c0.8-2.7,0.2-4.4-2.6-5.1C166.9,205.3,167.4,207.1,170.3,207.9z"/>
		<path d="M218.3,374.9c-2.4-1.2-4.7-2.4-7-3.7c-0.4-0.2-0.8-0.9-0.8-1.4c-0.1-2.5,0-5.1,0-7.6C217,362.7,220.4,367.9,218.3,374.9z
			 M213.9,365.4c-0.8,3.4-0.4,3.9,3.1,4.7C217.7,367.5,216.7,365.9,213.9,365.4z"/>
		<path d="M150.3,293.7c-6.4-1.6-8.4-4.9-7.6-12.9C148.3,281.2,151,285.6,150.3,293.7z M147,284.3c-0.5,0.3-1,0.5-1.5,0.8
			c0.8,1.4,1.5,2.7,2.3,4.1c0.5-0.2,0.9-0.5,1.4-0.7C148.4,287.1,147.7,285.7,147,284.3z"/>
		<path d="M176.9,354.5c7.1,2.7,9.3,6.5,7.6,13.1C177.7,365.3,175.4,361.4,176.9,354.5z M181.9,363.1c0.5-0.3,1.1-0.6,1.6-0.9
			c-0.8-1.4-1.6-2.8-2.5-4.2c-0.5,0.3-1,0.5-1.4,0.8C180.4,360.3,181.2,361.7,181.9,363.1z"/>
		<path d="M175.1,219.4c8.1,4,9.4,6.6,7.2,14c-2.4-1.4-4.7-2.8-7.1-4.3c-0.3-0.2-0.6-0.6-0.6-0.9C174.8,225.4,175,222.6,175.1,219.4
			z M178.3,223.3c-0.7,2.8-0.2,4.6,2.8,5.1C182.1,225.7,181.2,224.1,178.3,223.3z"/>
		<path d="M187.2,335.1c7.7,3.4,9,5.8,7.5,13.2C188,346.5,185.3,341.9,187.2,335.1z M193.2,343.8c0.7-2.6-0.1-4.2-2.8-4.8
			C189.7,341.5,190.3,343.1,193.2,343.8z"/>
		<path d="M154,300.9c7.2,3.5,8.8,6.5,7,13.3C154.5,312.2,152.1,307.7,154,300.9z M158.5,309.6c0.5-0.3,1.1-0.5,1.6-0.8
			c-0.8-1.4-1.5-2.8-2.3-4.1c-0.5,0.3-1,0.5-1.4,0.8C157.1,306.8,157.8,308.2,158.5,309.6z"/>
		<path d="M155.3,340.3c6.6,2.5,8.8,6.5,7.4,13C156.6,352.1,153.9,347.3,155.3,340.3z M160.1,348.8c0.5-0.3,1-0.6,1.5-0.9
			c-0.8-1.3-1.6-2.6-2.4-3.8c-0.5,0.3-0.9,0.5-1.4,0.8C158.7,346.2,159.4,347.5,160.1,348.8z"/>
		<path d="M164.5,308c7.4,3.4,8.6,5.6,7.4,13.3C165.7,320,162.7,314.8,164.5,308z M169.3,317c0.3-0.2,0.7-0.3,1-0.5
			c0.5-2.2,0.1-3.9-3.3-3.9C167.8,314.1,168.6,315.5,169.3,317z"/>
		<path d="M141.2,325.9c-6.2-2-8.8-6.8-7.3-13.2C139.7,314.2,142,318.2,141.2,325.9z M138.6,320.9c0.5-0.3,0.9-0.5,1.4-0.8
			c-0.7-1.2-1.4-2.4-2.1-3.7c-0.4,0.2-0.8,0.4-1.2,0.7C137.3,318.4,137.9,319.6,138.6,320.9z"/>
		<path d="M184,354.6c-7.1-2.3-8.8-5.3-7.8-12.8C182.4,342.5,184.9,346.5,184,354.6z M181.3,350.1c0.6-0.3,1.1-0.6,1.7-1
			c-0.9-1.4-1.7-2.8-2.6-4.2c-0.5,0.3-1,0.6-1.5,0.9C179.7,347.3,180.5,348.7,181.3,350.1z"/>
		<path d="M139.6,286.4c-6.3-2-9-7.7-6.8-13.4C139.3,275.8,140.8,278.5,139.6,286.4z M136.9,276.9c-0.5,0.3-1.1,0.5-1.6,0.8
			c0.7,1.3,1.3,2.6,2,3.9c0.5-0.2,0.9-0.4,1.4-0.7C138.1,279.6,137.5,278.3,136.9,276.9z"/>
		<path d="M174.6,302.1c7.1,1.4,9.3,5.1,7.9,13.5c-2.6-1.6-5.9-2.5-7.1-4.6C174.2,308.7,174.9,305.3,174.6,302.1z M178.3,305.7
			c-0.8,2.7,0.1,4.3,2.9,4.9C181.8,307.9,181.1,306.3,178.3,305.7z"/>
		<path d="M132.8,190.8c6.4,2,8.3,5.8,6.8,13.4C133.4,202.6,131.5,198.9,132.8,190.8z M137.2,199.6c0.6-0.2,1.1-0.5,1.7-0.7
			c-0.7-1.5-1.4-3-2.1-4.5c-0.5,0.2-1,0.4-1.5,0.7C135.9,196.6,136.6,198.1,137.2,199.6z"/>
		<path d="M128.9,197.1c-2.2-1.6-5-2.9-6.3-5.1c-1-1.6-0.1-4.4,0.2-6.6c0.1-0.4,1.8-0.8,2.7-0.7c2.1,0.3,4.2,3.2,4.2,5.3
			c0,2.2,0,4.4,0,6.5C129.5,196.7,129.2,196.9,128.9,197.1z M127,191.9c0.6-0.2,1.1-0.4,1.7-0.6c-0.6-1.4-1.2-2.9-1.8-4.3
			c-0.5,0.2-1,0.4-1.5,0.6C125.9,189,126.4,190.5,127,191.9z"/>
		<path d="M321.5,241.7c-3-1.7-5.8-3.3-8.5-5.1c-0.4-0.3-0.5-1.4-0.3-2c0.1-0.3,1.2-0.5,1.7-0.4c1.7,0.5,3.3,1.5,5,1.9
			C322.7,237,322.4,239,321.5,241.7z"/>
		<path d="M310.8,370.6c2.8,1.1,5.6,1.9,7.9,3.3c1,0.6,1.1,2.7,1.9,4.5C315.4,377.1,310.5,373.2,310.8,370.6z"/>
		<path d="M319.7,301.5c-3.1-1.2-5.5-2-7.8-3.2c-0.6-0.3-0.9-1.4-1.4-2.1c0.8-0.2,1.6-0.6,2.3-0.5c2.2,0.3,4.5,0.8,6.9,1.3
			C319.7,298.3,319.7,299.7,319.7,301.5z"/>
		<path d="M321.4,436c-2.7-1.2-5.4-2.3-8.1-3.5c-0.5-0.2-0.7-1-1-1.6c0.6-0.3,1.2-0.9,1.7-0.8c2.2,0.3,4.6,0.4,6.6,1.3
			c1,0.5,1.3,2.5,1.8,3.9C322.1,435.5,321.8,435.8,321.4,436z"/>
		<path d="M298.7,232.4c0.2-1.5,0.3-2.8,0.5-4.6c3.1,1.3,5.8,2.4,8.4,3.7c0.5,0.2,0.5,1.2,0.8,1.9c-0.6,0.2-1.2,0.6-1.8,0.5
			C304.1,233.5,301.6,232.9,298.7,232.4z"/>
		<path d="M305.9,295.9c-2.9-1.2-5.7-2-8-3.5c-0.9-0.6-0.9-2.7-1.4-4.5C301.7,289.4,306.3,293.3,305.9,295.9z"/>
		<path d="M298.8,422.6c4.6,1.7,9.3,5.3,9.8,8.1c-3.4-1.5-6.5-2.6-9.3-4.2C298.7,426.2,299,424.2,298.8,422.6z"/>
		<path d="M305.9,371.2c-2.9-0.6-5.7-1.1-8.8-1.8c0-1.3,0-2.6,0-3.9C302,365.8,306.5,368.6,305.9,371.2z"/>
		<path d="M119.5,266.6c-4.3-2.8-7.3-7.1-6.4-9C118.8,260.5,120.3,262.5,119.5,266.6z"/>
		<path d="M120,188.9c-6.1-2.5-7.9-4.6-6.9-6.9c2,0.9,4.2,1.4,5.8,2.7C119.8,185.5,119.7,187.5,120,188.9z"/>
		<path d="M120.9,130.4c-1.7-4-6-5.5-6.4-10.2C121.1,123.4,122.7,125.7,120.9,130.4z"/>
		<path d="M104.8,116.8c0.2-1.5,0.3-2.8,0.5-4.2c4.6,2,7.2,5,6.4,7.5c-1.1-0.6-2.2-1.2-3.3-1.7C107.3,117.9,106.2,117.4,104.8,116.8
			z"/>
		<path d="M103.8,172c2.3,2.9,4.5,5.6,7.1,8.7C106,181.1,102,175.8,103.8,172z"/>
		<path d="M112.3,315.4c-5-0.9-7.8-4.7-6.6-8.7C108.2,309.6,110.8,312,112.3,315.4z"/>
		<path d="M109.6,257c-2.4-1.2-4.5-2.2-6.7-3.4c0.1-1.3,0.2-2.6,0.3-4C107.7,251.7,110.1,254.4,109.6,257z"/>
		<path d="M121.5,324.2c-2.4-1.8-4.5-3.4-6.5-5c-0.4-0.3-0.2-1.2-0.3-1.9c0.6,0,1.3-0.2,1.8,0c0.9,0.3,1.7,1.1,2.6,1.4
			C122,319.3,122.3,321,121.5,324.2z"/>
		<path class="st0" d="M115.4,88.5c3.7-2.1,7.6-2.4,11.4-0.8c3.2,1.4,6.3,3,9.1,5c50.4,37.1,104.7,67.6,161.6,93.4
			c11.4,5.1,20.6,12.7,28.2,22.5c0.6,0.8,1.2,1.6,1.7,2.5c0.1,0.1,0,0.4,0.1,1.5c-39.7-16.4-78.4-33.8-115.1-55.4
			C172.6,133.9,118,95.3,115.4,88.5z"/>
		<path class="st0" d="M338.3,218.8c-3.7-3.5-7.7-6.4-10.6-10.2c-8.2-10.4-18-18.7-30.2-24.2c-53.1-24.1-103.8-52.3-151.3-86.2
			c-2.1-1.5-4.2-3-6.3-4.6c-5-3.7-6.5-6-8.4-12.8c0.8,0.5,1.5,0.8,2.1,1.2c49.9,35.9,103.1,65.9,158.9,91.5
			c19.8,9.1,35,22.9,45,42.3c0.3,0.6,0.6,1.2,0.9,1.9C338.5,217.9,338.4,218.1,338.3,218.8z"/>
		<path class="st0" d="M328.7,219.7c-80.1-32.4-155.9-72.3-222.5-127.9c0.1-0.3,0.2-0.6,0.4-1c4.2,1.6,9.2,2.2,12.6,4.8
			c57,44.6,118.5,81.3,185.3,109c4.5,1.9,8.9,4.2,13.5,5.7C322.9,212,325.8,215.7,328.7,219.7z"/>
		<path class="st0" d="M95.7,79.7c4.3-5.9,9.4-9.3,16.3-8.3c9.8,1.5,18.3,5.2,20.2,16.8c-0.8-0.3-1.7-0.6-2.5-1
			c-4.2-2.1-8.5-2.6-13-1.1c-0.9,0.3-2,0.4-2.8,0.1C108,84.1,102.1,82,95.7,79.7z"/>
		<path class="st0" d="M114.8,91.1c-7.4-1.6-15.2-1.7-19.7-10c6.3,2.3,11.9,4.2,17.4,6.5C113.5,88,114,89.8,114.8,91.1z"/>
		<path class="st0" d="M326.8,214.1c1.9-1.5,3.3-1,5,0.6c2.9,2.9,6,5.6,9.3,8.5C336.3,224.6,330.9,221,326.8,214.1z"/>
		<path class="st0" d="M105.7,195.1c2.4,1.9,4.1,3.3,5.9,4.7c63,49.5,132,88.7,206.6,117.7c3.9,1.5,7.7,3.2,11.7,4.6
			c2.2,0.8,3.1,1.9,3,4.3c-0.1,7.9,0,15.7,0,23.6c0,3.6-0.3,3.9-3.5,2.5c-24.5-10.7-49.2-20.8-73.3-32.2
			c-49.7-23.6-95.2-54-138.5-87.8c-3.4-2.6-6.7-5.3-9.9-8.1c-1-0.9-2-2.3-2-3.5C105.7,212.4,105.7,204.1,105.7,195.1z M224.5,286.9
			c-0.6-4-1.9-8.2-6.4-10.5c-2.4-1.2-4.7-2.7-7-4c-4.7-2.7-9.3-5.4-14-8.1c-2.7-1.5-4.7-0.8-4.9,1.8c-0.3,4.4,0.8,8.8,4.5,11.2
			c7.4,4.8,15.3,9,23,13.3C222.4,292.2,224.4,290.8,224.5,286.9z"/>
		<path class="st0" d="M332.8,363.1c-10.5-4.4-20.5-8.5-30.4-12.7c-44.3-18.7-87.4-39.7-128.2-65.2c-27.3-17.1-52.6-36.7-77-57.6
			c-0.3-0.3-0.6-0.7-1.4-1.6c5.7,0.5,10.5-1,15.4,2.9c59,47.6,123.2,86.4,193.5,114.9c6.5,2.6,12.7,5.8,19.3,7.9
			C329.6,353.6,331.4,357.6,332.8,363.1z"/>
		<path class="st0" d="M103.9,219.7c-5.5-1.8-10.5-3.4-15.6-5.1c-0.5-0.2-1.1-1.2-1.1-1.8c-0.1-9.4,0-18.9,0-29.1c3,1.1,5.7,1.6,8,3
			c2.8,1.7,5.2,4,7.7,6.1c0.5,0.5,1,1.3,1,2C104,202.9,103.9,211.1,103.9,219.7z"/>
		<path class="st0" d="M343.8,361.1c-3-2.7-5.7-5.1-8.3-7.7c-0.6-0.6-0.9-1.6-0.9-2.4c-0.1-8.3-0.1-16.7-0.1-25
			c0-0.3,0.2-0.5,0.5-1.2c2.8,2.3,5.4,4.5,8,6.8c0.5,0.4,0.7,1.2,0.7,1.8C343.8,342.6,343.8,351.8,343.8,361.1z"/>
		<path class="st0" d="M87.8,215.8c6.1,3.2,13,2.7,18,8.1C95.4,226.1,90.3,223.9,87.8,215.8z"/>
		<path class="st0" d="M332.6,354.3c4.9,1.6,7,6.5,10.9,9.6c-4,2.2-8,0.9-9.4-2.6c-0.8-2-1.6-4-2.4-6
			C332,355,332.3,354.7,332.6,354.3z"/>
		<path class="st0" d="M296.5,470.3c-1.2-0.4-1.9-0.7-2.6-1c-56.6-25.9-110.6-56.2-161.1-92.7c-2.3-1.6-3.1-3.1-2.1-5.8
			c1.5-4.3,2.6-8.8,3.9-13.2c0.1-0.2,0.2-0.3,0.5-0.6c0.6,0.4,1.3,0.7,1.9,1.1c50.3,36.7,104.3,67.2,161,92.8
			c2.9,1.3,3.6,2.6,2.5,5.6C299.1,460.9,297.9,465.5,296.5,470.3z"/>
		<path class="st0" d="M124.9,343c60.6,46.5,127.6,81.3,198.1,109.8c0,0.3,0,0.5,0,0.8c-1.8,0.3-3.6,1.1-5.2,0.8
			c-5.9-1.2-12.1-1.8-17.5-4.3c-57.3-25.7-111.8-56.5-162.5-93.6C132.6,352.9,128.5,348.3,124.9,343z"/>
		<path class="st0" d="M128.6,372.8c-10.6-6.8-29-35.6-32.6-51.1c2.7,1.2,4.9,2.3,7.2,3.4c0.5,0.3,0.9,0.8,1.4,1.1
			c11.3,7.4,18.8,18.5,27.8,28.2c0.6,0.7,0.9,2.1,0.7,2.9C131.7,362.4,130.2,367.4,128.6,372.8z"/>
		<path class="st0" d="M298,470.9c1.7-5.9,3.4-11.5,5.1-17.4c4,0.8,7.8,1.8,11.6,2.3c2.4,0.3,5.3,0.6,7.3-0.4
			c4.1-2.1,7.4-0.5,10.6,1.3c3,1.7,5.4,4.2,8.1,6.3C331.3,476.2,314.6,477.3,298,470.9z"/>
		<path class="st0" d="M115.7,161.1c0,4.6,0,9.3,0,14c-5.2-1.3-8.5-5.4-7.8-10.1c1.2-7.4,0.5-13.8-7-17.7c-3.5-1.8-4.2-5-3.9-8.6
			c0.1-1.6,0.2-3.2,0.3-5.7c3.8,3.2,7,6,11,9.3c0.3-5.7,0.5-10.5,0.7-15.4c5.4,1.9,7.7,5.2,7.5,10.4c-0.1,1.9,0.1,3.8-0.2,5.7
			c-0.8,4.3,0.6,7.2,4.5,9.2c0.9,0.4,1.6,1.2,2.4,1.8c4.7,3.7,5.9,8.1,3.7,14.3c-1.8-1.4-3.5-2.7-5.2-4c-1.7-1.3-3.4-2.6-5.1-3.9
			C116.4,160.7,116,160.9,115.7,161.1z"/>
		<path class="st0" d="M317.9,424c-2.7-0.8-5.7-1.2-8.2-2.4c-9.9-5.1-17.5-12.4-20.9-23.4c-1.9-6.1-2.5-12.4,2.9-17.2
			c5.4-4.9,11.7-3.9,17.7-1.2c11.7,5.5,19.2,14.6,22,27.3C333.4,416.7,327.7,423.5,317.9,424z M313.6,416.3
			c7.7,0.2,11.5-3.9,10.3-11c-1.5-8.2-5.8-14.7-13.2-18.5c-2.7-1.4-6.4-1.8-9.5-1.5c-5.5,0.5-8.3,4.8-7.2,10.2
			c1.2,6,3.9,11.3,8.4,15.5C305.7,414,309.3,416.5,313.6,416.3z"/>
		<path class="st0" d="M127.7,300c-0.4,1.7-0.8,4.9-1.9,7.8c-1.3,3.4-4.2,4.4-7.6,3.2c-1.5-0.5-3.1-1.2-4.2-2.2
			c-9.7-9.3-16-20.3-16.6-34c-0.1-3,0.6-6.2,1.7-9c1.5-4.1,4.8-5.2,8.4-2.7c3.4,2.4,6.5,5.3,9.1,8.5
			C123,279.3,126.8,288.3,127.7,300z"/>
		<path class="st0" d="M331.4,279.4c-1.8-0.7-2.9-1-3.8-1.4c-12.1-5-24.3-10-36.4-14.9c-2.5-1-3.7-2.4-3.4-5.1
			c0.2-2.4,0.4-4.9,0.6-7.6c1.3,0.5,2.1,0.7,2.9,1.1c12.3,5,24.6,10.2,37,15.1c2.2,0.9,3.2,2,3.1,4.4
			C331.3,273.6,331.4,276.2,331.4,279.4z"/>
		<path class="st0" d="M347,280.8c-5.1-1.1-5.3-1.4-4.1-5.6C347.4,275.8,347.6,276.1,347,280.8z"/>
		<path class="st0" d="M342.1,288.7c4.9,0.9,5.3,1.4,4.3,5.7C341.4,293.4,341.3,293.2,342.1,288.7z"/>
		<path class="st0" d="M348.1,253.4c-5.2-1-5.4-1.3-4.5-5.6C348.3,248,348.9,248.7,348.1,253.4z"/>
		<path class="st0" d="M278.8,252.9c-4.4-1.1-4.6-1.5-3.7-5.6C279.2,248.3,279.5,248.7,278.8,252.9z"/>
		<path class="st0" d="M341.8,302.2c5.1,1.1,5.4,1.5,4.4,5.6C341.4,307.2,341,306.7,341.8,302.2z"/>
		<path class="st0" d="M347.4,267c-4.9-0.7-5.3-1.2-4.4-5.7C347.9,262,348.3,262.4,347.4,267z"/>
		<path class="st0" d="M342.8,411.1c4.4,0.7,4.7,1.1,4.1,5.1C342.5,415.8,341.9,415.1,342.8,411.1z"/>
		<path class="st0" d="M346.4,403.3c-5-1.3-5.2-1.6-4.2-5.5C346.9,398.7,347.3,399.2,346.4,403.3z"/>
		<path class="st0" d="M278.8,388.6c-2.9-0.6-4.9-1.7-3.9-5C278.6,383.9,279.2,384.6,278.8,388.6z"/>
		<path class="st0" d="M228,241.8c-3.7-1.1-4-1.5-3.1-5.3C228.7,237.6,228.8,237.9,228,241.8z"/>
		<path class="st0" d="M343.7,437.2c4.7,1.2,4.8,1.3,4.3,5.1C343.5,441.7,343.1,441.2,343.7,437.2z"/>
		<path class="st0" d="M267,219.6c-4.2-0.9-4.7-1.7-3.5-5.7C267.6,215.1,267.8,215.3,267,219.6z"/>
		<path class="st0" d="M237.4,229c4,1.4,4.1,1.5,3.3,5.5C236.6,233.5,236.5,233.3,237.4,229z"/>
		<path class="st0" d="M333.8,248.3c-2.7-1.2-4.7-2.5-4.5-5.6C333.6,242,334.9,243.5,333.8,248.3z"/>
		<path class="st0" d="M276.3,219.6c4.5,1.6,4.5,1.6,3.6,5.7C275.5,224.8,275.1,224.1,276.3,219.6z"/>
		<path class="st0" d="M341.9,384.6c4.9,1.3,5.1,1.4,4.4,5.4C341.5,389.3,341.1,388.9,341.9,384.6z"/>
		<path class="st0" d="M343,424.1c4.8,1.1,4.9,1.2,4.4,5C343.1,428.9,342.5,428.3,343,424.1z"/>
		<path class="st0" d="M275.6,233.5c4.4,1.5,4.4,1.5,3.7,5.6C275.1,238.7,274.6,238,275.6,233.5z"/>
		<path class="st0" d="M253.7,227.2c-4.3-1.3-4.6-1.8-3.4-5.6C254.3,222.7,254.5,223,253.7,227.2z"/>
		<path class="st0" d="M261.5,351c4.1,1.3,4.2,1.5,3.5,5.2C261.2,355.1,260.9,354.8,261.5,351z"/>
		<path class="st0" d="M291.4,285.9c-4.7-1-5.1-1.6-4-5.7C289.9,281.3,291.5,282.8,291.4,285.9z"/>
		<path class="st0" d="M274.6,260.9c4.4,1.3,4.5,1.4,3.8,5.5C274.2,265.7,273.8,265.2,274.6,260.9z"/>
		<path class="st0" d="M327.7,379.4c4.7,0.9,4.8,1,4.6,5C329.7,384.7,327.9,382.8,327.7,379.4z"/>
		<path class="st0" d="M253.1,240.9c-4.3-1.4-4.5-1.7-3.4-5.6C253.8,236.4,253.9,236.6,253.1,240.9z"/>
		<path class="st0" d="M266.4,233.3c-4.3-1.1-4.7-1.8-3.5-5.7C267,228.8,267.1,228.9,266.4,233.3z"/>
		<path class="st0" d="M216,235.4c-3.1-0.5-4-2.3-3.1-5.2C216.5,230.8,216.8,231.3,216,235.4z"/>
		<path class="st0" d="M227.9,350.6c-2.7-0.5-4-1.9-3.1-4.8C228.4,346.6,228.7,347.1,227.9,350.6z"/>
		<path class="st0" d="M241.8,207.2c-4-1.1-4.2-1.5-3.4-5.4C242.3,202.4,242.7,203,241.8,207.2z"/>
		<path class="st0" d="M261.6,268.7c4,0.9,4.2,1.1,3.5,5.3C261,273.3,260.6,272.7,261.6,268.7z"/>
		<path class="st0" d="M181.5,214.9c-2.9-0.7-3.7-2.3-2.7-5C181.9,210.4,182.1,212.4,181.5,214.9z"/>
		<path class="st0" d="M213,339.1c3,0.7,3.9,2.3,3.1,5C213.2,343.6,212.2,342,213,339.1z"/>
		<path class="st0" d="M254.3,213.5c-4.1-1-4.4-1.4-3.5-5.5C254.7,208.8,254.9,209.1,254.3,213.5z"/>
		<path class="st0" d="M293,420.2c-4-0.6-4.3-1-3.7-5.7c1.8,2,3.1,3.5,4.4,5.1C293.5,419.8,293.2,420,293,420.2z"/>
		<path class="st0" d="M249.6,371.2c3,0.6,4.5,1.9,3.6,4.9C249.4,375.6,249.1,375.2,249.6,371.2z"/>
		<path class="st0" d="M241.2,221c-4.1-1.5-4.2-1.6-3.4-5.6C241.7,216.3,242,216.6,241.2,221z"/>
		<path class="st0" d="M265.7,247.1c-4.4-1.6-4.4-1.7-3.4-5.7C266.5,242.3,266.7,242.8,265.7,247.1z"/>
		<path class="st0" d="M236.6,256.2c4,1.5,4.1,1.7,3.3,5.5C236.1,260.6,235.9,260.4,236.6,256.2z"/>
		<path class="st0" d="M278,280.1c-4.4-1.1-4.6-1.4-3.9-5.4C278.3,275.2,278.9,276,278,280.1z"/>
		<path class="st0" d="M279.8,414.6c-4.1-1.3-4.1-1.3-3.8-4.9C279.9,410.2,280.4,410.8,279.8,414.6z"/>
		<path class="st0" d="M279.3,401.5c-4.1-1-4.4-1.4-3.8-4.9C279.2,397.2,279.6,397.6,279.3,401.5z"/>
		<path class="st0" d="M241.8,396.3c-2.8-0.6-4.3-1.9-3.4-4.8C241.9,392.1,242.2,392.5,241.8,396.3z"/>
		<path class="st0" d="M170,221.4c-2.8-0.7-3.5-2.3-2.7-4.7C170.3,217.3,170.5,217.5,170,221.4z"/>
		<path class="st0" d="M241.2,383.2c-2.7-0.6-4.3-1.8-3.3-5C240.6,378.8,242.1,380.1,241.2,383.2z"/>
		<path class="st0" d="M252.7,363.4c-2.9-0.6-4.5-2-3.5-5C252.8,358.9,253.2,359.4,252.7,363.4z"/>
		<path class="st0" d="M169.3,161.7c3.1,0.6,3.2,2.7,2.6,5.1C168.7,165.8,168.4,165.2,169.3,161.7z"/>
		<path class="st0" d="M240.7,370.2c-2.9-0.6-4.2-2.1-3.3-5.1C240.2,365.6,241.5,367,240.7,370.2z"/>
		<path class="st0" d="M239.9,343.8c-3-0.6-4.4-2.1-3.3-5.2C239.4,339.3,240.9,340.6,239.9,343.8z"/>
		<path class="st0" d="M267,408.6c-2.6-0.7-4.6-1.5-3.8-4.6C266.2,403.5,267.3,404.7,267,408.6z"/>
		<path class="st0" d="M265.8,382.6c-4.2-1.4-4.3-1.6-3.5-5.1C266.2,378.5,266.3,378.7,265.8,382.6z"/>
		<path class="st0" d="M205.2,201.3c-3.5-1.1-3.8-1.5-2.9-5.2C205.8,197.1,206,197.5,205.2,201.3z"/>
		<path class="st0" d="M265.4,369.4c-4.1-1.2-4.3-1.5-3.6-5.1C265.7,365.2,265.9,365.5,265.4,369.4z"/>
		<path class="st0" d="M274.6,370.1c4.3,1.2,4.4,1.5,3.6,5.2C274.2,374.4,274,374.1,274.6,370.1z"/>
		<path class="st0" d="M171.3,180.7c-3-0.9-3.5-2.7-2.7-5.3C171.7,176,172,177.9,171.3,180.7z"/>
		<path class="st0" d="M168.2,189.1c3.1,0.7,3.3,2.6,2.5,5.1C167.7,193.6,167.4,191.7,168.2,189.1z"/>
		<path class="st0" d="M252.6,254.5c-3-0.6-4.6-2-3.5-5.3C253.1,249.6,253.7,250.5,252.6,254.5z"/>
		<path class="st0" d="M137.3,180.8c0.6,1.5,1.2,3.1,1.9,4.6c-0.5,0.2-1,0.4-1.5,0.7c-0.7-1.5-1.4-2.9-2.1-4.4
			C136.1,181.4,136.7,181.1,137.3,180.8z"/>
		<path class="st0" d="M265.5,260.6c-4.4-1.3-4.6-1.6-3.7-5.5C265.9,256,266.1,256.3,265.5,260.6z"/>
		<path class="st0" d="M168.4,298.6c0.7,1.5,1.5,2.9,2.2,4.4c-0.5,0.3-0.9,0.5-1.4,0.8c-0.8-1.4-1.7-2.8-2.5-4.2
			C167.3,299.2,167.9,298.9,168.4,298.6z"/>
		<path class="st0" d="M228.4,228.2c-3.4-0.7-4.2-2.5-3.2-5.4C228.9,223.7,229.1,224.1,228.4,228.2z"/>
		<path class="st0" d="M266.3,395.7c-2.9-0.6-4.6-1.8-3.6-4.9C266.3,391.2,266.7,391.7,266.3,395.7z"/>
		<path class="st0" d="M226.5,195.3c3.8,1.3,4,1.5,3.1,5.4C225.8,199.9,225.4,199.3,226.5,195.3z"/>
		<path class="st0" d="M274.6,356.8c2.8,0.7,4.8,2,3.5,5.3C273.6,361.1,273.1,360.2,274.6,356.8z"/>
		<path class="st0" d="M252.4,268c-3.4-0.5-4.5-2.2-3.5-5.2C252.6,263.3,253,263.9,252.4,268z"/>
		<path class="st0" d="M192.8,221.9c-3.1-0.6-3.7-2.5-2.9-5.3C192.9,217.3,193.5,219.1,192.8,221.9z"/>
		<path class="st0" d="M327.9,297.2c4.7,0.7,5.1,1.2,4.2,5.4C327.3,301.9,326.9,301.3,327.9,297.2z"/>
		<path class="st0" d="M248.9,345.1c3.7,0.7,4,1.2,3.5,4.9C248.7,349.1,248.3,348.6,248.9,345.1z"/>
		<path class="st0" d="M146.9,174.7c2.9,0.8,3,2.7,2.5,4.8C146.4,178.7,146.2,178.4,146.9,174.7z"/>
		<path class="st0" d="M159,168c0.7,1.6,1.5,3.2,2.5,5.3c-4-0.9-4.3-1.5-3.6-4.9C158.3,168.3,158.6,168.1,159,168z"/>
		<path class="st0" d="M239.9,248.2c-2.9-0.7-4.2-2.3-3-5.3C240.8,243.5,241.5,244.8,239.9,248.2z"/>
		<path class="st0" d="M181.4,323.7c-2.6-0.6-3.5-2.1-2.6-4.6C181.5,319.6,182.1,321.2,181.4,323.7z"/>
		<path class="st0" d="M159.2,214.2c-3-0.8-3.3-2.5-2.5-4.9C159.6,209.9,159.8,211.7,159.2,214.2z"/>
		<path class="st0" d="M253.7,389.4c-3.8-1-3.9-1.2-3.5-4.7C253.7,385.1,254.2,385.8,253.7,389.4z"/>
		<path class="st0" d="M201.6,209.6c3.3,0.6,3.9,2.5,3.1,5.2C201.2,214.2,201,213.8,201.6,209.6z"/>
		<path class="st0" d="M202.8,182.2c3.3,0.7,3.9,2.7,3.1,5.4C202.3,186.6,202,186.2,202.8,182.2z"/>
		<path class="st0" d="M190.8,189.2c3.6,1.5,3.7,1.8,2.7,5.3C190.5,193.9,189.8,192.1,190.8,189.2z"/>
		<path class="st0" d="M200.9,237c3.1,0.5,3.8,2.3,3.1,4.9C200.7,241.3,200.4,240.9,200.9,237z"/>
		<path class="st0" d="M192.7,330.5c-3.2-1-3.3-1.2-2.7-4.5C193.1,327,193.2,327.2,192.7,330.5z"/>
		<path class="st0" d="M158.5,154.5c3,0.8,3.3,2.7,2.5,5.2C158,158.9,157.7,157.1,158.5,154.5z"/>
		<path class="st0" d="M201.2,223.3c3.7,1.4,3.7,1.4,3.1,5.2C200.7,227.6,200.5,227.3,201.2,223.3z"/>
		<path class="st0" d="M192.1,235.4c-2.6-0.8-3.5-2.5-2.6-5.1C193,231.3,193.5,232.4,192.1,235.4z"/>
		<path class="st0" d="M194.3,180.9c-3.3-0.7-3.8-2.6-2.9-5.3C194.8,176.5,195,176.9,194.3,180.9z"/>
		<path class="st0" d="M329.7,432c4.5,0.8,4.8,1.2,4.2,4.9C329.6,436.4,329.2,436,329.7,432z"/>
		<path class="st0" d="M137.5,166.5c0.9,2.2,1.4,3.8,2.2,5.8C136,171.1,135.7,170.4,137.5,166.5z"/>
		<path class="st0" d="M183,173.9c-3.3-0.7-3.6-2.6-2.8-5.3C183.5,169.3,183.8,171.2,183,173.9z"/>
		<path class="st0" d="M217.6,194.3c-3.4-0.6-4.1-2.6-3.2-5.4C218.2,189.8,218.4,190.2,217.6,194.3z"/>
		<path class="st0" d="M225.8,208.9c3.3,0.7,4.2,2.5,3.3,5.4C225.4,213.9,224.9,213.1,225.8,208.9z"/>
		<path class="st0" d="M217.6,383.3c-2.6-0.7-3.8-1.9-3.1-4.5C217.6,379.4,217.8,379.7,217.6,383.3z"/>
		<path class="st0" d="M205.2,363.6c-2.7-0.5-3.8-1.9-3-4.7C204.9,359.4,206,360.8,205.2,363.6z"/>
		<path class="st0" d="M225.3,358.9c2.7,0.6,3.9,1.9,3,4.7C225.5,363.1,224.5,361.7,225.3,358.9z"/>
		<path class="st0" d="M289.2,225.5c4.6,1.4,4.8,1.6,3.8,5.7C288.8,230.8,288.2,229.9,289.2,225.5z"/>
		<path class="st0" d="M213.4,216.3c3.4,0.6,3.9,2.6,3,5.5C213.2,221.1,212.4,219.3,213.4,216.3z"/>
		<path class="st0" d="M240.3,357.1c-2.8-0.7-4.3-1.9-3.4-4.8C240.3,352.7,240.7,353.2,240.3,357.1z"/>
		<path class="st0" d="M254.2,402.4c-2.8-0.7-4.5-1.8-3.5-4.9C253.5,398.1,255.2,399.2,254.2,402.4z"/>
		<path class="st0" d="M226.6,385c2.6,0.5,3.7,1.9,3.1,4.5C226.3,389.1,225.8,388.4,226.6,385z"/>
		<path class="st0" d="M146.5,188.4c2.7,0.7,3.1,2.4,2.4,4.9C146.2,192.5,145.8,190.9,146.5,188.4z"/>
		<path class="st0" d="M203.9,324.1c-2.8-0.6-3.6-2.1-2.9-4.8C203.6,320,204.7,321.4,203.9,324.1z"/>
		<path class="st0" d="M150.4,152.5c-3.1-1.7-3.1-1.8-2.3-5.2C150.9,148,151.2,149.9,150.4,152.5z"/>
		<path class="st0" d="M179.1,196.1c3.1,0.7,3.5,2.6,2.8,5.2C179,200.7,178.3,199,179.1,196.1z"/>
		<path class="st0" d="M204.7,350.6c-2.7-0.5-3.9-2-3.1-4.8C204.5,346.2,205.4,347.9,204.7,350.6z"/>
		<path class="st0" d="M169.9,330c-0.8-1.4-1.6-2.8-2.7-4.7c3.8,0.8,3.8,1,3.6,4.2C170.5,329.7,170.2,329.8,169.9,330z"/>
		<path class="st0" d="M148.5,160.7c0.7,1.6,1.4,3.3,2.3,5.5c-3.9-1.1-4.1-1.7-3.4-5C147.8,161,148.1,160.8,148.5,160.7z"/>
		<path class="st0" d="M190.8,352.2c2.8,0.4,3.3,2.1,2.8,4.6C190.4,355.5,190.4,355.4,190.8,352.2z"/>
		<path class="st0" d="M147.2,201.8c0.7,1.5,1.4,3,2.1,4.5c-3.4-0.1-3.8-1.7-3.2-4C146.5,202.1,146.8,202,147.2,201.8z"/>
		<path class="st0" d="M201.2,332.5c2.9,0.6,3.8,2.2,3,4.9C201.4,336.9,200.4,335.4,201.2,332.5z"/>
		<path class="st0" d="M224.5,249.9c3.9,1.4,4.1,1.8,3.1,5.3C224,254.2,223.7,253.8,224.5,249.9z"/>
		<path class="st0" d="M171,356.1c-0.8-1.4-1.6-2.7-2.4-4.1c3.2-0.1,3.7,1.4,3.3,3.5C171.6,355.7,171.3,355.9,171,356.1z"/>
		<path class="st0" d="M158.3,317.9c0.7,1.4,1.4,2.7,2.1,4.1c-0.4,0.3-0.9,0.5-1.3,0.8c-0.8-1.3-1.6-2.6-2.4-3.9
			C157.3,318.5,157.8,318.2,158.3,317.9z"/>
		<path class="st0" d="M159.9,187.1c-3-0.9-3.3-2.7-2.5-5C160.4,182.6,160.5,184.6,159.9,187.1z"/>
		<path class="st0" d="M190.7,312.2c0.9,1.5,1.7,3.1,2.6,4.6c-0.3,0.2-0.7,0.4-1,0.6c-2.7-0.4-3.4-2.1-2.8-4.7
			C189.8,312.6,190.2,312.4,190.7,312.2z"/>
		<path class="st0" d="M212.7,243.4c3.1,0.7,4.1,2.4,3,5.3C212.1,247.7,211.8,247.3,212.7,243.4z"/>
		<path class="st0" d="M137.6,139.9c3,0.8,3,2.6,2.5,5C137.2,144.2,137.2,142.3,137.6,139.9z"/>
		<path class="st0" d="M179.8,182.4c2.9,0.7,3.4,2.5,2.6,5.1C179.1,186.5,178.8,186,179.8,182.4z"/>
		<path class="st0" d="M157.6,291.5c0.7,1.4,1.5,2.8,2.2,4.2c-0.4,0.3-0.9,0.5-1.3,0.8c-0.8-1.3-1.7-2.7-2.5-4
			C156.5,292.1,157.1,291.8,157.6,291.5z"/>
		<path class="st0" d="M214.1,202.5c3,0.7,4,2.5,2.8,5.4C213.2,206.8,212.6,205.8,214.1,202.5z"/>
		<path class="st0" d="M212.5,325.9c3.1,0.7,3.9,2.4,3.1,5.1C213,330.3,211.6,329,212.5,325.9z"/>
		<path class="st0" d="M225.7,371.8c2.7,0.7,4.2,2,3.2,4.9C226.1,376.3,224.8,375,225.7,371.8z"/>
		<path class="st0" d="M190.3,202.9c3.1,0.8,3.7,2.7,3,5.3C190,207.7,189.5,205.8,190.3,202.9z"/>
		<path class="st0" d="M193.3,370.1c-0.9-1.4-1.7-2.7-2.9-4.7c4,0.7,4.1,1,3.8,4.2C193.9,369.8,193.6,370,193.3,370.1z"/>
		<path class="st0" d="M147.5,297.5c0.7,1.3,1.3,2.7,2,4c-0.5,0.2-1,0.5-1.4,0.7c-0.7-1.3-1.4-2.6-2.1-3.9
			C146.4,298.1,146.9,297.8,147.5,297.5z"/>
		<path class="st0" d="M137.2,153.7c3,0.7,2.8,2.7,2.4,5C136.6,157.9,136.5,156.1,137.2,153.7z"/>
		<path class="st0" d="M169.6,338c0.8,1.4,1.6,2.9,2.4,4.3c-0.5,0.3-0.9,0.5-1.4,0.8c-0.9-1.4-1.7-2.8-2.6-4.2
			C168.5,338.6,169,338.3,169.6,338z"/>
		<path class="st0" d="M213.4,352.4c2.7,0.5,3.7,2.1,3.1,4.8C213.6,356.6,212.7,355.1,213.4,352.4z"/>
		<path class="st0" d="M158.9,331c0.7,1.3,1.5,2.7,2.2,4c-0.5,0.3-0.9,0.5-1.4,0.8c-0.8-1.3-1.6-2.6-2.4-3.9
			C157.8,331.7,158.4,331.4,158.9,331z"/>
		<path class="st0" d="M180.8,337.1c-0.8-1.5-1.5-3-2.3-4.5c0.5-0.3,1-0.5,1.5-0.8c0.9,1.5,1.7,2.9,2.6,4.4
			C182,336.5,181.4,336.8,180.8,337.1z"/>
		<path class="st0" d="M227.7,337.5c-2.8-0.7-4.2-2-3.2-5.1C227.4,333,228.6,334.5,227.7,337.5z"/>
		<path class="st0" d="M205.5,376.5c-2.3-0.6-3.5-1.9-1.9-5c1,1.4,2,2.8,3,4.2C206.2,376,205.9,376.3,205.5,376.5z"/>
		<path class="st0" d="M159.5,200.7c-2.9-0.8-3.3-2.6-2.6-5.1C159.8,196.3,160.2,198.1,159.5,200.7z"/>
		<path class="st0" d="M287.4,362.7c3.1,0.6,5,1.9,3.9,5.2C287.2,367.5,286.6,366.7,287.4,362.7z"/>
		<path class="st0" d="M170.3,207.9c-2.9-0.8-3.4-2.6-2.6-5.1C170.5,203.5,171.2,205.2,170.3,207.9z"/>
		<path class="st0" d="M213.9,365.4c2.7,0.5,3.7,2,3.1,4.7C213.6,369.4,213.2,368.8,213.9,365.4z"/>
		<path class="st0" d="M147,284.3c0.7,1.4,1.4,2.8,2.1,4.1c-0.5,0.2-0.9,0.5-1.4,0.7c-0.8-1.4-1.5-2.7-2.3-4.1
			C146,284.8,146.5,284.6,147,284.3z"/>
		<path class="st0" d="M181.9,363.1c-0.8-1.4-1.5-2.9-2.3-4.3c0.5-0.3,1-0.5,1.4-0.8c0.8,1.4,1.6,2.8,2.5,4.2
			C183,362.6,182.5,362.8,181.9,363.1z"/>
		<path class="st0" d="M178.3,223.3c2.9,0.8,3.7,2.4,2.8,5.1C178.1,227.9,177.6,226,178.3,223.3z"/>
		<path class="st0" d="M193.2,343.8c-2.9-0.7-3.5-2.3-2.8-4.8C193.1,339.6,193.9,341.1,193.2,343.8z"/>
		<path class="st0" d="M158.5,309.6c-0.7-1.4-1.4-2.8-2.1-4.2c0.5-0.3,1-0.5,1.4-0.8c0.8,1.4,1.5,2.8,2.3,4.1
			C159.6,309.1,159,309.3,158.5,309.6z"/>
		<path class="st0" d="M160.1,348.8c-0.7-1.3-1.5-2.6-2.2-3.9c0.5-0.3,0.9-0.5,1.4-0.8c0.8,1.3,1.6,2.6,2.4,3.8
			C161.2,348.3,160.6,348.5,160.1,348.8z"/>
		<path class="st0" d="M169.3,317c-0.8-1.5-1.5-2.9-2.3-4.4c3.4,0,3.8,1.7,3.3,3.9C170,316.7,169.7,316.8,169.3,317z"/>
		<path class="st0" d="M138.6,320.9c-0.6-1.3-1.3-2.5-1.9-3.8c0.4-0.2,0.8-0.4,1.2-0.7c0.7,1.2,1.4,2.4,2.1,3.7
			C139.5,320.4,139,320.6,138.6,320.9z"/>
		<path class="st0" d="M181.3,350.1c-0.8-1.4-1.6-2.8-2.4-4.3c0.5-0.3,1-0.6,1.5-0.9c0.9,1.4,1.7,2.8,2.6,4.2
			C182.4,349.5,181.9,349.8,181.3,350.1z"/>
		<path class="st0" d="M136.9,276.9c0.6,1.3,1.2,2.7,1.8,4c-0.5,0.2-0.9,0.4-1.4,0.7c-0.7-1.3-1.3-2.6-2-3.9
			C135.8,277.4,136.3,277.2,136.9,276.9z"/>
		<path class="st0" d="M178.3,305.7c2.8,0.6,3.5,2.2,2.9,4.9C178.4,310,177.5,308.4,178.3,305.7z"/>
		<path class="st0" d="M137.2,199.6c-0.6-1.5-1.3-3.1-1.9-4.6c0.5-0.2,1-0.4,1.5-0.7c0.7,1.5,1.4,3,2.1,4.5
			C138.3,199.2,137.7,199.4,137.2,199.6z"/>
		<path class="st0" d="M127,191.9c-0.5-1.4-1.1-2.9-1.6-4.3c0.5-0.2,1-0.4,1.5-0.6c0.6,1.4,1.2,2.9,1.8,4.3
			C128.1,191.5,127.5,191.7,127,191.9z"/>
		<path d="M224.5,286.9c0,3.9-2,5.3-4.9,3.7c-7.8-4.3-15.6-8.5-23-13.3c-3.7-2.4-4.8-6.8-4.5-11.2c0.2-2.6,2.2-3.3,4.9-1.8
			c4.7,2.6,9.3,5.4,14,8.1c2.3,1.3,4.6,2.8,7,4C222.6,278.7,223.8,282.9,224.5,286.9z M194.4,265.1c-1.7,3.5-0.1,9.1,3.6,11.3
			c7.2,4.4,14.6,8.5,22,12.7c1.8,1,3,0.5,2.8-1.6c-0.3-3.7-1.4-7.1-4.8-9.1c-7.2-4.2-14.5-8.4-21.7-12.5
			C195.7,265.5,195,265.3,194.4,265.1z"/>
		<path d="M313.6,416.3c-4.3,0.2-7.9-2.2-11.2-5.3c-4.5-4.2-7.2-9.5-8.4-15.5c-1.1-5.4,1.6-9.7,7.2-10.2c3.1-0.3,6.7,0.1,9.5,1.5
			c7.4,3.8,11.8,10.3,13.2,18.5C325.1,412.4,321.3,416.5,313.6,416.3z M313.6,414.8c6.5,0.2,9.7-3,8.8-8.7
			c-1.3-8.2-5.5-14.6-13-18.2c-2.5-1.2-5.8-1.3-8.6-0.9c-4.3,0.6-6.2,3.9-5.3,8.1c1.2,5.7,3.7,10.7,8,14.7
			C306.5,412.8,309.9,414.8,313.6,414.8z"/>
		<path class="st0" d="M194.4,265.1c0.6,0.2,1.3,0.4,1.8,0.7c7.3,4.2,14.5,8.3,21.7,12.5c3.5,2,4.5,5.4,4.8,9.1
			c0.2,2.2-1,2.7-2.8,1.6c-7.3-4.2-14.7-8.3-22-12.7C194.3,274.2,192.7,268.6,194.4,265.1z"/>
		<path class="st0" d="M313.6,414.8c-3.7,0.1-7.1-2-10.2-4.9c-4.3-4-6.8-9.1-8-14.7c-0.9-4.3,1-7.6,5.3-8.1c2.8-0.4,6.2-0.3,8.6,0.9
			c7.5,3.6,11.7,10,13,18.2C323.3,411.8,320.1,415,313.6,414.8z"/>
	</g>
</g>
</svg>
