<?xml version="1.0" encoding="utf-8"?>
<!-- Generator: Adobe Illustrator 22.1.0, SVG Export Plug-In . SVG Version: 6.00 Build 0)  -->
<svg version="1.0" id="Layer_1" xmlns="http://www.w3.org/2000/svg" xmlns:xlink="http://www.w3.org/1999/xlink" x="0px" y="0px"
	 viewBox="0 0 399 684" style="enable-background:new 0 0 399 684;" xml:space="preserve">
<style type="text/css">
	.st0{fill:none;stroke:#000000;stroke-width:2;stroke-miterlimit:10;}
</style>
<path class="st0" d="M19,93c0,0,2-13.2,13.7-29.5C51.8,36.8,96.5,1.6,200,1c0,0,163-3,179,87c0,0,14,92-179,98C200,186,29,189,19,93
	z"/>
<path class="st0" d="M328,27c52,25,45,63,45,63c-2,88-172,91-172,91c-46.7-3.4-81.2-10.5-106.5-19.6C6.7,129.9,29,75,29,75
	s-0.5-17.8,34.7-40.9"/>
<path class="st0" d="M100.1,163.3"/>
<polyline class="st0" points="84,156 84,68 114,41 114,143 95,161 "/>
<polyline class="st0" points="84,68 79,67 78,66.8 64,63 "/>
<path class="st0" d="M79,154l-1-87l24-24c0,0,2-2,12-4c0,0,2-6-14-2c0,0-28,10-38,19c0,0-5,3-4,11l0.1,76.3"/>
<path class="st0" d="M64,147.2L63,65c0,0,0-3,4-5c0,0,18.3-13.3,34.1-16.1L100,37"/>
<path class="st0" d="M33.7,117.7l24.1-24.2L54,90l-15-4l-3-4c0,0-8,13-9,17"/>
<path class="st0" d="M54,90l-23,20c0,0,1-9,8-24"/>
<polyline class="st0" points="115,144 117,148 100,165 "/>
<path class="st0" d="M117,148c0,0,110.8-32.8,194.4,12.1"/>
<path class="st0" d="M319.7,156.6c0,0-71.5-47.1-205.6-14.8"/>
<path class="st0" d="M26.5,73.4C26.5,73.4,10,93,8,204c0,0,11,81,174,90c0,0,220,9,209-116c0,0,3-37-12-90"/>
<path class="st0" d="M391,178c0,0,20,33-16,71c0,0-50,55-179,54c0,0-173,3-195-98c0,0,2-20,8-31"/>
<path class="st0" d="M1,206l2,76c0,0,21,91,194,93c0,0,145,6,192-78c0,0,8-8,9-36l-1-58"/>
<path class="st0" d="M389,298c0,0-1,51-29,93c0,0-25,63-161,65c0,0-178.1,17-189-158"/>
<path class="st0" d="M39,393l1,122c0,0-2,18,21,41c0,0,32,24,50,27l1.7-138.9"/>
<polyline class="st0" points="111,583 125,572 139,576 "/>
<polyline class="st0" points="125,572 121,570 121,563 139,568 137,450 "/>
<line class="st0" x1="121" y1="563" x2="121.2" y2="447"/>
<path class="st0" d="M105.4,581.6L105,624c0,0,22,21,43-1v-30"/>
<path class="st0" d="M106,626c0,0,4,17,20,17c0,0,17,1,21-18"/>
<path class="st0" d="M139,590c0,0,80,21,149-8V461c0,0-1-7,16-15l24-13c0,0,6-5,6,5l-1,121c0,0-2,3-5,1l-8-2c0,0-6-2-9,2l-22,21"/>
<line class="st0" x1="313" y1="557" x2="313" y2="442"/>
<line class="st0" x1="318.7" y1="557.7" x2="319" y2="440"/>
<polyline class="st0" points="328,560 328,437.3 328,435 "/>
<line class="st0" x1="334" y1="437" x2="328" y2="437"/>
<polyline class="st0" points="333,559 347,545 348,422 350,413 359.3,392.4 "/>
<polyline class="st0" points="359,394 359,513 347.2,524.5 "/>
<path class="st0" d="M294,578v85c0,0-3,11-20,10c0,0-13,1-22-9v-71.1"/>
<path class="st0" d="M252,665c0,0,4,18,21,18c0,0,18-1,21-18"/>
<path class="st0" d="M182,404l6,31c0,0,3,4-9,5c0,0-77-5-116-33c0,0-5-1-6-9l-5-30c0,0,0-7,7,0c0,0,46,28,115,30
	C174,398,183,396,182,404z"/>
<path class="st0" d="M139.8,590.2L139,568L139.8,590.2z"/>
</svg>
