<?xml version="1.0" encoding="utf-8"?>
<!-- Generator: Adobe Illustrator 22.1.0, SVG Export Plug-In . SVG Version: 6.00 Build 0)  -->
<svg version="1.1" id="Layer_1" xmlns="http://www.w3.org/2000/svg" xmlns:xlink="http://www.w3.org/1999/xlink" x="0px" y="0px"
	 viewBox="0 0 325.9 172" style="enable-background:new 0 0 325.9 172;" xml:space="preserve">
<path d="M305.9,0H20C9,0,0,9,0,20v132c0,11,9,20,20,20h285.9c11,0,20-9,20-20V20C325.9,9,316.9,0,305.9,0z M84.9,7.8h10.8v51.5H84.9
	V7.8z M90.4,152c-36.7,0-66.5-29.8-66.5-66.5c0-31.4,21.8-57.7,51-64.7V34c-22.4,6.7-38.7,27.4-38.7,51.8
	c0,29.9,24.4,54.2,54.5,54.2c30.1,0,54.5-24.3,54.5-54.2c0-24.3-16.1-44.9-38.3-51.7v-13c28.8,7.3,50,33.4,50,64.4
	C156.9,122.2,127.1,152,90.4,152z M301.9,151.7h-12.3V85.8c0-30-24.3-54.3-54.3-54.3c-30,0-54.3,24.3-54.3,54.3v66h-12V85.9
	c0.1-36.6,29.8-66.3,66.5-66.3c36.6,0,66.3,29.6,66.5,66.2V151.7z"/>
</svg>
